G04 EAGLE Gerber RS-274X export*
G75*
%MOMM*%
%FSLAX34Y34*%
%LPD*%
%INBoard Outline*%
%IPPOS*%
%AMOC8*
5,1,8,0,0,1.08239X$1,22.5*%
G01*
%ADD10C,0.025400*%
%ADD11C,0.000000*%
%ADD12C,0.050000*%
%ADD13C,0.254000*%


D10*
X0Y12700D02*
X0Y321310D01*
X4Y321617D01*
X15Y321924D01*
X33Y322230D01*
X59Y322536D01*
X93Y322841D01*
X133Y323145D01*
X181Y323448D01*
X237Y323750D01*
X299Y324050D01*
X369Y324349D01*
X446Y324646D01*
X530Y324942D01*
X622Y325235D01*
X720Y325525D01*
X825Y325813D01*
X938Y326099D01*
X1057Y326382D01*
X1183Y326662D01*
X1315Y326939D01*
X1455Y327212D01*
X1601Y327482D01*
X1753Y327748D01*
X1912Y328011D01*
X2077Y328270D01*
X2248Y328524D01*
X2425Y328775D01*
X2609Y329021D01*
X2798Y329263D01*
X2993Y329499D01*
X3194Y329732D01*
X3400Y329959D01*
X3612Y330181D01*
X3829Y330398D01*
X4051Y330610D01*
X4278Y330816D01*
X4511Y331017D01*
X4747Y331212D01*
X4989Y331401D01*
X5235Y331585D01*
X5486Y331762D01*
X5740Y331933D01*
X5999Y332098D01*
X6262Y332257D01*
X6528Y332409D01*
X6798Y332555D01*
X7071Y332695D01*
X7348Y332827D01*
X7628Y332953D01*
X7911Y333072D01*
X8197Y333185D01*
X8485Y333290D01*
X8775Y333388D01*
X9068Y333480D01*
X9364Y333564D01*
X9661Y333641D01*
X9960Y333711D01*
X10260Y333773D01*
X10562Y333829D01*
X10865Y333877D01*
X11169Y333917D01*
X11474Y333951D01*
X11780Y333977D01*
X12086Y333995D01*
X12393Y334006D01*
X12700Y334010D01*
X91440Y359410D02*
X91440Y365760D01*
X91440Y359410D02*
X91433Y358796D01*
X91410Y358183D01*
X91373Y357570D01*
X91321Y356959D01*
X91255Y356348D01*
X91173Y355740D01*
X91077Y355134D01*
X90967Y354530D01*
X90842Y353929D01*
X90702Y353331D01*
X90548Y352737D01*
X90379Y352147D01*
X90197Y351561D01*
X90000Y350980D01*
X89789Y350403D01*
X89565Y349832D01*
X89327Y349266D01*
X89075Y348706D01*
X88809Y348153D01*
X88531Y347606D01*
X88239Y347066D01*
X87934Y346533D01*
X87616Y346008D01*
X87286Y345490D01*
X86944Y344981D01*
X86589Y344480D01*
X86222Y343988D01*
X85844Y343505D01*
X85454Y343031D01*
X85052Y342567D01*
X84640Y342112D01*
X84216Y341668D01*
X83782Y341234D01*
X83338Y340810D01*
X82883Y340398D01*
X82419Y339996D01*
X81945Y339606D01*
X81462Y339228D01*
X80970Y338861D01*
X80469Y338506D01*
X79960Y338164D01*
X79442Y337834D01*
X78917Y337516D01*
X78384Y337211D01*
X77844Y336919D01*
X77297Y336641D01*
X76744Y336375D01*
X76184Y336123D01*
X75618Y335885D01*
X75047Y335661D01*
X74470Y335450D01*
X73889Y335253D01*
X73303Y335071D01*
X72713Y334902D01*
X72119Y334748D01*
X71521Y334608D01*
X70920Y334483D01*
X70316Y334373D01*
X69710Y334277D01*
X69102Y334195D01*
X68491Y334129D01*
X67880Y334077D01*
X67267Y334040D01*
X66654Y334017D01*
X66040Y334010D01*
X12700Y334010D01*
X153670Y363220D02*
X153670Y365760D01*
X153697Y366037D01*
X153718Y366314D01*
X153732Y366591D01*
X153739Y366869D01*
X153739Y367147D01*
X153733Y367425D01*
X153720Y367702D01*
X153701Y367980D01*
X153674Y368256D01*
X153641Y368532D01*
X153602Y368807D01*
X153556Y369081D01*
X153503Y369354D01*
X153443Y369626D01*
X153377Y369896D01*
X153305Y370164D01*
X153226Y370430D01*
X153140Y370695D01*
X153049Y370957D01*
X152951Y371217D01*
X152846Y371475D01*
X152736Y371730D01*
X152619Y371982D01*
X152497Y372231D01*
X152368Y372478D01*
X152233Y372721D01*
X152093Y372961D01*
X151947Y373197D01*
X151795Y373430D01*
X151637Y373659D01*
X151474Y373884D01*
X151306Y374105D01*
X151133Y374322D01*
X150954Y374535D01*
X150770Y374743D01*
X150581Y374947D01*
X150387Y375146D01*
X150189Y375341D01*
X149986Y375530D01*
X149778Y375715D01*
X149566Y375895D01*
X149350Y376069D01*
X149129Y376238D01*
X148905Y376402D01*
X148676Y376560D01*
X148444Y376713D01*
X148208Y376860D01*
X147969Y377001D01*
X147726Y377137D01*
X147480Y377267D01*
X147232Y377390D01*
X146980Y377508D01*
X146725Y377619D01*
X146468Y377725D01*
X146208Y377824D01*
X145946Y377916D01*
X145682Y378003D01*
X145416Y378083D01*
X145148Y378156D01*
X144878Y378223D01*
X144607Y378284D01*
X144335Y378338D01*
X144061Y378385D01*
X143786Y378426D01*
X143510Y378460D01*
X102870Y378460D02*
X102574Y378441D01*
X102279Y378415D01*
X101984Y378381D01*
X101690Y378340D01*
X101398Y378292D01*
X101107Y378237D01*
X100817Y378174D01*
X100528Y378105D01*
X100242Y378028D01*
X99957Y377944D01*
X99675Y377854D01*
X99395Y377756D01*
X99117Y377652D01*
X98842Y377541D01*
X98570Y377423D01*
X98301Y377299D01*
X98035Y377168D01*
X97772Y377030D01*
X97513Y376887D01*
X97257Y376736D01*
X97006Y376580D01*
X96758Y376417D01*
X96514Y376249D01*
X96274Y376074D01*
X96039Y375894D01*
X95808Y375708D01*
X95581Y375516D01*
X95360Y375319D01*
X95143Y375116D01*
X94932Y374908D01*
X94726Y374695D01*
X94525Y374477D01*
X94329Y374255D01*
X94139Y374027D01*
X93954Y373795D01*
X93776Y373558D01*
X93603Y373317D01*
X93436Y373072D01*
X93275Y372823D01*
X93120Y372570D01*
X92972Y372313D01*
X92830Y372053D01*
X92694Y371789D01*
X92565Y371523D01*
X92442Y371252D01*
X92327Y370980D01*
X92217Y370704D01*
X92115Y370426D01*
X92020Y370145D01*
X91931Y369862D01*
X91849Y369577D01*
X91775Y369290D01*
X91707Y369001D01*
X91647Y368711D01*
X91594Y368419D01*
X91548Y368126D01*
X91509Y367832D01*
X91477Y367537D01*
X91453Y367242D01*
X91436Y366946D01*
X91426Y366649D01*
X91423Y366353D01*
X91428Y366056D01*
X91440Y365760D01*
X156210Y360680D02*
X160020Y360680D01*
X160120Y360682D01*
X160219Y360688D01*
X160319Y360698D01*
X160417Y360711D01*
X160516Y360729D01*
X160613Y360750D01*
X160709Y360775D01*
X160805Y360804D01*
X160899Y360837D01*
X160992Y360873D01*
X161083Y360913D01*
X161173Y360957D01*
X161261Y361004D01*
X161347Y361054D01*
X161431Y361108D01*
X161513Y361165D01*
X161592Y361225D01*
X161670Y361289D01*
X161744Y361355D01*
X161816Y361424D01*
X161885Y361496D01*
X161951Y361570D01*
X162015Y361648D01*
X162075Y361727D01*
X162132Y361809D01*
X162186Y361893D01*
X162236Y361979D01*
X162283Y362067D01*
X162327Y362157D01*
X162367Y362248D01*
X162403Y362341D01*
X162436Y362435D01*
X162465Y362531D01*
X162490Y362627D01*
X162511Y362724D01*
X162529Y362823D01*
X162542Y362921D01*
X162552Y363021D01*
X162558Y363120D01*
X162560Y363220D01*
X162560Y365760D01*
X162533Y366041D01*
X162512Y366322D01*
X162498Y366604D01*
X162491Y366886D01*
X162491Y367169D01*
X162498Y367451D01*
X162511Y367733D01*
X162532Y368014D01*
X162560Y368295D01*
X162594Y368575D01*
X162636Y368854D01*
X162684Y369133D01*
X162739Y369409D01*
X162801Y369685D01*
X162869Y369959D01*
X162944Y370231D01*
X163026Y370501D01*
X163115Y370769D01*
X163210Y371035D01*
X163311Y371298D01*
X163419Y371559D01*
X163534Y371817D01*
X163654Y372072D01*
X163781Y372324D01*
X163914Y372573D01*
X164053Y372819D01*
X164198Y373061D01*
X164349Y373299D01*
X164506Y373534D01*
X164668Y373765D01*
X164836Y373991D01*
X165010Y374214D01*
X165189Y374432D01*
X165373Y374646D01*
X165563Y374855D01*
X165757Y375060D01*
X165957Y375259D01*
X166161Y375454D01*
X166370Y375643D01*
X166584Y375828D01*
X166802Y376007D01*
X167025Y376181D01*
X167251Y376349D01*
X167482Y376511D01*
X167717Y376668D01*
X167955Y376819D01*
X168197Y376964D01*
X168443Y377104D01*
X168692Y377237D01*
X168944Y377364D01*
X169199Y377484D01*
X169457Y377599D01*
X169718Y377707D01*
X169981Y377809D01*
X170247Y377904D01*
X170515Y377992D01*
X170785Y378074D01*
X171057Y378150D01*
X171330Y378218D01*
X171606Y378280D01*
X171883Y378335D01*
X172161Y378384D01*
X172440Y378425D01*
X172720Y378460D01*
X213360Y378460D02*
X213636Y378426D01*
X213911Y378385D01*
X214185Y378338D01*
X214457Y378284D01*
X214728Y378223D01*
X214998Y378156D01*
X215266Y378083D01*
X215532Y378003D01*
X215796Y377916D01*
X216058Y377824D01*
X216318Y377725D01*
X216575Y377619D01*
X216830Y377508D01*
X217082Y377390D01*
X217330Y377267D01*
X217576Y377137D01*
X217819Y377001D01*
X218058Y376860D01*
X218294Y376713D01*
X218526Y376560D01*
X218755Y376402D01*
X218979Y376238D01*
X219200Y376069D01*
X219416Y375895D01*
X219628Y375715D01*
X219836Y375530D01*
X220039Y375341D01*
X220237Y375146D01*
X220431Y374947D01*
X220620Y374743D01*
X220804Y374535D01*
X220983Y374322D01*
X221156Y374105D01*
X221324Y373884D01*
X221487Y373659D01*
X221645Y373430D01*
X221797Y373197D01*
X221943Y372961D01*
X222083Y372721D01*
X222218Y372478D01*
X222347Y372231D01*
X222469Y371982D01*
X222586Y371730D01*
X222696Y371475D01*
X222801Y371217D01*
X222899Y370957D01*
X222990Y370695D01*
X223076Y370430D01*
X223155Y370164D01*
X223227Y369896D01*
X223293Y369626D01*
X223353Y369354D01*
X223406Y369081D01*
X223452Y368807D01*
X223491Y368532D01*
X223524Y368256D01*
X223551Y367980D01*
X223570Y367702D01*
X223583Y367425D01*
X223589Y367147D01*
X223589Y366869D01*
X223582Y366591D01*
X223568Y366314D01*
X223547Y366037D01*
X223520Y365760D01*
X223520Y359410D01*
X223527Y358796D01*
X223550Y358183D01*
X223587Y357570D01*
X223639Y356959D01*
X223705Y356348D01*
X223787Y355740D01*
X223883Y355134D01*
X223993Y354530D01*
X224118Y353929D01*
X224258Y353331D01*
X224412Y352737D01*
X224581Y352147D01*
X224763Y351561D01*
X224960Y350980D01*
X225171Y350403D01*
X225395Y349832D01*
X225633Y349266D01*
X225885Y348706D01*
X226151Y348153D01*
X226429Y347606D01*
X226721Y347066D01*
X227026Y346533D01*
X227344Y346008D01*
X227674Y345490D01*
X228016Y344981D01*
X228371Y344480D01*
X228738Y343988D01*
X229116Y343505D01*
X229506Y343031D01*
X229908Y342567D01*
X230320Y342112D01*
X230744Y341668D01*
X231178Y341234D01*
X231622Y340810D01*
X232077Y340398D01*
X232541Y339996D01*
X233015Y339606D01*
X233498Y339228D01*
X233990Y338861D01*
X234491Y338506D01*
X235000Y338164D01*
X235518Y337834D01*
X236043Y337516D01*
X236576Y337211D01*
X237116Y336919D01*
X237663Y336641D01*
X238216Y336375D01*
X238776Y336123D01*
X239342Y335885D01*
X239913Y335661D01*
X240490Y335450D01*
X241071Y335253D01*
X241657Y335071D01*
X242247Y334902D01*
X242841Y334748D01*
X243439Y334608D01*
X244040Y334483D01*
X244644Y334373D01*
X245250Y334277D01*
X245858Y334195D01*
X246469Y334129D01*
X247080Y334077D01*
X247693Y334040D01*
X248306Y334017D01*
X248920Y334010D01*
X320040Y334010D01*
X156210Y360680D02*
X156110Y360682D01*
X156011Y360688D01*
X155911Y360698D01*
X155813Y360711D01*
X155714Y360729D01*
X155617Y360750D01*
X155521Y360775D01*
X155425Y360804D01*
X155331Y360837D01*
X155238Y360873D01*
X155147Y360913D01*
X155057Y360957D01*
X154969Y361004D01*
X154883Y361054D01*
X154799Y361108D01*
X154717Y361165D01*
X154638Y361225D01*
X154560Y361289D01*
X154486Y361355D01*
X154414Y361424D01*
X154345Y361496D01*
X154279Y361570D01*
X154215Y361648D01*
X154155Y361727D01*
X154098Y361809D01*
X154044Y361893D01*
X153994Y361979D01*
X153947Y362067D01*
X153903Y362157D01*
X153863Y362248D01*
X153827Y362341D01*
X153794Y362435D01*
X153765Y362531D01*
X153740Y362627D01*
X153719Y362724D01*
X153701Y362823D01*
X153688Y362921D01*
X153678Y363021D01*
X153672Y363120D01*
X153670Y363220D01*
X320040Y334010D02*
X320347Y334006D01*
X320654Y333995D01*
X320960Y333977D01*
X321266Y333951D01*
X321571Y333917D01*
X321875Y333877D01*
X322178Y333829D01*
X322480Y333773D01*
X322780Y333711D01*
X323079Y333641D01*
X323376Y333564D01*
X323672Y333480D01*
X323965Y333388D01*
X324255Y333290D01*
X324543Y333185D01*
X324829Y333072D01*
X325112Y332953D01*
X325392Y332827D01*
X325669Y332695D01*
X325942Y332555D01*
X326212Y332409D01*
X326478Y332257D01*
X326741Y332098D01*
X327000Y331933D01*
X327254Y331762D01*
X327505Y331585D01*
X327751Y331401D01*
X327993Y331212D01*
X328229Y331017D01*
X328462Y330816D01*
X328689Y330610D01*
X328911Y330398D01*
X329128Y330181D01*
X329340Y329959D01*
X329546Y329732D01*
X329747Y329499D01*
X329942Y329263D01*
X330131Y329021D01*
X330315Y328775D01*
X330492Y328524D01*
X330663Y328270D01*
X330828Y328011D01*
X330987Y327748D01*
X331139Y327482D01*
X331285Y327212D01*
X331425Y326939D01*
X331557Y326662D01*
X331683Y326382D01*
X331802Y326099D01*
X331915Y325813D01*
X332020Y325525D01*
X332118Y325235D01*
X332210Y324942D01*
X332294Y324646D01*
X332371Y324349D01*
X332441Y324050D01*
X332503Y323750D01*
X332559Y323448D01*
X332607Y323145D01*
X332647Y322841D01*
X332681Y322536D01*
X332707Y322230D01*
X332725Y321924D01*
X332736Y321617D01*
X332740Y321310D01*
X332740Y12700D01*
X332736Y12393D01*
X332725Y12086D01*
X332707Y11780D01*
X332681Y11474D01*
X332647Y11169D01*
X332607Y10865D01*
X332559Y10562D01*
X332503Y10260D01*
X332441Y9960D01*
X332371Y9661D01*
X332294Y9364D01*
X332210Y9068D01*
X332118Y8775D01*
X332020Y8485D01*
X331915Y8197D01*
X331802Y7911D01*
X331683Y7628D01*
X331557Y7348D01*
X331425Y7071D01*
X331285Y6798D01*
X331139Y6528D01*
X330987Y6262D01*
X330828Y5999D01*
X330663Y5740D01*
X330492Y5486D01*
X330315Y5235D01*
X330131Y4989D01*
X329942Y4747D01*
X329747Y4511D01*
X329546Y4278D01*
X329340Y4051D01*
X329128Y3829D01*
X328911Y3612D01*
X328689Y3400D01*
X328462Y3194D01*
X328229Y2993D01*
X327993Y2798D01*
X327751Y2609D01*
X327505Y2425D01*
X327254Y2248D01*
X327000Y2077D01*
X326741Y1912D01*
X326478Y1753D01*
X326212Y1601D01*
X325942Y1455D01*
X325669Y1315D01*
X325392Y1183D01*
X325112Y1057D01*
X324829Y938D01*
X324543Y825D01*
X324255Y720D01*
X323965Y622D01*
X323672Y530D01*
X323376Y446D01*
X323079Y369D01*
X322780Y299D01*
X322480Y237D01*
X322178Y181D01*
X321875Y133D01*
X321571Y93D01*
X321266Y59D01*
X320960Y33D01*
X320654Y15D01*
X320347Y4D01*
X320040Y0D01*
X12700Y0D01*
X12393Y4D01*
X12086Y15D01*
X11780Y33D01*
X11474Y59D01*
X11169Y93D01*
X10865Y133D01*
X10562Y181D01*
X10260Y237D01*
X9960Y299D01*
X9661Y369D01*
X9364Y446D01*
X9068Y530D01*
X8775Y622D01*
X8485Y720D01*
X8197Y825D01*
X7911Y938D01*
X7628Y1057D01*
X7348Y1183D01*
X7071Y1315D01*
X6798Y1455D01*
X6528Y1601D01*
X6262Y1753D01*
X5999Y1912D01*
X5740Y2077D01*
X5486Y2248D01*
X5235Y2425D01*
X4989Y2609D01*
X4747Y2798D01*
X4511Y2993D01*
X4278Y3194D01*
X4051Y3400D01*
X3829Y3612D01*
X3612Y3829D01*
X3400Y4051D01*
X3194Y4278D01*
X2993Y4511D01*
X2798Y4747D01*
X2609Y4989D01*
X2425Y5235D01*
X2248Y5486D01*
X2077Y5740D01*
X1912Y5999D01*
X1753Y6262D01*
X1601Y6528D01*
X1455Y6798D01*
X1315Y7071D01*
X1183Y7348D01*
X1057Y7628D01*
X938Y7911D01*
X825Y8197D01*
X720Y8485D01*
X622Y8775D01*
X530Y9068D01*
X446Y9364D01*
X369Y9661D01*
X299Y9960D01*
X237Y10260D01*
X181Y10562D01*
X133Y10865D01*
X93Y11169D01*
X59Y11474D01*
X33Y11780D01*
X15Y12086D01*
X4Y12393D01*
X0Y12700D01*
D11*
X298055Y312420D02*
X298060Y312788D01*
X298073Y313156D01*
X298096Y313523D01*
X298127Y313890D01*
X298168Y314256D01*
X298217Y314621D01*
X298276Y314984D01*
X298343Y315346D01*
X298419Y315707D01*
X298505Y316065D01*
X298598Y316421D01*
X298701Y316774D01*
X298812Y317125D01*
X298932Y317473D01*
X299060Y317818D01*
X299197Y318160D01*
X299342Y318499D01*
X299495Y318833D01*
X299657Y319164D01*
X299826Y319491D01*
X300004Y319813D01*
X300189Y320132D01*
X300382Y320445D01*
X300583Y320754D01*
X300791Y321057D01*
X301007Y321355D01*
X301230Y321648D01*
X301460Y321936D01*
X301697Y322218D01*
X301941Y322493D01*
X302191Y322763D01*
X302448Y323027D01*
X302712Y323284D01*
X302982Y323534D01*
X303257Y323778D01*
X303539Y324015D01*
X303827Y324245D01*
X304120Y324468D01*
X304418Y324684D01*
X304721Y324892D01*
X305030Y325093D01*
X305343Y325286D01*
X305662Y325471D01*
X305984Y325649D01*
X306311Y325818D01*
X306642Y325980D01*
X306976Y326133D01*
X307315Y326278D01*
X307657Y326415D01*
X308002Y326543D01*
X308350Y326663D01*
X308701Y326774D01*
X309054Y326877D01*
X309410Y326970D01*
X309768Y327056D01*
X310129Y327132D01*
X310491Y327199D01*
X310854Y327258D01*
X311219Y327307D01*
X311585Y327348D01*
X311952Y327379D01*
X312319Y327402D01*
X312687Y327415D01*
X313055Y327420D01*
X313423Y327415D01*
X313791Y327402D01*
X314158Y327379D01*
X314525Y327348D01*
X314891Y327307D01*
X315256Y327258D01*
X315619Y327199D01*
X315981Y327132D01*
X316342Y327056D01*
X316700Y326970D01*
X317056Y326877D01*
X317409Y326774D01*
X317760Y326663D01*
X318108Y326543D01*
X318453Y326415D01*
X318795Y326278D01*
X319134Y326133D01*
X319468Y325980D01*
X319799Y325818D01*
X320126Y325649D01*
X320448Y325471D01*
X320767Y325286D01*
X321080Y325093D01*
X321389Y324892D01*
X321692Y324684D01*
X321990Y324468D01*
X322283Y324245D01*
X322571Y324015D01*
X322853Y323778D01*
X323128Y323534D01*
X323398Y323284D01*
X323662Y323027D01*
X323919Y322763D01*
X324169Y322493D01*
X324413Y322218D01*
X324650Y321936D01*
X324880Y321648D01*
X325103Y321355D01*
X325319Y321057D01*
X325527Y320754D01*
X325728Y320445D01*
X325921Y320132D01*
X326106Y319813D01*
X326284Y319491D01*
X326453Y319164D01*
X326615Y318833D01*
X326768Y318499D01*
X326913Y318160D01*
X327050Y317818D01*
X327178Y317473D01*
X327298Y317125D01*
X327409Y316774D01*
X327512Y316421D01*
X327605Y316065D01*
X327691Y315707D01*
X327767Y315346D01*
X327834Y314984D01*
X327893Y314621D01*
X327942Y314256D01*
X327983Y313890D01*
X328014Y313523D01*
X328037Y313156D01*
X328050Y312788D01*
X328055Y312420D01*
X328050Y312052D01*
X328037Y311684D01*
X328014Y311317D01*
X327983Y310950D01*
X327942Y310584D01*
X327893Y310219D01*
X327834Y309856D01*
X327767Y309494D01*
X327691Y309133D01*
X327605Y308775D01*
X327512Y308419D01*
X327409Y308066D01*
X327298Y307715D01*
X327178Y307367D01*
X327050Y307022D01*
X326913Y306680D01*
X326768Y306341D01*
X326615Y306007D01*
X326453Y305676D01*
X326284Y305349D01*
X326106Y305027D01*
X325921Y304708D01*
X325728Y304395D01*
X325527Y304086D01*
X325319Y303783D01*
X325103Y303485D01*
X324880Y303192D01*
X324650Y302904D01*
X324413Y302622D01*
X324169Y302347D01*
X323919Y302077D01*
X323662Y301813D01*
X323398Y301556D01*
X323128Y301306D01*
X322853Y301062D01*
X322571Y300825D01*
X322283Y300595D01*
X321990Y300372D01*
X321692Y300156D01*
X321389Y299948D01*
X321080Y299747D01*
X320767Y299554D01*
X320448Y299369D01*
X320126Y299191D01*
X319799Y299022D01*
X319468Y298860D01*
X319134Y298707D01*
X318795Y298562D01*
X318453Y298425D01*
X318108Y298297D01*
X317760Y298177D01*
X317409Y298066D01*
X317056Y297963D01*
X316700Y297870D01*
X316342Y297784D01*
X315981Y297708D01*
X315619Y297641D01*
X315256Y297582D01*
X314891Y297533D01*
X314525Y297492D01*
X314158Y297461D01*
X313791Y297438D01*
X313423Y297425D01*
X313055Y297420D01*
X312687Y297425D01*
X312319Y297438D01*
X311952Y297461D01*
X311585Y297492D01*
X311219Y297533D01*
X310854Y297582D01*
X310491Y297641D01*
X310129Y297708D01*
X309768Y297784D01*
X309410Y297870D01*
X309054Y297963D01*
X308701Y298066D01*
X308350Y298177D01*
X308002Y298297D01*
X307657Y298425D01*
X307315Y298562D01*
X306976Y298707D01*
X306642Y298860D01*
X306311Y299022D01*
X305984Y299191D01*
X305662Y299369D01*
X305343Y299554D01*
X305030Y299747D01*
X304721Y299948D01*
X304418Y300156D01*
X304120Y300372D01*
X303827Y300595D01*
X303539Y300825D01*
X303257Y301062D01*
X302982Y301306D01*
X302712Y301556D01*
X302448Y301813D01*
X302191Y302077D01*
X301941Y302347D01*
X301697Y302622D01*
X301460Y302904D01*
X301230Y303192D01*
X301007Y303485D01*
X300791Y303783D01*
X300583Y304086D01*
X300382Y304395D01*
X300189Y304708D01*
X300004Y305027D01*
X299826Y305349D01*
X299657Y305676D01*
X299495Y306007D01*
X299342Y306341D01*
X299197Y306680D01*
X299060Y307022D01*
X298932Y307367D01*
X298812Y307715D01*
X298701Y308066D01*
X298598Y308419D01*
X298505Y308775D01*
X298419Y309133D01*
X298343Y309494D01*
X298276Y309856D01*
X298217Y310219D01*
X298168Y310584D01*
X298127Y310950D01*
X298096Y311317D01*
X298073Y311684D01*
X298060Y312052D01*
X298055Y312420D01*
X298055Y20320D02*
X298060Y20688D01*
X298073Y21056D01*
X298096Y21423D01*
X298127Y21790D01*
X298168Y22156D01*
X298217Y22521D01*
X298276Y22884D01*
X298343Y23246D01*
X298419Y23607D01*
X298505Y23965D01*
X298598Y24321D01*
X298701Y24674D01*
X298812Y25025D01*
X298932Y25373D01*
X299060Y25718D01*
X299197Y26060D01*
X299342Y26399D01*
X299495Y26733D01*
X299657Y27064D01*
X299826Y27391D01*
X300004Y27713D01*
X300189Y28032D01*
X300382Y28345D01*
X300583Y28654D01*
X300791Y28957D01*
X301007Y29255D01*
X301230Y29548D01*
X301460Y29836D01*
X301697Y30118D01*
X301941Y30393D01*
X302191Y30663D01*
X302448Y30927D01*
X302712Y31184D01*
X302982Y31434D01*
X303257Y31678D01*
X303539Y31915D01*
X303827Y32145D01*
X304120Y32368D01*
X304418Y32584D01*
X304721Y32792D01*
X305030Y32993D01*
X305343Y33186D01*
X305662Y33371D01*
X305984Y33549D01*
X306311Y33718D01*
X306642Y33880D01*
X306976Y34033D01*
X307315Y34178D01*
X307657Y34315D01*
X308002Y34443D01*
X308350Y34563D01*
X308701Y34674D01*
X309054Y34777D01*
X309410Y34870D01*
X309768Y34956D01*
X310129Y35032D01*
X310491Y35099D01*
X310854Y35158D01*
X311219Y35207D01*
X311585Y35248D01*
X311952Y35279D01*
X312319Y35302D01*
X312687Y35315D01*
X313055Y35320D01*
X313423Y35315D01*
X313791Y35302D01*
X314158Y35279D01*
X314525Y35248D01*
X314891Y35207D01*
X315256Y35158D01*
X315619Y35099D01*
X315981Y35032D01*
X316342Y34956D01*
X316700Y34870D01*
X317056Y34777D01*
X317409Y34674D01*
X317760Y34563D01*
X318108Y34443D01*
X318453Y34315D01*
X318795Y34178D01*
X319134Y34033D01*
X319468Y33880D01*
X319799Y33718D01*
X320126Y33549D01*
X320448Y33371D01*
X320767Y33186D01*
X321080Y32993D01*
X321389Y32792D01*
X321692Y32584D01*
X321990Y32368D01*
X322283Y32145D01*
X322571Y31915D01*
X322853Y31678D01*
X323128Y31434D01*
X323398Y31184D01*
X323662Y30927D01*
X323919Y30663D01*
X324169Y30393D01*
X324413Y30118D01*
X324650Y29836D01*
X324880Y29548D01*
X325103Y29255D01*
X325319Y28957D01*
X325527Y28654D01*
X325728Y28345D01*
X325921Y28032D01*
X326106Y27713D01*
X326284Y27391D01*
X326453Y27064D01*
X326615Y26733D01*
X326768Y26399D01*
X326913Y26060D01*
X327050Y25718D01*
X327178Y25373D01*
X327298Y25025D01*
X327409Y24674D01*
X327512Y24321D01*
X327605Y23965D01*
X327691Y23607D01*
X327767Y23246D01*
X327834Y22884D01*
X327893Y22521D01*
X327942Y22156D01*
X327983Y21790D01*
X328014Y21423D01*
X328037Y21056D01*
X328050Y20688D01*
X328055Y20320D01*
X328050Y19952D01*
X328037Y19584D01*
X328014Y19217D01*
X327983Y18850D01*
X327942Y18484D01*
X327893Y18119D01*
X327834Y17756D01*
X327767Y17394D01*
X327691Y17033D01*
X327605Y16675D01*
X327512Y16319D01*
X327409Y15966D01*
X327298Y15615D01*
X327178Y15267D01*
X327050Y14922D01*
X326913Y14580D01*
X326768Y14241D01*
X326615Y13907D01*
X326453Y13576D01*
X326284Y13249D01*
X326106Y12927D01*
X325921Y12608D01*
X325728Y12295D01*
X325527Y11986D01*
X325319Y11683D01*
X325103Y11385D01*
X324880Y11092D01*
X324650Y10804D01*
X324413Y10522D01*
X324169Y10247D01*
X323919Y9977D01*
X323662Y9713D01*
X323398Y9456D01*
X323128Y9206D01*
X322853Y8962D01*
X322571Y8725D01*
X322283Y8495D01*
X321990Y8272D01*
X321692Y8056D01*
X321389Y7848D01*
X321080Y7647D01*
X320767Y7454D01*
X320448Y7269D01*
X320126Y7091D01*
X319799Y6922D01*
X319468Y6760D01*
X319134Y6607D01*
X318795Y6462D01*
X318453Y6325D01*
X318108Y6197D01*
X317760Y6077D01*
X317409Y5966D01*
X317056Y5863D01*
X316700Y5770D01*
X316342Y5684D01*
X315981Y5608D01*
X315619Y5541D01*
X315256Y5482D01*
X314891Y5433D01*
X314525Y5392D01*
X314158Y5361D01*
X313791Y5338D01*
X313423Y5325D01*
X313055Y5320D01*
X312687Y5325D01*
X312319Y5338D01*
X311952Y5361D01*
X311585Y5392D01*
X311219Y5433D01*
X310854Y5482D01*
X310491Y5541D01*
X310129Y5608D01*
X309768Y5684D01*
X309410Y5770D01*
X309054Y5863D01*
X308701Y5966D01*
X308350Y6077D01*
X308002Y6197D01*
X307657Y6325D01*
X307315Y6462D01*
X306976Y6607D01*
X306642Y6760D01*
X306311Y6922D01*
X305984Y7091D01*
X305662Y7269D01*
X305343Y7454D01*
X305030Y7647D01*
X304721Y7848D01*
X304418Y8056D01*
X304120Y8272D01*
X303827Y8495D01*
X303539Y8725D01*
X303257Y8962D01*
X302982Y9206D01*
X302712Y9456D01*
X302448Y9713D01*
X302191Y9977D01*
X301941Y10247D01*
X301697Y10522D01*
X301460Y10804D01*
X301230Y11092D01*
X301007Y11385D01*
X300791Y11683D01*
X300583Y11986D01*
X300382Y12295D01*
X300189Y12608D01*
X300004Y12927D01*
X299826Y13249D01*
X299657Y13576D01*
X299495Y13907D01*
X299342Y14241D01*
X299197Y14580D01*
X299060Y14922D01*
X298932Y15267D01*
X298812Y15615D01*
X298701Y15966D01*
X298598Y16319D01*
X298505Y16675D01*
X298419Y17033D01*
X298343Y17394D01*
X298276Y17756D01*
X298217Y18119D01*
X298168Y18484D01*
X298127Y18850D01*
X298096Y19217D01*
X298073Y19584D01*
X298060Y19952D01*
X298055Y20320D01*
X5955Y20320D02*
X5960Y20688D01*
X5973Y21056D01*
X5996Y21423D01*
X6027Y21790D01*
X6068Y22156D01*
X6117Y22521D01*
X6176Y22884D01*
X6243Y23246D01*
X6319Y23607D01*
X6405Y23965D01*
X6498Y24321D01*
X6601Y24674D01*
X6712Y25025D01*
X6832Y25373D01*
X6960Y25718D01*
X7097Y26060D01*
X7242Y26399D01*
X7395Y26733D01*
X7557Y27064D01*
X7726Y27391D01*
X7904Y27713D01*
X8089Y28032D01*
X8282Y28345D01*
X8483Y28654D01*
X8691Y28957D01*
X8907Y29255D01*
X9130Y29548D01*
X9360Y29836D01*
X9597Y30118D01*
X9841Y30393D01*
X10091Y30663D01*
X10348Y30927D01*
X10612Y31184D01*
X10882Y31434D01*
X11157Y31678D01*
X11439Y31915D01*
X11727Y32145D01*
X12020Y32368D01*
X12318Y32584D01*
X12621Y32792D01*
X12930Y32993D01*
X13243Y33186D01*
X13562Y33371D01*
X13884Y33549D01*
X14211Y33718D01*
X14542Y33880D01*
X14876Y34033D01*
X15215Y34178D01*
X15557Y34315D01*
X15902Y34443D01*
X16250Y34563D01*
X16601Y34674D01*
X16954Y34777D01*
X17310Y34870D01*
X17668Y34956D01*
X18029Y35032D01*
X18391Y35099D01*
X18754Y35158D01*
X19119Y35207D01*
X19485Y35248D01*
X19852Y35279D01*
X20219Y35302D01*
X20587Y35315D01*
X20955Y35320D01*
X21323Y35315D01*
X21691Y35302D01*
X22058Y35279D01*
X22425Y35248D01*
X22791Y35207D01*
X23156Y35158D01*
X23519Y35099D01*
X23881Y35032D01*
X24242Y34956D01*
X24600Y34870D01*
X24956Y34777D01*
X25309Y34674D01*
X25660Y34563D01*
X26008Y34443D01*
X26353Y34315D01*
X26695Y34178D01*
X27034Y34033D01*
X27368Y33880D01*
X27699Y33718D01*
X28026Y33549D01*
X28348Y33371D01*
X28667Y33186D01*
X28980Y32993D01*
X29289Y32792D01*
X29592Y32584D01*
X29890Y32368D01*
X30183Y32145D01*
X30471Y31915D01*
X30753Y31678D01*
X31028Y31434D01*
X31298Y31184D01*
X31562Y30927D01*
X31819Y30663D01*
X32069Y30393D01*
X32313Y30118D01*
X32550Y29836D01*
X32780Y29548D01*
X33003Y29255D01*
X33219Y28957D01*
X33427Y28654D01*
X33628Y28345D01*
X33821Y28032D01*
X34006Y27713D01*
X34184Y27391D01*
X34353Y27064D01*
X34515Y26733D01*
X34668Y26399D01*
X34813Y26060D01*
X34950Y25718D01*
X35078Y25373D01*
X35198Y25025D01*
X35309Y24674D01*
X35412Y24321D01*
X35505Y23965D01*
X35591Y23607D01*
X35667Y23246D01*
X35734Y22884D01*
X35793Y22521D01*
X35842Y22156D01*
X35883Y21790D01*
X35914Y21423D01*
X35937Y21056D01*
X35950Y20688D01*
X35955Y20320D01*
X35950Y19952D01*
X35937Y19584D01*
X35914Y19217D01*
X35883Y18850D01*
X35842Y18484D01*
X35793Y18119D01*
X35734Y17756D01*
X35667Y17394D01*
X35591Y17033D01*
X35505Y16675D01*
X35412Y16319D01*
X35309Y15966D01*
X35198Y15615D01*
X35078Y15267D01*
X34950Y14922D01*
X34813Y14580D01*
X34668Y14241D01*
X34515Y13907D01*
X34353Y13576D01*
X34184Y13249D01*
X34006Y12927D01*
X33821Y12608D01*
X33628Y12295D01*
X33427Y11986D01*
X33219Y11683D01*
X33003Y11385D01*
X32780Y11092D01*
X32550Y10804D01*
X32313Y10522D01*
X32069Y10247D01*
X31819Y9977D01*
X31562Y9713D01*
X31298Y9456D01*
X31028Y9206D01*
X30753Y8962D01*
X30471Y8725D01*
X30183Y8495D01*
X29890Y8272D01*
X29592Y8056D01*
X29289Y7848D01*
X28980Y7647D01*
X28667Y7454D01*
X28348Y7269D01*
X28026Y7091D01*
X27699Y6922D01*
X27368Y6760D01*
X27034Y6607D01*
X26695Y6462D01*
X26353Y6325D01*
X26008Y6197D01*
X25660Y6077D01*
X25309Y5966D01*
X24956Y5863D01*
X24600Y5770D01*
X24242Y5684D01*
X23881Y5608D01*
X23519Y5541D01*
X23156Y5482D01*
X22791Y5433D01*
X22425Y5392D01*
X22058Y5361D01*
X21691Y5338D01*
X21323Y5325D01*
X20955Y5320D01*
X20587Y5325D01*
X20219Y5338D01*
X19852Y5361D01*
X19485Y5392D01*
X19119Y5433D01*
X18754Y5482D01*
X18391Y5541D01*
X18029Y5608D01*
X17668Y5684D01*
X17310Y5770D01*
X16954Y5863D01*
X16601Y5966D01*
X16250Y6077D01*
X15902Y6197D01*
X15557Y6325D01*
X15215Y6462D01*
X14876Y6607D01*
X14542Y6760D01*
X14211Y6922D01*
X13884Y7091D01*
X13562Y7269D01*
X13243Y7454D01*
X12930Y7647D01*
X12621Y7848D01*
X12318Y8056D01*
X12020Y8272D01*
X11727Y8495D01*
X11439Y8725D01*
X11157Y8962D01*
X10882Y9206D01*
X10612Y9456D01*
X10348Y9713D01*
X10091Y9977D01*
X9841Y10247D01*
X9597Y10522D01*
X9360Y10804D01*
X9130Y11092D01*
X8907Y11385D01*
X8691Y11683D01*
X8483Y11986D01*
X8282Y12295D01*
X8089Y12608D01*
X7904Y12927D01*
X7726Y13249D01*
X7557Y13576D01*
X7395Y13907D01*
X7242Y14241D01*
X7097Y14580D01*
X6960Y14922D01*
X6832Y15267D01*
X6712Y15615D01*
X6601Y15966D01*
X6498Y16319D01*
X6405Y16675D01*
X6319Y17033D01*
X6243Y17394D01*
X6176Y17756D01*
X6117Y18119D01*
X6068Y18484D01*
X6027Y18850D01*
X5996Y19217D01*
X5973Y19584D01*
X5960Y19952D01*
X5955Y20320D01*
X5955Y312420D02*
X5960Y312788D01*
X5973Y313156D01*
X5996Y313523D01*
X6027Y313890D01*
X6068Y314256D01*
X6117Y314621D01*
X6176Y314984D01*
X6243Y315346D01*
X6319Y315707D01*
X6405Y316065D01*
X6498Y316421D01*
X6601Y316774D01*
X6712Y317125D01*
X6832Y317473D01*
X6960Y317818D01*
X7097Y318160D01*
X7242Y318499D01*
X7395Y318833D01*
X7557Y319164D01*
X7726Y319491D01*
X7904Y319813D01*
X8089Y320132D01*
X8282Y320445D01*
X8483Y320754D01*
X8691Y321057D01*
X8907Y321355D01*
X9130Y321648D01*
X9360Y321936D01*
X9597Y322218D01*
X9841Y322493D01*
X10091Y322763D01*
X10348Y323027D01*
X10612Y323284D01*
X10882Y323534D01*
X11157Y323778D01*
X11439Y324015D01*
X11727Y324245D01*
X12020Y324468D01*
X12318Y324684D01*
X12621Y324892D01*
X12930Y325093D01*
X13243Y325286D01*
X13562Y325471D01*
X13884Y325649D01*
X14211Y325818D01*
X14542Y325980D01*
X14876Y326133D01*
X15215Y326278D01*
X15557Y326415D01*
X15902Y326543D01*
X16250Y326663D01*
X16601Y326774D01*
X16954Y326877D01*
X17310Y326970D01*
X17668Y327056D01*
X18029Y327132D01*
X18391Y327199D01*
X18754Y327258D01*
X19119Y327307D01*
X19485Y327348D01*
X19852Y327379D01*
X20219Y327402D01*
X20587Y327415D01*
X20955Y327420D01*
X21323Y327415D01*
X21691Y327402D01*
X22058Y327379D01*
X22425Y327348D01*
X22791Y327307D01*
X23156Y327258D01*
X23519Y327199D01*
X23881Y327132D01*
X24242Y327056D01*
X24600Y326970D01*
X24956Y326877D01*
X25309Y326774D01*
X25660Y326663D01*
X26008Y326543D01*
X26353Y326415D01*
X26695Y326278D01*
X27034Y326133D01*
X27368Y325980D01*
X27699Y325818D01*
X28026Y325649D01*
X28348Y325471D01*
X28667Y325286D01*
X28980Y325093D01*
X29289Y324892D01*
X29592Y324684D01*
X29890Y324468D01*
X30183Y324245D01*
X30471Y324015D01*
X30753Y323778D01*
X31028Y323534D01*
X31298Y323284D01*
X31562Y323027D01*
X31819Y322763D01*
X32069Y322493D01*
X32313Y322218D01*
X32550Y321936D01*
X32780Y321648D01*
X33003Y321355D01*
X33219Y321057D01*
X33427Y320754D01*
X33628Y320445D01*
X33821Y320132D01*
X34006Y319813D01*
X34184Y319491D01*
X34353Y319164D01*
X34515Y318833D01*
X34668Y318499D01*
X34813Y318160D01*
X34950Y317818D01*
X35078Y317473D01*
X35198Y317125D01*
X35309Y316774D01*
X35412Y316421D01*
X35505Y316065D01*
X35591Y315707D01*
X35667Y315346D01*
X35734Y314984D01*
X35793Y314621D01*
X35842Y314256D01*
X35883Y313890D01*
X35914Y313523D01*
X35937Y313156D01*
X35950Y312788D01*
X35955Y312420D01*
X35950Y312052D01*
X35937Y311684D01*
X35914Y311317D01*
X35883Y310950D01*
X35842Y310584D01*
X35793Y310219D01*
X35734Y309856D01*
X35667Y309494D01*
X35591Y309133D01*
X35505Y308775D01*
X35412Y308419D01*
X35309Y308066D01*
X35198Y307715D01*
X35078Y307367D01*
X34950Y307022D01*
X34813Y306680D01*
X34668Y306341D01*
X34515Y306007D01*
X34353Y305676D01*
X34184Y305349D01*
X34006Y305027D01*
X33821Y304708D01*
X33628Y304395D01*
X33427Y304086D01*
X33219Y303783D01*
X33003Y303485D01*
X32780Y303192D01*
X32550Y302904D01*
X32313Y302622D01*
X32069Y302347D01*
X31819Y302077D01*
X31562Y301813D01*
X31298Y301556D01*
X31028Y301306D01*
X30753Y301062D01*
X30471Y300825D01*
X30183Y300595D01*
X29890Y300372D01*
X29592Y300156D01*
X29289Y299948D01*
X28980Y299747D01*
X28667Y299554D01*
X28348Y299369D01*
X28026Y299191D01*
X27699Y299022D01*
X27368Y298860D01*
X27034Y298707D01*
X26695Y298562D01*
X26353Y298425D01*
X26008Y298297D01*
X25660Y298177D01*
X25309Y298066D01*
X24956Y297963D01*
X24600Y297870D01*
X24242Y297784D01*
X23881Y297708D01*
X23519Y297641D01*
X23156Y297582D01*
X22791Y297533D01*
X22425Y297492D01*
X22058Y297461D01*
X21691Y297438D01*
X21323Y297425D01*
X20955Y297420D01*
X20587Y297425D01*
X20219Y297438D01*
X19852Y297461D01*
X19485Y297492D01*
X19119Y297533D01*
X18754Y297582D01*
X18391Y297641D01*
X18029Y297708D01*
X17668Y297784D01*
X17310Y297870D01*
X16954Y297963D01*
X16601Y298066D01*
X16250Y298177D01*
X15902Y298297D01*
X15557Y298425D01*
X15215Y298562D01*
X14876Y298707D01*
X14542Y298860D01*
X14211Y299022D01*
X13884Y299191D01*
X13562Y299369D01*
X13243Y299554D01*
X12930Y299747D01*
X12621Y299948D01*
X12318Y300156D01*
X12020Y300372D01*
X11727Y300595D01*
X11439Y300825D01*
X11157Y301062D01*
X10882Y301306D01*
X10612Y301556D01*
X10348Y301813D01*
X10091Y302077D01*
X9841Y302347D01*
X9597Y302622D01*
X9360Y302904D01*
X9130Y303192D01*
X8907Y303485D01*
X8691Y303783D01*
X8483Y304086D01*
X8282Y304395D01*
X8089Y304708D01*
X7904Y305027D01*
X7726Y305349D01*
X7557Y305676D01*
X7395Y306007D01*
X7242Y306341D01*
X7097Y306680D01*
X6960Y307022D01*
X6832Y307367D01*
X6712Y307715D01*
X6601Y308066D01*
X6498Y308419D01*
X6405Y308775D01*
X6319Y309133D01*
X6243Y309494D01*
X6176Y309856D01*
X6117Y310219D01*
X6068Y310584D01*
X6027Y310950D01*
X5996Y311317D01*
X5973Y311684D01*
X5960Y312052D01*
X5955Y312420D01*
D10*
X102870Y378460D02*
X103170Y377969D01*
X103481Y377485D01*
X103805Y377009D01*
X104140Y376541D01*
X104486Y376081D01*
X104843Y375630D01*
X105211Y375188D01*
X105590Y374754D01*
X105979Y374331D01*
X106379Y373916D01*
X106788Y373512D01*
X107207Y373117D01*
X107636Y372733D01*
X108074Y372360D01*
X108520Y371997D01*
X108976Y371646D01*
X109440Y371305D01*
X109912Y370976D01*
X110392Y370658D01*
X110880Y370353D01*
X111374Y370059D01*
X111876Y369777D01*
X112385Y369508D01*
X112900Y369251D01*
X113421Y369007D01*
X113948Y368775D01*
X114480Y368557D01*
X115018Y368351D01*
X115560Y368159D01*
X116107Y367979D01*
X116658Y367814D01*
X117213Y367661D01*
X117771Y367523D01*
X118333Y367397D01*
X118898Y367286D01*
X119465Y367188D01*
X120034Y367105D01*
X120605Y367035D01*
X121178Y366979D01*
X121752Y366937D01*
X122327Y366909D01*
X122902Y366895D01*
X123478Y366895D01*
X124053Y366909D01*
X124628Y366937D01*
X125202Y366979D01*
X125775Y367035D01*
X126346Y367105D01*
X126915Y367188D01*
X127482Y367286D01*
X128047Y367397D01*
X128609Y367523D01*
X129167Y367661D01*
X129722Y367814D01*
X130273Y367979D01*
X130820Y368159D01*
X131362Y368351D01*
X131900Y368557D01*
X132432Y368775D01*
X132959Y369007D01*
X133480Y369251D01*
X133995Y369508D01*
X134504Y369777D01*
X135006Y370059D01*
X135500Y370353D01*
X135988Y370658D01*
X136468Y370976D01*
X136940Y371305D01*
X137404Y371646D01*
X137860Y371997D01*
X138306Y372360D01*
X138744Y372733D01*
X139173Y373117D01*
X139592Y373512D01*
X140001Y373916D01*
X140401Y374331D01*
X140790Y374754D01*
X141169Y375188D01*
X141537Y375630D01*
X141894Y376081D01*
X142240Y376541D01*
X142575Y377009D01*
X142899Y377485D01*
X143210Y377969D01*
X143510Y378460D01*
X172720Y378460D02*
X173020Y377969D01*
X173331Y377485D01*
X173655Y377009D01*
X173990Y376541D01*
X174336Y376081D01*
X174693Y375630D01*
X175061Y375188D01*
X175440Y374754D01*
X175829Y374331D01*
X176229Y373916D01*
X176638Y373512D01*
X177057Y373117D01*
X177486Y372733D01*
X177924Y372360D01*
X178370Y371997D01*
X178826Y371646D01*
X179290Y371305D01*
X179762Y370976D01*
X180242Y370658D01*
X180730Y370353D01*
X181224Y370059D01*
X181726Y369777D01*
X182235Y369508D01*
X182750Y369251D01*
X183271Y369007D01*
X183798Y368775D01*
X184330Y368557D01*
X184868Y368351D01*
X185410Y368159D01*
X185957Y367979D01*
X186508Y367814D01*
X187063Y367661D01*
X187621Y367523D01*
X188183Y367397D01*
X188748Y367286D01*
X189315Y367188D01*
X189884Y367105D01*
X190455Y367035D01*
X191028Y366979D01*
X191602Y366937D01*
X192177Y366909D01*
X192752Y366895D01*
X193328Y366895D01*
X193903Y366909D01*
X194478Y366937D01*
X195052Y366979D01*
X195625Y367035D01*
X196196Y367105D01*
X196765Y367188D01*
X197332Y367286D01*
X197897Y367397D01*
X198459Y367523D01*
X199017Y367661D01*
X199572Y367814D01*
X200123Y367979D01*
X200670Y368159D01*
X201212Y368351D01*
X201750Y368557D01*
X202282Y368775D01*
X202809Y369007D01*
X203330Y369251D01*
X203845Y369508D01*
X204354Y369777D01*
X204856Y370059D01*
X205350Y370353D01*
X205838Y370658D01*
X206318Y370976D01*
X206790Y371305D01*
X207254Y371646D01*
X207710Y371997D01*
X208156Y372360D01*
X208594Y372733D01*
X209023Y373117D01*
X209442Y373512D01*
X209851Y373916D01*
X210251Y374331D01*
X210640Y374754D01*
X211019Y375188D01*
X211387Y375630D01*
X211744Y376081D01*
X212090Y376541D01*
X212425Y377009D01*
X212749Y377485D01*
X213060Y377969D01*
X213360Y378460D01*
D11*
X134200Y34810D02*
X134202Y34968D01*
X134208Y35125D01*
X134218Y35283D01*
X134232Y35440D01*
X134250Y35596D01*
X134271Y35753D01*
X134297Y35908D01*
X134327Y36063D01*
X134360Y36217D01*
X134398Y36370D01*
X134439Y36523D01*
X134484Y36674D01*
X134533Y36824D01*
X134586Y36972D01*
X134642Y37120D01*
X134703Y37265D01*
X134766Y37410D01*
X134834Y37552D01*
X134905Y37693D01*
X134979Y37832D01*
X135057Y37969D01*
X135139Y38104D01*
X135223Y38237D01*
X135312Y38368D01*
X135403Y38496D01*
X135498Y38623D01*
X135595Y38746D01*
X135696Y38868D01*
X135800Y38986D01*
X135907Y39102D01*
X136017Y39215D01*
X136129Y39326D01*
X136245Y39433D01*
X136363Y39538D01*
X136483Y39640D01*
X136606Y39738D01*
X136732Y39834D01*
X136860Y39926D01*
X136990Y40015D01*
X137122Y40101D01*
X137257Y40183D01*
X137394Y40262D01*
X137532Y40337D01*
X137672Y40409D01*
X137815Y40477D01*
X137958Y40542D01*
X138104Y40603D01*
X138251Y40660D01*
X138399Y40714D01*
X138549Y40764D01*
X138699Y40810D01*
X138851Y40852D01*
X139004Y40891D01*
X139158Y40925D01*
X139313Y40956D01*
X139468Y40982D01*
X139624Y41005D01*
X139781Y41024D01*
X139938Y41039D01*
X140095Y41050D01*
X140253Y41057D01*
X140411Y41060D01*
X140568Y41059D01*
X140726Y41054D01*
X140883Y41045D01*
X141041Y41032D01*
X141197Y41015D01*
X141354Y40994D01*
X141509Y40970D01*
X141664Y40941D01*
X141819Y40908D01*
X141972Y40872D01*
X142125Y40831D01*
X142276Y40787D01*
X142426Y40739D01*
X142575Y40688D01*
X142723Y40632D01*
X142869Y40573D01*
X143014Y40510D01*
X143157Y40443D01*
X143298Y40373D01*
X143437Y40300D01*
X143575Y40223D01*
X143711Y40142D01*
X143844Y40058D01*
X143975Y39971D01*
X144104Y39880D01*
X144231Y39786D01*
X144356Y39689D01*
X144477Y39589D01*
X144597Y39486D01*
X144713Y39380D01*
X144827Y39271D01*
X144939Y39159D01*
X145047Y39045D01*
X145152Y38927D01*
X145255Y38807D01*
X145354Y38685D01*
X145450Y38560D01*
X145543Y38432D01*
X145633Y38303D01*
X145719Y38171D01*
X145803Y38037D01*
X145882Y37901D01*
X145959Y37763D01*
X146031Y37623D01*
X146100Y37481D01*
X146166Y37338D01*
X146228Y37193D01*
X146286Y37046D01*
X146341Y36898D01*
X146392Y36749D01*
X146439Y36598D01*
X146482Y36447D01*
X146521Y36294D01*
X146557Y36140D01*
X146588Y35986D01*
X146616Y35831D01*
X146640Y35675D01*
X146660Y35518D01*
X146676Y35361D01*
X146688Y35204D01*
X146696Y35047D01*
X146700Y34889D01*
X146700Y34731D01*
X146696Y34573D01*
X146688Y34416D01*
X146676Y34259D01*
X146660Y34102D01*
X146640Y33945D01*
X146616Y33789D01*
X146588Y33634D01*
X146557Y33480D01*
X146521Y33326D01*
X146482Y33173D01*
X146439Y33022D01*
X146392Y32871D01*
X146341Y32722D01*
X146286Y32574D01*
X146228Y32427D01*
X146166Y32282D01*
X146100Y32139D01*
X146031Y31997D01*
X145959Y31857D01*
X145882Y31719D01*
X145803Y31583D01*
X145719Y31449D01*
X145633Y31317D01*
X145543Y31188D01*
X145450Y31060D01*
X145354Y30935D01*
X145255Y30813D01*
X145152Y30693D01*
X145047Y30575D01*
X144939Y30461D01*
X144827Y30349D01*
X144713Y30240D01*
X144597Y30134D01*
X144477Y30031D01*
X144356Y29931D01*
X144231Y29834D01*
X144104Y29740D01*
X143975Y29649D01*
X143844Y29562D01*
X143711Y29478D01*
X143575Y29397D01*
X143437Y29320D01*
X143298Y29247D01*
X143157Y29177D01*
X143014Y29110D01*
X142869Y29047D01*
X142723Y28988D01*
X142575Y28932D01*
X142426Y28881D01*
X142276Y28833D01*
X142125Y28789D01*
X141972Y28748D01*
X141819Y28712D01*
X141664Y28679D01*
X141509Y28650D01*
X141354Y28626D01*
X141197Y28605D01*
X141041Y28588D01*
X140883Y28575D01*
X140726Y28566D01*
X140568Y28561D01*
X140411Y28560D01*
X140253Y28563D01*
X140095Y28570D01*
X139938Y28581D01*
X139781Y28596D01*
X139624Y28615D01*
X139468Y28638D01*
X139313Y28664D01*
X139158Y28695D01*
X139004Y28729D01*
X138851Y28768D01*
X138699Y28810D01*
X138549Y28856D01*
X138399Y28906D01*
X138251Y28960D01*
X138104Y29017D01*
X137958Y29078D01*
X137815Y29143D01*
X137672Y29211D01*
X137532Y29283D01*
X137394Y29358D01*
X137257Y29437D01*
X137122Y29519D01*
X136990Y29605D01*
X136860Y29694D01*
X136732Y29786D01*
X136606Y29882D01*
X136483Y29980D01*
X136363Y30082D01*
X136245Y30187D01*
X136129Y30294D01*
X136017Y30405D01*
X135907Y30518D01*
X135800Y30634D01*
X135696Y30752D01*
X135595Y30874D01*
X135498Y30997D01*
X135403Y31124D01*
X135312Y31252D01*
X135223Y31383D01*
X135139Y31516D01*
X135057Y31651D01*
X134979Y31788D01*
X134905Y31927D01*
X134834Y32068D01*
X134766Y32210D01*
X134703Y32355D01*
X134642Y32500D01*
X134586Y32648D01*
X134533Y32796D01*
X134484Y32946D01*
X134439Y33097D01*
X134398Y33250D01*
X134360Y33403D01*
X134327Y33557D01*
X134297Y33712D01*
X134271Y33867D01*
X134250Y34024D01*
X134232Y34180D01*
X134218Y34337D01*
X134208Y34495D01*
X134202Y34652D01*
X134200Y34810D01*
X214200Y34810D02*
X214202Y34968D01*
X214208Y35125D01*
X214218Y35283D01*
X214232Y35440D01*
X214250Y35596D01*
X214271Y35753D01*
X214297Y35908D01*
X214327Y36063D01*
X214360Y36217D01*
X214398Y36370D01*
X214439Y36523D01*
X214484Y36674D01*
X214533Y36824D01*
X214586Y36972D01*
X214642Y37120D01*
X214703Y37265D01*
X214766Y37410D01*
X214834Y37552D01*
X214905Y37693D01*
X214979Y37832D01*
X215057Y37969D01*
X215139Y38104D01*
X215223Y38237D01*
X215312Y38368D01*
X215403Y38496D01*
X215498Y38623D01*
X215595Y38746D01*
X215696Y38868D01*
X215800Y38986D01*
X215907Y39102D01*
X216017Y39215D01*
X216129Y39326D01*
X216245Y39433D01*
X216363Y39538D01*
X216483Y39640D01*
X216606Y39738D01*
X216732Y39834D01*
X216860Y39926D01*
X216990Y40015D01*
X217122Y40101D01*
X217257Y40183D01*
X217394Y40262D01*
X217532Y40337D01*
X217672Y40409D01*
X217815Y40477D01*
X217958Y40542D01*
X218104Y40603D01*
X218251Y40660D01*
X218399Y40714D01*
X218549Y40764D01*
X218699Y40810D01*
X218851Y40852D01*
X219004Y40891D01*
X219158Y40925D01*
X219313Y40956D01*
X219468Y40982D01*
X219624Y41005D01*
X219781Y41024D01*
X219938Y41039D01*
X220095Y41050D01*
X220253Y41057D01*
X220411Y41060D01*
X220568Y41059D01*
X220726Y41054D01*
X220883Y41045D01*
X221041Y41032D01*
X221197Y41015D01*
X221354Y40994D01*
X221509Y40970D01*
X221664Y40941D01*
X221819Y40908D01*
X221972Y40872D01*
X222125Y40831D01*
X222276Y40787D01*
X222426Y40739D01*
X222575Y40688D01*
X222723Y40632D01*
X222869Y40573D01*
X223014Y40510D01*
X223157Y40443D01*
X223298Y40373D01*
X223437Y40300D01*
X223575Y40223D01*
X223711Y40142D01*
X223844Y40058D01*
X223975Y39971D01*
X224104Y39880D01*
X224231Y39786D01*
X224356Y39689D01*
X224477Y39589D01*
X224597Y39486D01*
X224713Y39380D01*
X224827Y39271D01*
X224939Y39159D01*
X225047Y39045D01*
X225152Y38927D01*
X225255Y38807D01*
X225354Y38685D01*
X225450Y38560D01*
X225543Y38432D01*
X225633Y38303D01*
X225719Y38171D01*
X225803Y38037D01*
X225882Y37901D01*
X225959Y37763D01*
X226031Y37623D01*
X226100Y37481D01*
X226166Y37338D01*
X226228Y37193D01*
X226286Y37046D01*
X226341Y36898D01*
X226392Y36749D01*
X226439Y36598D01*
X226482Y36447D01*
X226521Y36294D01*
X226557Y36140D01*
X226588Y35986D01*
X226616Y35831D01*
X226640Y35675D01*
X226660Y35518D01*
X226676Y35361D01*
X226688Y35204D01*
X226696Y35047D01*
X226700Y34889D01*
X226700Y34731D01*
X226696Y34573D01*
X226688Y34416D01*
X226676Y34259D01*
X226660Y34102D01*
X226640Y33945D01*
X226616Y33789D01*
X226588Y33634D01*
X226557Y33480D01*
X226521Y33326D01*
X226482Y33173D01*
X226439Y33022D01*
X226392Y32871D01*
X226341Y32722D01*
X226286Y32574D01*
X226228Y32427D01*
X226166Y32282D01*
X226100Y32139D01*
X226031Y31997D01*
X225959Y31857D01*
X225882Y31719D01*
X225803Y31583D01*
X225719Y31449D01*
X225633Y31317D01*
X225543Y31188D01*
X225450Y31060D01*
X225354Y30935D01*
X225255Y30813D01*
X225152Y30693D01*
X225047Y30575D01*
X224939Y30461D01*
X224827Y30349D01*
X224713Y30240D01*
X224597Y30134D01*
X224477Y30031D01*
X224356Y29931D01*
X224231Y29834D01*
X224104Y29740D01*
X223975Y29649D01*
X223844Y29562D01*
X223711Y29478D01*
X223575Y29397D01*
X223437Y29320D01*
X223298Y29247D01*
X223157Y29177D01*
X223014Y29110D01*
X222869Y29047D01*
X222723Y28988D01*
X222575Y28932D01*
X222426Y28881D01*
X222276Y28833D01*
X222125Y28789D01*
X221972Y28748D01*
X221819Y28712D01*
X221664Y28679D01*
X221509Y28650D01*
X221354Y28626D01*
X221197Y28605D01*
X221041Y28588D01*
X220883Y28575D01*
X220726Y28566D01*
X220568Y28561D01*
X220411Y28560D01*
X220253Y28563D01*
X220095Y28570D01*
X219938Y28581D01*
X219781Y28596D01*
X219624Y28615D01*
X219468Y28638D01*
X219313Y28664D01*
X219158Y28695D01*
X219004Y28729D01*
X218851Y28768D01*
X218699Y28810D01*
X218549Y28856D01*
X218399Y28906D01*
X218251Y28960D01*
X218104Y29017D01*
X217958Y29078D01*
X217815Y29143D01*
X217672Y29211D01*
X217532Y29283D01*
X217394Y29358D01*
X217257Y29437D01*
X217122Y29519D01*
X216990Y29605D01*
X216860Y29694D01*
X216732Y29786D01*
X216606Y29882D01*
X216483Y29980D01*
X216363Y30082D01*
X216245Y30187D01*
X216129Y30294D01*
X216017Y30405D01*
X215907Y30518D01*
X215800Y30634D01*
X215696Y30752D01*
X215595Y30874D01*
X215498Y30997D01*
X215403Y31124D01*
X215312Y31252D01*
X215223Y31383D01*
X215139Y31516D01*
X215057Y31651D01*
X214979Y31788D01*
X214905Y31927D01*
X214834Y32068D01*
X214766Y32210D01*
X214703Y32355D01*
X214642Y32500D01*
X214586Y32648D01*
X214533Y32796D01*
X214484Y32946D01*
X214439Y33097D01*
X214398Y33250D01*
X214360Y33403D01*
X214327Y33557D01*
X214297Y33712D01*
X214271Y33867D01*
X214250Y34024D01*
X214232Y34180D01*
X214218Y34337D01*
X214208Y34495D01*
X214202Y34652D01*
X214200Y34810D01*
D12*
X127000Y24130D02*
X126998Y24230D01*
X126992Y24329D01*
X126982Y24429D01*
X126969Y24527D01*
X126951Y24626D01*
X126930Y24723D01*
X126905Y24819D01*
X126876Y24915D01*
X126843Y25009D01*
X126807Y25102D01*
X126767Y25193D01*
X126723Y25283D01*
X126676Y25371D01*
X126626Y25457D01*
X126572Y25541D01*
X126515Y25623D01*
X126455Y25702D01*
X126391Y25780D01*
X126325Y25854D01*
X126256Y25926D01*
X126184Y25995D01*
X126110Y26061D01*
X126032Y26125D01*
X125953Y26185D01*
X125871Y26242D01*
X125787Y26296D01*
X125701Y26346D01*
X125613Y26393D01*
X125523Y26437D01*
X125432Y26477D01*
X125339Y26513D01*
X125245Y26546D01*
X125149Y26575D01*
X125053Y26600D01*
X124956Y26621D01*
X124857Y26639D01*
X124759Y26652D01*
X124659Y26662D01*
X124560Y26668D01*
X124460Y26670D01*
X124360Y26668D01*
X124261Y26662D01*
X124161Y26652D01*
X124063Y26639D01*
X123964Y26621D01*
X123867Y26600D01*
X123771Y26575D01*
X123675Y26546D01*
X123581Y26513D01*
X123488Y26477D01*
X123397Y26437D01*
X123307Y26393D01*
X123219Y26346D01*
X123133Y26296D01*
X123049Y26242D01*
X122967Y26185D01*
X122888Y26125D01*
X122810Y26061D01*
X122736Y25995D01*
X122664Y25926D01*
X122595Y25854D01*
X122529Y25780D01*
X122465Y25702D01*
X122405Y25623D01*
X122348Y25541D01*
X122294Y25457D01*
X122244Y25371D01*
X122197Y25283D01*
X122153Y25193D01*
X122113Y25102D01*
X122077Y25009D01*
X122044Y24915D01*
X122015Y24819D01*
X121990Y24723D01*
X121969Y24626D01*
X121951Y24527D01*
X121938Y24429D01*
X121928Y24329D01*
X121922Y24230D01*
X121920Y24130D01*
X121920Y16510D02*
X121922Y16410D01*
X121928Y16311D01*
X121938Y16211D01*
X121951Y16113D01*
X121969Y16014D01*
X121990Y15917D01*
X122015Y15821D01*
X122044Y15725D01*
X122077Y15631D01*
X122113Y15538D01*
X122153Y15447D01*
X122197Y15357D01*
X122244Y15269D01*
X122294Y15183D01*
X122348Y15099D01*
X122405Y15017D01*
X122465Y14938D01*
X122529Y14860D01*
X122595Y14786D01*
X122664Y14714D01*
X122736Y14645D01*
X122810Y14579D01*
X122888Y14515D01*
X122967Y14455D01*
X123049Y14398D01*
X123133Y14344D01*
X123219Y14294D01*
X123307Y14247D01*
X123397Y14203D01*
X123488Y14163D01*
X123581Y14127D01*
X123675Y14094D01*
X123771Y14065D01*
X123867Y14040D01*
X123964Y14019D01*
X124063Y14001D01*
X124161Y13988D01*
X124261Y13978D01*
X124360Y13972D01*
X124460Y13970D01*
X124560Y13972D01*
X124659Y13978D01*
X124759Y13988D01*
X124857Y14001D01*
X124956Y14019D01*
X125053Y14040D01*
X125149Y14065D01*
X125245Y14094D01*
X125339Y14127D01*
X125432Y14163D01*
X125523Y14203D01*
X125613Y14247D01*
X125701Y14294D01*
X125787Y14344D01*
X125871Y14398D01*
X125953Y14455D01*
X126032Y14515D01*
X126110Y14579D01*
X126184Y14645D01*
X126256Y14714D01*
X126325Y14786D01*
X126391Y14860D01*
X126455Y14938D01*
X126515Y15017D01*
X126572Y15099D01*
X126626Y15183D01*
X126676Y15269D01*
X126723Y15357D01*
X126767Y15447D01*
X126807Y15538D01*
X126843Y15631D01*
X126876Y15725D01*
X126905Y15821D01*
X126930Y15917D01*
X126951Y16014D01*
X126969Y16113D01*
X126982Y16211D01*
X126992Y16311D01*
X126998Y16410D01*
X127000Y16510D01*
X121920Y16510D02*
X121920Y24130D01*
X127000Y24130D02*
X127000Y16510D01*
X60960Y24130D02*
X60958Y24230D01*
X60952Y24329D01*
X60942Y24429D01*
X60929Y24527D01*
X60911Y24626D01*
X60890Y24723D01*
X60865Y24819D01*
X60836Y24915D01*
X60803Y25009D01*
X60767Y25102D01*
X60727Y25193D01*
X60683Y25283D01*
X60636Y25371D01*
X60586Y25457D01*
X60532Y25541D01*
X60475Y25623D01*
X60415Y25702D01*
X60351Y25780D01*
X60285Y25854D01*
X60216Y25926D01*
X60144Y25995D01*
X60070Y26061D01*
X59992Y26125D01*
X59913Y26185D01*
X59831Y26242D01*
X59747Y26296D01*
X59661Y26346D01*
X59573Y26393D01*
X59483Y26437D01*
X59392Y26477D01*
X59299Y26513D01*
X59205Y26546D01*
X59109Y26575D01*
X59013Y26600D01*
X58916Y26621D01*
X58817Y26639D01*
X58719Y26652D01*
X58619Y26662D01*
X58520Y26668D01*
X58420Y26670D01*
X58320Y26668D01*
X58221Y26662D01*
X58121Y26652D01*
X58023Y26639D01*
X57924Y26621D01*
X57827Y26600D01*
X57731Y26575D01*
X57635Y26546D01*
X57541Y26513D01*
X57448Y26477D01*
X57357Y26437D01*
X57267Y26393D01*
X57179Y26346D01*
X57093Y26296D01*
X57009Y26242D01*
X56927Y26185D01*
X56848Y26125D01*
X56770Y26061D01*
X56696Y25995D01*
X56624Y25926D01*
X56555Y25854D01*
X56489Y25780D01*
X56425Y25702D01*
X56365Y25623D01*
X56308Y25541D01*
X56254Y25457D01*
X56204Y25371D01*
X56157Y25283D01*
X56113Y25193D01*
X56073Y25102D01*
X56037Y25009D01*
X56004Y24915D01*
X55975Y24819D01*
X55950Y24723D01*
X55929Y24626D01*
X55911Y24527D01*
X55898Y24429D01*
X55888Y24329D01*
X55882Y24230D01*
X55880Y24130D01*
X55880Y16510D02*
X55882Y16410D01*
X55888Y16311D01*
X55898Y16211D01*
X55911Y16113D01*
X55929Y16014D01*
X55950Y15917D01*
X55975Y15821D01*
X56004Y15725D01*
X56037Y15631D01*
X56073Y15538D01*
X56113Y15447D01*
X56157Y15357D01*
X56204Y15269D01*
X56254Y15183D01*
X56308Y15099D01*
X56365Y15017D01*
X56425Y14938D01*
X56489Y14860D01*
X56555Y14786D01*
X56624Y14714D01*
X56696Y14645D01*
X56770Y14579D01*
X56848Y14515D01*
X56927Y14455D01*
X57009Y14398D01*
X57093Y14344D01*
X57179Y14294D01*
X57267Y14247D01*
X57357Y14203D01*
X57448Y14163D01*
X57541Y14127D01*
X57635Y14094D01*
X57731Y14065D01*
X57827Y14040D01*
X57924Y14019D01*
X58023Y14001D01*
X58121Y13988D01*
X58221Y13978D01*
X58320Y13972D01*
X58420Y13970D01*
X58520Y13972D01*
X58619Y13978D01*
X58719Y13988D01*
X58817Y14001D01*
X58916Y14019D01*
X59013Y14040D01*
X59109Y14065D01*
X59205Y14094D01*
X59299Y14127D01*
X59392Y14163D01*
X59483Y14203D01*
X59573Y14247D01*
X59661Y14294D01*
X59747Y14344D01*
X59831Y14398D01*
X59913Y14455D01*
X59992Y14515D01*
X60070Y14579D01*
X60144Y14645D01*
X60216Y14714D01*
X60285Y14786D01*
X60351Y14860D01*
X60415Y14938D01*
X60475Y15017D01*
X60532Y15099D01*
X60586Y15183D01*
X60636Y15269D01*
X60683Y15357D01*
X60727Y15447D01*
X60767Y15538D01*
X60803Y15631D01*
X60836Y15725D01*
X60865Y15821D01*
X60890Y15917D01*
X60911Y16014D01*
X60929Y16113D01*
X60942Y16211D01*
X60952Y16311D01*
X60958Y16410D01*
X60960Y16510D01*
X55880Y16510D02*
X55880Y24130D01*
X60960Y24130D02*
X60960Y16510D01*
X43180Y-1110D02*
X139700Y-1110D01*
D10*
X136017Y-2207D02*
X136017Y-4953D01*
X136017Y-2207D02*
X136780Y-2207D01*
X136834Y-2209D01*
X136889Y-2215D01*
X136942Y-2224D01*
X136995Y-2238D01*
X137047Y-2255D01*
X137097Y-2276D01*
X137146Y-2300D01*
X137193Y-2328D01*
X137237Y-2359D01*
X137280Y-2393D01*
X137320Y-2430D01*
X137357Y-2470D01*
X137391Y-2513D01*
X137422Y-2557D01*
X137450Y-2604D01*
X137474Y-2653D01*
X137495Y-2703D01*
X137512Y-2755D01*
X137526Y-2808D01*
X137535Y-2861D01*
X137541Y-2916D01*
X137543Y-2970D01*
X137541Y-3024D01*
X137535Y-3079D01*
X137526Y-3132D01*
X137512Y-3185D01*
X137495Y-3237D01*
X137474Y-3287D01*
X137450Y-3336D01*
X137422Y-3383D01*
X137391Y-3427D01*
X137357Y-3470D01*
X137320Y-3510D01*
X137280Y-3547D01*
X137237Y-3581D01*
X137193Y-3612D01*
X137146Y-3640D01*
X137097Y-3664D01*
X137047Y-3685D01*
X136995Y-3702D01*
X136942Y-3716D01*
X136889Y-3725D01*
X136834Y-3731D01*
X136780Y-3733D01*
X136017Y-3733D01*
X139188Y-4953D02*
X139798Y-4953D01*
X139188Y-4953D02*
X139140Y-4951D01*
X139093Y-4945D01*
X139046Y-4936D01*
X139000Y-4923D01*
X138955Y-4907D01*
X138911Y-4887D01*
X138869Y-4863D01*
X138829Y-4837D01*
X138792Y-4807D01*
X138757Y-4774D01*
X138724Y-4739D01*
X138695Y-4702D01*
X138668Y-4662D01*
X138644Y-4620D01*
X138624Y-4576D01*
X138608Y-4532D01*
X138595Y-4485D01*
X138586Y-4438D01*
X138580Y-4391D01*
X138578Y-4343D01*
X138578Y-2817D01*
X138580Y-2769D01*
X138586Y-2722D01*
X138595Y-2675D01*
X138608Y-2629D01*
X138624Y-2584D01*
X138644Y-2540D01*
X138668Y-2498D01*
X138694Y-2458D01*
X138724Y-2421D01*
X138757Y-2386D01*
X138792Y-2353D01*
X138829Y-2324D01*
X138869Y-2297D01*
X138911Y-2273D01*
X138955Y-2253D01*
X138999Y-2237D01*
X139046Y-2224D01*
X139093Y-2215D01*
X139140Y-2209D01*
X139188Y-2207D01*
X139798Y-2207D01*
X140967Y-3427D02*
X141730Y-3427D01*
X141784Y-3429D01*
X141839Y-3435D01*
X141892Y-3444D01*
X141945Y-3458D01*
X141997Y-3475D01*
X142047Y-3496D01*
X142096Y-3520D01*
X142143Y-3548D01*
X142187Y-3579D01*
X142230Y-3613D01*
X142270Y-3650D01*
X142307Y-3690D01*
X142341Y-3733D01*
X142372Y-3777D01*
X142400Y-3824D01*
X142424Y-3873D01*
X142445Y-3923D01*
X142462Y-3975D01*
X142476Y-4028D01*
X142485Y-4081D01*
X142491Y-4136D01*
X142493Y-4190D01*
X142491Y-4244D01*
X142485Y-4299D01*
X142476Y-4352D01*
X142462Y-4405D01*
X142445Y-4457D01*
X142424Y-4507D01*
X142400Y-4556D01*
X142372Y-4603D01*
X142341Y-4647D01*
X142307Y-4690D01*
X142270Y-4730D01*
X142230Y-4767D01*
X142187Y-4801D01*
X142143Y-4832D01*
X142096Y-4860D01*
X142047Y-4884D01*
X141997Y-4905D01*
X141945Y-4922D01*
X141892Y-4936D01*
X141839Y-4945D01*
X141784Y-4951D01*
X141730Y-4953D01*
X140967Y-4953D01*
X140967Y-2207D01*
X141730Y-2207D01*
X141778Y-2209D01*
X141825Y-2215D01*
X141872Y-2224D01*
X141919Y-2237D01*
X141963Y-2253D01*
X142007Y-2273D01*
X142049Y-2297D01*
X142089Y-2323D01*
X142126Y-2353D01*
X142161Y-2386D01*
X142194Y-2421D01*
X142224Y-2458D01*
X142250Y-2498D01*
X142274Y-2540D01*
X142294Y-2584D01*
X142310Y-2628D01*
X142323Y-2675D01*
X142332Y-2722D01*
X142338Y-2769D01*
X142340Y-2817D01*
X142338Y-2865D01*
X142332Y-2912D01*
X142323Y-2959D01*
X142310Y-3006D01*
X142294Y-3050D01*
X142274Y-3094D01*
X142250Y-3136D01*
X142224Y-3176D01*
X142194Y-3213D01*
X142161Y-3248D01*
X142126Y-3281D01*
X142089Y-3311D01*
X142049Y-3337D01*
X142007Y-3361D01*
X141963Y-3381D01*
X141919Y-3397D01*
X141872Y-3410D01*
X141825Y-3419D01*
X141778Y-3425D01*
X141730Y-3427D01*
X145071Y-4953D02*
X146292Y-4953D01*
X145071Y-4953D02*
X145071Y-2207D01*
X146292Y-2207D01*
X145987Y-3427D02*
X145071Y-3427D01*
X148494Y-2207D02*
X148494Y-4953D01*
X147732Y-4953D01*
X147690Y-4951D01*
X147648Y-4945D01*
X147607Y-4936D01*
X147567Y-4922D01*
X147528Y-4905D01*
X147491Y-4884D01*
X147456Y-4860D01*
X147423Y-4833D01*
X147394Y-4804D01*
X147367Y-4771D01*
X147343Y-4736D01*
X147322Y-4699D01*
X147305Y-4660D01*
X147291Y-4620D01*
X147282Y-4579D01*
X147276Y-4537D01*
X147274Y-4495D01*
X147274Y-3580D01*
X147276Y-3540D01*
X147281Y-3500D01*
X147290Y-3461D01*
X147302Y-3423D01*
X147317Y-3386D01*
X147335Y-3351D01*
X147357Y-3317D01*
X147381Y-3286D01*
X147408Y-3256D01*
X147438Y-3229D01*
X147469Y-3205D01*
X147503Y-3183D01*
X147538Y-3165D01*
X147575Y-3150D01*
X147613Y-3138D01*
X147652Y-3129D01*
X147692Y-3124D01*
X147732Y-3122D01*
X148494Y-3122D01*
X150162Y-4953D02*
X150924Y-4953D01*
X150162Y-4953D02*
X150120Y-4951D01*
X150078Y-4945D01*
X150037Y-4936D01*
X149997Y-4922D01*
X149958Y-4905D01*
X149921Y-4884D01*
X149886Y-4860D01*
X149853Y-4833D01*
X149824Y-4804D01*
X149797Y-4771D01*
X149773Y-4736D01*
X149752Y-4699D01*
X149735Y-4660D01*
X149721Y-4620D01*
X149712Y-4579D01*
X149706Y-4537D01*
X149704Y-4495D01*
X149704Y-3580D01*
X149706Y-3540D01*
X149711Y-3500D01*
X149720Y-3461D01*
X149732Y-3423D01*
X149747Y-3386D01*
X149765Y-3351D01*
X149787Y-3317D01*
X149811Y-3286D01*
X149838Y-3256D01*
X149868Y-3229D01*
X149899Y-3205D01*
X149933Y-3183D01*
X149968Y-3165D01*
X150005Y-3150D01*
X150043Y-3138D01*
X150082Y-3129D01*
X150122Y-3124D01*
X150162Y-3122D01*
X150924Y-3122D01*
X150924Y-5411D01*
X150925Y-5411D02*
X150923Y-5451D01*
X150918Y-5491D01*
X150909Y-5530D01*
X150897Y-5568D01*
X150882Y-5605D01*
X150864Y-5640D01*
X150842Y-5674D01*
X150818Y-5705D01*
X150791Y-5735D01*
X150761Y-5762D01*
X150730Y-5786D01*
X150696Y-5808D01*
X150661Y-5826D01*
X150624Y-5841D01*
X150586Y-5853D01*
X150547Y-5862D01*
X150507Y-5867D01*
X150467Y-5869D01*
X150467Y-5868D02*
X149856Y-5868D01*
X152606Y-4953D02*
X153369Y-4953D01*
X152606Y-4953D02*
X152564Y-4951D01*
X152522Y-4945D01*
X152481Y-4936D01*
X152441Y-4922D01*
X152402Y-4905D01*
X152365Y-4884D01*
X152330Y-4860D01*
X152297Y-4833D01*
X152268Y-4804D01*
X152241Y-4771D01*
X152217Y-4736D01*
X152196Y-4699D01*
X152179Y-4660D01*
X152165Y-4620D01*
X152156Y-4579D01*
X152150Y-4537D01*
X152148Y-4495D01*
X152148Y-3733D01*
X152150Y-3685D01*
X152156Y-3638D01*
X152165Y-3591D01*
X152178Y-3544D01*
X152194Y-3500D01*
X152214Y-3456D01*
X152238Y-3414D01*
X152264Y-3374D01*
X152294Y-3337D01*
X152327Y-3302D01*
X152362Y-3269D01*
X152399Y-3239D01*
X152439Y-3213D01*
X152481Y-3189D01*
X152525Y-3169D01*
X152569Y-3153D01*
X152616Y-3140D01*
X152663Y-3131D01*
X152710Y-3125D01*
X152758Y-3123D01*
X152806Y-3125D01*
X152853Y-3131D01*
X152900Y-3140D01*
X152947Y-3153D01*
X152991Y-3169D01*
X153035Y-3189D01*
X153077Y-3213D01*
X153117Y-3239D01*
X153154Y-3269D01*
X153189Y-3302D01*
X153222Y-3337D01*
X153252Y-3374D01*
X153278Y-3414D01*
X153302Y-3456D01*
X153322Y-3500D01*
X153338Y-3544D01*
X153351Y-3591D01*
X153360Y-3638D01*
X153366Y-3685D01*
X153368Y-3733D01*
X153369Y-3733D02*
X153369Y-4038D01*
X152148Y-4038D01*
D13*
X0Y12700D02*
X48Y11593D01*
X193Y10495D01*
X433Y9413D01*
X766Y8356D01*
X1190Y7333D01*
X1701Y6350D01*
X2297Y5416D01*
X2971Y4537D01*
X3720Y3720D01*
X4537Y2971D01*
X5416Y2297D01*
X6350Y1701D01*
X7333Y1190D01*
X8356Y766D01*
X9413Y433D01*
X10495Y193D01*
X11593Y48D01*
X12700Y0D01*
X320040Y0D01*
X321147Y48D01*
X322245Y193D01*
X323327Y433D01*
X324384Y766D01*
X325407Y1190D01*
X326390Y1701D01*
X327324Y2297D01*
X328203Y2971D01*
X329020Y3720D01*
X329769Y4537D01*
X330443Y5416D01*
X331039Y6350D01*
X331550Y7333D01*
X331974Y8356D01*
X332307Y9413D01*
X332547Y10495D01*
X332692Y11593D01*
X332740Y12700D01*
X332740Y321310D01*
X332692Y322417D01*
X332547Y323515D01*
X332307Y324597D01*
X331974Y325654D01*
X331550Y326677D01*
X331039Y327660D01*
X330443Y328594D01*
X329769Y329473D01*
X329020Y330290D01*
X328203Y331039D01*
X327324Y331713D01*
X326390Y332309D01*
X325407Y332820D01*
X324384Y333244D01*
X323327Y333577D01*
X322245Y333817D01*
X321147Y333962D01*
X320040Y334010D01*
X248920Y334010D01*
X246706Y334107D01*
X244509Y334396D01*
X242346Y334875D01*
X240233Y335542D01*
X238186Y336390D01*
X236220Y337413D01*
X234351Y338604D01*
X232593Y339952D01*
X230960Y341450D01*
X229462Y343083D01*
X228114Y344841D01*
X226923Y346710D01*
X225900Y348676D01*
X225052Y350723D01*
X224385Y352836D01*
X223906Y354999D01*
X223617Y357196D01*
X223520Y359410D01*
X223520Y365760D01*
X223587Y366761D01*
X223567Y367764D01*
X223459Y368762D01*
X223265Y369746D01*
X222986Y370710D01*
X222624Y371645D01*
X222181Y372546D01*
X221662Y373404D01*
X221070Y374214D01*
X220410Y374970D01*
X219686Y375664D01*
X218905Y376294D01*
X218072Y376852D01*
X217193Y377336D01*
X216275Y377742D01*
X215326Y378066D01*
X214351Y378306D01*
X213360Y378460D01*
X212562Y377208D01*
X211327Y375557D01*
X209953Y374020D01*
X208450Y372609D01*
X206830Y371334D01*
X205105Y370205D01*
X203288Y369231D01*
X201393Y368419D01*
X199435Y367775D01*
X197428Y367304D01*
X195387Y367010D01*
X193329Y366895D01*
X191268Y366960D01*
X189221Y367204D01*
X187203Y367625D01*
X185229Y368221D01*
X183315Y368987D01*
X181475Y369916D01*
X179723Y371003D01*
X178072Y372238D01*
X176535Y373612D01*
X175124Y375115D01*
X173849Y376735D01*
X172720Y378460D01*
X171729Y378306D01*
X170755Y378066D01*
X169805Y377742D01*
X168887Y377336D01*
X168008Y376852D01*
X167175Y376294D01*
X166394Y375664D01*
X165670Y374970D01*
X165010Y374214D01*
X164418Y373404D01*
X163899Y372546D01*
X163456Y371645D01*
X163094Y370710D01*
X162815Y369746D01*
X162621Y368762D01*
X162513Y367764D01*
X162493Y366761D01*
X162560Y365760D01*
X162560Y363220D01*
X162550Y362999D01*
X162521Y362779D01*
X162473Y362563D01*
X162407Y362351D01*
X162322Y362147D01*
X162220Y361950D01*
X162101Y361763D01*
X161966Y361587D01*
X161816Y361424D01*
X161653Y361274D01*
X161477Y361139D01*
X161290Y361020D01*
X161093Y360918D01*
X160889Y360833D01*
X160677Y360767D01*
X160461Y360719D01*
X160241Y360690D01*
X160020Y360680D01*
X156210Y360680D01*
X155989Y360690D01*
X155769Y360719D01*
X155553Y360767D01*
X155341Y360833D01*
X155137Y360918D01*
X154940Y361020D01*
X154753Y361139D01*
X154577Y361274D01*
X154414Y361424D01*
X154264Y361587D01*
X154129Y361763D01*
X154010Y361950D01*
X153908Y362147D01*
X153823Y362351D01*
X153757Y362563D01*
X153709Y362779D01*
X153680Y362999D01*
X153670Y363220D01*
X153670Y365760D01*
X153737Y366761D01*
X153717Y367764D01*
X153609Y368762D01*
X153415Y369746D01*
X153136Y370710D01*
X152774Y371645D01*
X152331Y372546D01*
X151812Y373404D01*
X151220Y374214D01*
X150560Y374970D01*
X149836Y375664D01*
X149055Y376294D01*
X148222Y376852D01*
X147343Y377336D01*
X146425Y377742D01*
X145476Y378066D01*
X144501Y378306D01*
X143510Y378460D01*
X142712Y377208D01*
X141477Y375557D01*
X140103Y374020D01*
X138600Y372609D01*
X136980Y371334D01*
X135255Y370205D01*
X133438Y369231D01*
X131543Y368419D01*
X129585Y367775D01*
X127578Y367304D01*
X125537Y367010D01*
X123479Y366895D01*
X121418Y366960D01*
X119371Y367204D01*
X117353Y367625D01*
X115379Y368221D01*
X113465Y368987D01*
X111625Y369916D01*
X109873Y371003D01*
X108222Y372238D01*
X106685Y373612D01*
X105274Y375115D01*
X103999Y376735D01*
X102870Y378460D01*
X101821Y378359D01*
X100785Y378166D01*
X99769Y377885D01*
X98782Y377515D01*
X97831Y377061D01*
X96923Y376526D01*
X96065Y375914D01*
X95263Y375229D01*
X94525Y374477D01*
X93855Y373664D01*
X93258Y372795D01*
X92739Y371878D01*
X92302Y370918D01*
X91950Y369925D01*
X91687Y368904D01*
X91513Y367865D01*
X91431Y366814D01*
X91440Y365760D01*
X91440Y359410D01*
X91343Y357196D01*
X91054Y354999D01*
X90575Y352836D01*
X89908Y350723D01*
X89060Y348676D01*
X88037Y346710D01*
X86846Y344841D01*
X85498Y343083D01*
X84001Y341450D01*
X82367Y339952D01*
X80609Y338604D01*
X78740Y337413D01*
X76775Y336390D01*
X74727Y335542D01*
X72614Y334875D01*
X70451Y334396D01*
X68254Y334107D01*
X66040Y334010D01*
X12700Y334010D01*
X11593Y333962D01*
X10495Y333817D01*
X9413Y333577D01*
X8356Y333244D01*
X7333Y332820D01*
X6350Y332309D01*
X5416Y331713D01*
X4537Y331039D01*
X3720Y330290D01*
X2971Y329473D01*
X2297Y328594D01*
X1701Y327660D01*
X1190Y326677D01*
X766Y325654D01*
X433Y324597D01*
X193Y323515D01*
X48Y322417D01*
X0Y321310D01*
X0Y12700D01*
X55880Y16510D02*
X55890Y16289D01*
X55919Y16069D01*
X55967Y15853D01*
X56033Y15641D01*
X56118Y15437D01*
X56220Y15240D01*
X56339Y15053D01*
X56474Y14877D01*
X56624Y14714D01*
X56787Y14564D01*
X56963Y14429D01*
X57150Y14310D01*
X57347Y14208D01*
X57551Y14123D01*
X57763Y14057D01*
X57979Y14009D01*
X58199Y13980D01*
X58420Y13970D01*
X58641Y13980D01*
X58861Y14009D01*
X59077Y14057D01*
X59289Y14123D01*
X59493Y14208D01*
X59690Y14310D01*
X59877Y14429D01*
X60053Y14564D01*
X60216Y14714D01*
X60366Y14877D01*
X60501Y15053D01*
X60620Y15240D01*
X60722Y15437D01*
X60807Y15641D01*
X60873Y15853D01*
X60921Y16069D01*
X60950Y16289D01*
X60960Y16510D01*
X60960Y24130D01*
X60950Y24351D01*
X60921Y24571D01*
X60873Y24787D01*
X60807Y24999D01*
X60722Y25203D01*
X60620Y25400D01*
X60501Y25587D01*
X60366Y25763D01*
X60216Y25926D01*
X60053Y26076D01*
X59877Y26211D01*
X59690Y26330D01*
X59493Y26432D01*
X59289Y26517D01*
X59077Y26583D01*
X58861Y26631D01*
X58641Y26660D01*
X58420Y26670D01*
X58199Y26660D01*
X57979Y26631D01*
X57763Y26583D01*
X57551Y26517D01*
X57347Y26432D01*
X57150Y26330D01*
X56963Y26211D01*
X56787Y26076D01*
X56624Y25926D01*
X56474Y25763D01*
X56339Y25587D01*
X56220Y25400D01*
X56118Y25203D01*
X56033Y24999D01*
X55967Y24787D01*
X55919Y24571D01*
X55890Y24351D01*
X55880Y24130D01*
X55880Y16510D01*
X121920Y16510D02*
X121930Y16289D01*
X121959Y16069D01*
X122007Y15853D01*
X122073Y15641D01*
X122158Y15437D01*
X122260Y15240D01*
X122379Y15053D01*
X122514Y14877D01*
X122664Y14714D01*
X122827Y14564D01*
X123003Y14429D01*
X123190Y14310D01*
X123387Y14208D01*
X123591Y14123D01*
X123803Y14057D01*
X124019Y14009D01*
X124239Y13980D01*
X124460Y13970D01*
X124681Y13980D01*
X124901Y14009D01*
X125117Y14057D01*
X125329Y14123D01*
X125533Y14208D01*
X125730Y14310D01*
X125917Y14429D01*
X126093Y14564D01*
X126256Y14714D01*
X126406Y14877D01*
X126541Y15053D01*
X126660Y15240D01*
X126762Y15437D01*
X126847Y15641D01*
X126913Y15853D01*
X126961Y16069D01*
X126990Y16289D01*
X127000Y16510D01*
X127000Y24130D01*
X126990Y24351D01*
X126961Y24571D01*
X126913Y24787D01*
X126847Y24999D01*
X126762Y25203D01*
X126660Y25400D01*
X126541Y25587D01*
X126406Y25763D01*
X126256Y25926D01*
X126093Y26076D01*
X125917Y26211D01*
X125730Y26330D01*
X125533Y26432D01*
X125329Y26517D01*
X125117Y26583D01*
X124901Y26631D01*
X124681Y26660D01*
X124460Y26670D01*
X124239Y26660D01*
X124019Y26631D01*
X123803Y26583D01*
X123591Y26517D01*
X123387Y26432D01*
X123190Y26330D01*
X123003Y26211D01*
X122827Y26076D01*
X122664Y25926D01*
X122514Y25763D01*
X122379Y25587D01*
X122260Y25400D01*
X122158Y25203D01*
X122073Y24999D01*
X122007Y24787D01*
X121959Y24571D01*
X121930Y24351D01*
X121920Y24130D01*
X121920Y16510D01*
X328055Y311884D02*
X327979Y310816D01*
X327826Y309755D01*
X327598Y308708D01*
X327296Y307680D01*
X326922Y306676D01*
X326477Y305701D01*
X325963Y304761D01*
X325384Y303860D01*
X324742Y303002D01*
X324040Y302192D01*
X323283Y301435D01*
X322473Y300733D01*
X321615Y300091D01*
X320714Y299512D01*
X319774Y298998D01*
X318799Y298553D01*
X317795Y298179D01*
X316767Y297877D01*
X315720Y297649D01*
X314659Y297496D01*
X313591Y297420D01*
X312519Y297420D01*
X311451Y297496D01*
X310390Y297649D01*
X309343Y297877D01*
X308315Y298179D01*
X307311Y298553D01*
X306336Y298998D01*
X305396Y299512D01*
X304495Y300091D01*
X303637Y300733D01*
X302827Y301435D01*
X302070Y302192D01*
X301368Y303002D01*
X300726Y303860D01*
X300147Y304761D01*
X299633Y305701D01*
X299188Y306676D01*
X298814Y307680D01*
X298512Y308708D01*
X298284Y309755D01*
X298131Y310816D01*
X298055Y311884D01*
X298055Y312956D01*
X298131Y314024D01*
X298284Y315085D01*
X298512Y316132D01*
X298814Y317160D01*
X299188Y318164D01*
X299633Y319139D01*
X300147Y320079D01*
X300726Y320980D01*
X301368Y321838D01*
X302070Y322648D01*
X302827Y323405D01*
X303637Y324107D01*
X304495Y324749D01*
X305396Y325328D01*
X306336Y325842D01*
X307311Y326287D01*
X308315Y326661D01*
X309343Y326963D01*
X310390Y327191D01*
X311451Y327344D01*
X312519Y327420D01*
X313591Y327420D01*
X314659Y327344D01*
X315720Y327191D01*
X316767Y326963D01*
X317795Y326661D01*
X318799Y326287D01*
X319774Y325842D01*
X320714Y325328D01*
X321615Y324749D01*
X322473Y324107D01*
X323283Y323405D01*
X324040Y322648D01*
X324742Y321838D01*
X325384Y320980D01*
X325963Y320079D01*
X326477Y319139D01*
X326922Y318164D01*
X327296Y317160D01*
X327598Y316132D01*
X327826Y315085D01*
X327979Y314024D01*
X328055Y312956D01*
X328055Y311884D01*
X328055Y19784D02*
X327979Y18716D01*
X327826Y17655D01*
X327598Y16608D01*
X327296Y15580D01*
X326922Y14576D01*
X326477Y13601D01*
X325963Y12661D01*
X325384Y11760D01*
X324742Y10902D01*
X324040Y10092D01*
X323283Y9335D01*
X322473Y8633D01*
X321615Y7991D01*
X320714Y7412D01*
X319774Y6898D01*
X318799Y6453D01*
X317795Y6079D01*
X316767Y5777D01*
X315720Y5549D01*
X314659Y5396D01*
X313591Y5320D01*
X312519Y5320D01*
X311451Y5396D01*
X310390Y5549D01*
X309343Y5777D01*
X308315Y6079D01*
X307311Y6453D01*
X306336Y6898D01*
X305396Y7412D01*
X304495Y7991D01*
X303637Y8633D01*
X302827Y9335D01*
X302070Y10092D01*
X301368Y10902D01*
X300726Y11760D01*
X300147Y12661D01*
X299633Y13601D01*
X299188Y14576D01*
X298814Y15580D01*
X298512Y16608D01*
X298284Y17655D01*
X298131Y18716D01*
X298055Y19784D01*
X298055Y20856D01*
X298131Y21924D01*
X298284Y22985D01*
X298512Y24032D01*
X298814Y25060D01*
X299188Y26064D01*
X299633Y27039D01*
X300147Y27979D01*
X300726Y28880D01*
X301368Y29738D01*
X302070Y30548D01*
X302827Y31305D01*
X303637Y32007D01*
X304495Y32649D01*
X305396Y33228D01*
X306336Y33742D01*
X307311Y34187D01*
X308315Y34561D01*
X309343Y34863D01*
X310390Y35091D01*
X311451Y35244D01*
X312519Y35320D01*
X313591Y35320D01*
X314659Y35244D01*
X315720Y35091D01*
X316767Y34863D01*
X317795Y34561D01*
X318799Y34187D01*
X319774Y33742D01*
X320714Y33228D01*
X321615Y32649D01*
X322473Y32007D01*
X323283Y31305D01*
X324040Y30548D01*
X324742Y29738D01*
X325384Y28880D01*
X325963Y27979D01*
X326477Y27039D01*
X326922Y26064D01*
X327296Y25060D01*
X327598Y24032D01*
X327826Y22985D01*
X327979Y21924D01*
X328055Y20856D01*
X328055Y19784D01*
X35955Y19784D02*
X35879Y18716D01*
X35726Y17655D01*
X35498Y16608D01*
X35196Y15580D01*
X34822Y14576D01*
X34377Y13601D01*
X33863Y12661D01*
X33284Y11760D01*
X32642Y10902D01*
X31940Y10092D01*
X31183Y9335D01*
X30373Y8633D01*
X29515Y7991D01*
X28614Y7412D01*
X27674Y6898D01*
X26699Y6453D01*
X25695Y6079D01*
X24667Y5777D01*
X23620Y5549D01*
X22559Y5396D01*
X21491Y5320D01*
X20419Y5320D01*
X19351Y5396D01*
X18290Y5549D01*
X17243Y5777D01*
X16215Y6079D01*
X15211Y6453D01*
X14236Y6898D01*
X13296Y7412D01*
X12395Y7991D01*
X11537Y8633D01*
X10727Y9335D01*
X9970Y10092D01*
X9268Y10902D01*
X8626Y11760D01*
X8047Y12661D01*
X7533Y13601D01*
X7088Y14576D01*
X6714Y15580D01*
X6412Y16608D01*
X6184Y17655D01*
X6031Y18716D01*
X5955Y19784D01*
X5955Y20856D01*
X6031Y21924D01*
X6184Y22985D01*
X6412Y24032D01*
X6714Y25060D01*
X7088Y26064D01*
X7533Y27039D01*
X8047Y27979D01*
X8626Y28880D01*
X9268Y29738D01*
X9970Y30548D01*
X10727Y31305D01*
X11537Y32007D01*
X12395Y32649D01*
X13296Y33228D01*
X14236Y33742D01*
X15211Y34187D01*
X16215Y34561D01*
X17243Y34863D01*
X18290Y35091D01*
X19351Y35244D01*
X20419Y35320D01*
X21491Y35320D01*
X22559Y35244D01*
X23620Y35091D01*
X24667Y34863D01*
X25695Y34561D01*
X26699Y34187D01*
X27674Y33742D01*
X28614Y33228D01*
X29515Y32649D01*
X30373Y32007D01*
X31183Y31305D01*
X31940Y30548D01*
X32642Y29738D01*
X33284Y28880D01*
X33863Y27979D01*
X34377Y27039D01*
X34822Y26064D01*
X35196Y25060D01*
X35498Y24032D01*
X35726Y22985D01*
X35879Y21924D01*
X35955Y20856D01*
X35955Y19784D01*
X35955Y311884D02*
X35879Y310816D01*
X35726Y309755D01*
X35498Y308708D01*
X35196Y307680D01*
X34822Y306676D01*
X34377Y305701D01*
X33863Y304761D01*
X33284Y303860D01*
X32642Y303002D01*
X31940Y302192D01*
X31183Y301435D01*
X30373Y300733D01*
X29515Y300091D01*
X28614Y299512D01*
X27674Y298998D01*
X26699Y298553D01*
X25695Y298179D01*
X24667Y297877D01*
X23620Y297649D01*
X22559Y297496D01*
X21491Y297420D01*
X20419Y297420D01*
X19351Y297496D01*
X18290Y297649D01*
X17243Y297877D01*
X16215Y298179D01*
X15211Y298553D01*
X14236Y298998D01*
X13296Y299512D01*
X12395Y300091D01*
X11537Y300733D01*
X10727Y301435D01*
X9970Y302192D01*
X9268Y303002D01*
X8626Y303860D01*
X8047Y304761D01*
X7533Y305701D01*
X7088Y306676D01*
X6714Y307680D01*
X6412Y308708D01*
X6184Y309755D01*
X6031Y310816D01*
X5955Y311884D01*
X5955Y312956D01*
X6031Y314024D01*
X6184Y315085D01*
X6412Y316132D01*
X6714Y317160D01*
X7088Y318164D01*
X7533Y319139D01*
X8047Y320079D01*
X8626Y320980D01*
X9268Y321838D01*
X9970Y322648D01*
X10727Y323405D01*
X11537Y324107D01*
X12395Y324749D01*
X13296Y325328D01*
X14236Y325842D01*
X15211Y326287D01*
X16215Y326661D01*
X17243Y326963D01*
X18290Y327191D01*
X19351Y327344D01*
X20419Y327420D01*
X21491Y327420D01*
X22559Y327344D01*
X23620Y327191D01*
X24667Y326963D01*
X25695Y326661D01*
X26699Y326287D01*
X27674Y325842D01*
X28614Y325328D01*
X29515Y324749D01*
X30373Y324107D01*
X31183Y323405D01*
X31940Y322648D01*
X32642Y321838D01*
X33284Y320980D01*
X33863Y320079D01*
X34377Y319139D01*
X34822Y318164D01*
X35196Y317160D01*
X35498Y316132D01*
X35726Y315085D01*
X35879Y314024D01*
X35955Y312956D01*
X35955Y311884D01*
X146700Y35161D02*
X146621Y35859D01*
X146465Y36543D01*
X146233Y37206D01*
X145929Y37838D01*
X145555Y38432D01*
X145118Y38981D01*
X144621Y39478D01*
X144072Y39915D01*
X143478Y40289D01*
X142846Y40593D01*
X142183Y40825D01*
X141499Y40981D01*
X140801Y41060D01*
X140099Y41060D01*
X139401Y40981D01*
X138717Y40825D01*
X138054Y40593D01*
X137422Y40289D01*
X136828Y39915D01*
X136279Y39478D01*
X135782Y38981D01*
X135345Y38432D01*
X134971Y37838D01*
X134667Y37206D01*
X134435Y36543D01*
X134279Y35859D01*
X134200Y35161D01*
X134200Y34459D01*
X134279Y33761D01*
X134435Y33077D01*
X134667Y32414D01*
X134971Y31782D01*
X135345Y31188D01*
X135782Y30639D01*
X136279Y30142D01*
X136828Y29705D01*
X137422Y29331D01*
X138054Y29027D01*
X138717Y28795D01*
X139401Y28639D01*
X140099Y28560D01*
X140801Y28560D01*
X141499Y28639D01*
X142183Y28795D01*
X142846Y29027D01*
X143478Y29331D01*
X144072Y29705D01*
X144621Y30142D01*
X145118Y30639D01*
X145555Y31188D01*
X145929Y31782D01*
X146233Y32414D01*
X146465Y33077D01*
X146621Y33761D01*
X146700Y34459D01*
X146700Y35161D01*
X226700Y35161D02*
X226621Y35859D01*
X226465Y36543D01*
X226233Y37206D01*
X225929Y37838D01*
X225555Y38432D01*
X225118Y38981D01*
X224621Y39478D01*
X224072Y39915D01*
X223478Y40289D01*
X222846Y40593D01*
X222183Y40825D01*
X221499Y40981D01*
X220801Y41060D01*
X220099Y41060D01*
X219401Y40981D01*
X218717Y40825D01*
X218054Y40593D01*
X217422Y40289D01*
X216828Y39915D01*
X216279Y39478D01*
X215782Y38981D01*
X215345Y38432D01*
X214971Y37838D01*
X214667Y37206D01*
X214435Y36543D01*
X214279Y35859D01*
X214200Y35161D01*
X214200Y34459D01*
X214279Y33761D01*
X214435Y33077D01*
X214667Y32414D01*
X214971Y31782D01*
X215345Y31188D01*
X215782Y30639D01*
X216279Y30142D01*
X216828Y29705D01*
X217422Y29331D01*
X218054Y29027D01*
X218717Y28795D01*
X219401Y28639D01*
X220099Y28560D01*
X220801Y28560D01*
X221499Y28639D01*
X222183Y28795D01*
X222846Y29027D01*
X223478Y29331D01*
X224072Y29705D01*
X224621Y30142D01*
X225118Y30639D01*
X225555Y31188D01*
X225929Y31782D01*
X226233Y32414D01*
X226465Y33077D01*
X226621Y33761D01*
X226700Y34459D01*
X226700Y35161D01*
M02*
