G04 EAGLE Gerber RS-274X export*
G75*
%MOMM*%
%FSLAX34Y34*%
%LPD*%
%INInner Copper Layer 2*%
%IPPOS*%
%AMOC8*
5,1,8,0,0,1.08239X$1,22.5*%
G01*
%ADD10C,1.524000*%
%ADD11C,0.553200*%
%ADD12C,0.381000*%
%ADD13C,0.508000*%
%ADD14C,0.762000*%
%ADD15C,0.635000*%
%ADD16C,0.254000*%
%ADD17C,0.279400*%
%ADD18C,0.558800*%
%ADD19C,0.304800*%

G36*
X291040Y1398D02*
X291040Y1398D01*
X291041Y1398D01*
X291085Y1417D01*
X291129Y1436D01*
X291130Y1437D01*
X291131Y1438D01*
X291147Y1483D01*
X291165Y1528D01*
X291164Y1529D01*
X291165Y1530D01*
X291128Y1613D01*
X289333Y3408D01*
X289333Y6752D01*
X291698Y9117D01*
X295042Y9117D01*
X297407Y6752D01*
X297407Y3408D01*
X295612Y1613D01*
X295612Y1612D01*
X295611Y1612D01*
X295593Y1566D01*
X295575Y1522D01*
X295576Y1521D01*
X295575Y1520D01*
X295596Y1476D01*
X295615Y1432D01*
X295616Y1432D01*
X295616Y1431D01*
X295701Y1398D01*
X320040Y1398D01*
X320046Y1400D01*
X320052Y1398D01*
X322233Y1613D01*
X322248Y1622D01*
X322269Y1622D01*
X326297Y3291D01*
X326313Y3307D01*
X326338Y3318D01*
X329422Y6402D01*
X329430Y6423D01*
X329449Y6443D01*
X331118Y10471D01*
X331118Y10489D01*
X331127Y10507D01*
X331342Y12688D01*
X331340Y12694D01*
X331342Y12700D01*
X331342Y321310D01*
X331340Y321315D01*
X331342Y321319D01*
X331341Y321320D01*
X331342Y321322D01*
X331127Y323503D01*
X331118Y323518D01*
X331118Y323539D01*
X329449Y327567D01*
X329433Y327583D01*
X329422Y327608D01*
X326338Y330692D01*
X326337Y330692D01*
X326337Y330693D01*
X326316Y330701D01*
X326297Y330719D01*
X322269Y332388D01*
X322251Y332388D01*
X322233Y332397D01*
X320052Y332612D01*
X320046Y332610D01*
X320040Y332612D01*
X244676Y332612D01*
X236602Y335235D01*
X236401Y335382D01*
X236371Y335389D01*
X236326Y335406D01*
X165100Y335406D01*
X165097Y335405D01*
X165094Y335406D01*
X165011Y335369D01*
X154851Y325209D01*
X154850Y325206D01*
X154847Y325205D01*
X154814Y325120D01*
X154814Y316230D01*
X154815Y316227D01*
X154814Y316224D01*
X154851Y316141D01*
X161201Y309791D01*
X161204Y309790D01*
X161205Y309787D01*
X161290Y309754D01*
X208988Y309754D01*
X209013Y309764D01*
X209040Y309765D01*
X209057Y309783D01*
X209079Y309792D01*
X209089Y309817D01*
X209107Y309837D01*
X209106Y309863D01*
X209114Y309884D01*
X209105Y309903D01*
X209105Y309928D01*
X208279Y311921D01*
X208279Y315459D01*
X209633Y318726D01*
X212134Y321227D01*
X215401Y322581D01*
X218939Y322581D01*
X222206Y321227D01*
X224707Y318726D01*
X226061Y315459D01*
X226061Y311921D01*
X225691Y311028D01*
X225691Y311000D01*
X225681Y310974D01*
X225691Y310951D01*
X225691Y310930D01*
X225707Y310914D01*
X225718Y310890D01*
X232284Y304325D01*
X232287Y304323D01*
X232288Y304320D01*
X232373Y304288D01*
X253911Y304288D01*
X274575Y283624D01*
X274575Y271698D01*
X274575Y271697D01*
X274575Y271696D01*
X274575Y271695D01*
X274588Y271666D01*
X274594Y271652D01*
X274613Y271608D01*
X274614Y271607D01*
X274615Y271606D01*
X274616Y271606D01*
X274701Y271573D01*
X274702Y271573D01*
X274705Y271572D01*
X274706Y271573D01*
X274707Y271572D01*
X274790Y271609D01*
X276458Y273277D01*
X279802Y273277D01*
X282167Y270912D01*
X282167Y267568D01*
X279802Y265203D01*
X276458Y265203D01*
X274790Y266871D01*
X274789Y266871D01*
X274789Y266872D01*
X274743Y266890D01*
X274699Y266908D01*
X274698Y266907D01*
X274697Y266908D01*
X274653Y266887D01*
X274609Y266868D01*
X274609Y266867D01*
X274608Y266867D01*
X274575Y266782D01*
X274575Y261239D01*
X274576Y261236D01*
X274575Y261233D01*
X274612Y261150D01*
X275464Y260298D01*
X275464Y216747D01*
X275465Y216744D01*
X275464Y216741D01*
X275501Y216658D01*
X279655Y212504D01*
X279655Y200246D01*
X275501Y196092D01*
X275500Y196089D01*
X275497Y196088D01*
X275464Y196003D01*
X275464Y86412D01*
X252641Y63589D01*
X252640Y63586D01*
X252637Y63585D01*
X252604Y63500D01*
X252604Y33072D01*
X232321Y12789D01*
X232320Y12786D01*
X232317Y12785D01*
X232284Y12700D01*
X232284Y1524D01*
X232285Y1522D01*
X232284Y1520D01*
X232304Y1477D01*
X232322Y1433D01*
X232324Y1433D01*
X232325Y1431D01*
X232410Y1398D01*
X291039Y1398D01*
X291040Y1398D01*
G37*
G36*
X17125Y2678D02*
X17125Y2678D01*
X17151Y2678D01*
X17168Y2696D01*
X17191Y2706D01*
X17201Y2731D01*
X17219Y2749D01*
X17218Y2775D01*
X17227Y2798D01*
X17216Y2822D01*
X17215Y2848D01*
X17195Y2867D01*
X17185Y2887D01*
X17165Y2895D01*
X17149Y2911D01*
X11019Y5450D01*
X6085Y10384D01*
X3414Y16831D01*
X3414Y23809D01*
X6085Y30256D01*
X8406Y32578D01*
X8407Y32579D01*
X8408Y32579D01*
X8425Y32625D01*
X8443Y32669D01*
X8443Y32670D01*
X8443Y32671D01*
X8423Y32715D01*
X8404Y32759D01*
X8402Y32759D01*
X8402Y32760D01*
X8317Y32793D01*
X6692Y32793D01*
X3583Y35902D01*
X3583Y40298D01*
X6692Y43407D01*
X11088Y43407D01*
X14197Y40298D01*
X14197Y36696D01*
X14207Y36671D01*
X14208Y36643D01*
X14226Y36627D01*
X14235Y36605D01*
X14260Y36595D01*
X14280Y36577D01*
X14306Y36577D01*
X14327Y36569D01*
X14346Y36578D01*
X14371Y36579D01*
X17466Y37861D01*
X24444Y37861D01*
X30891Y35190D01*
X35825Y30256D01*
X37630Y25898D01*
X37649Y25880D01*
X37659Y25856D01*
X37683Y25847D01*
X37701Y25829D01*
X37727Y25830D01*
X37751Y25820D01*
X37774Y25831D01*
X37799Y25831D01*
X37817Y25851D01*
X37840Y25862D01*
X37850Y25887D01*
X37866Y25904D01*
X37865Y25926D01*
X37873Y25947D01*
X37873Y30138D01*
X40982Y33247D01*
X45378Y33247D01*
X48487Y30138D01*
X48487Y25742D01*
X45694Y22949D01*
X45693Y22947D01*
X45691Y22946D01*
X45675Y22902D01*
X45657Y22858D01*
X45658Y22856D01*
X45657Y22854D01*
X45694Y22771D01*
X48487Y19978D01*
X48487Y15582D01*
X45694Y12789D01*
X45693Y12787D01*
X45691Y12786D01*
X45675Y12742D01*
X45657Y12698D01*
X45658Y12696D01*
X45657Y12694D01*
X45694Y12611D01*
X48487Y9818D01*
X48487Y5422D01*
X45948Y2883D01*
X45948Y2882D01*
X45947Y2882D01*
X45929Y2836D01*
X45911Y2792D01*
X45912Y2791D01*
X45911Y2790D01*
X45932Y2746D01*
X45951Y2702D01*
X45952Y2702D01*
X45952Y2701D01*
X46037Y2668D01*
X229616Y2668D01*
X229618Y2669D01*
X229620Y2668D01*
X229663Y2688D01*
X229707Y2706D01*
X229707Y2708D01*
X229709Y2709D01*
X229742Y2794D01*
X229742Y13805D01*
X250025Y34088D01*
X250027Y34091D01*
X250029Y34092D01*
X250062Y34177D01*
X250062Y64605D01*
X251549Y66092D01*
X251551Y66095D01*
X251553Y66096D01*
X251586Y66181D01*
X251586Y68528D01*
X253962Y70904D01*
X253964Y70907D01*
X253966Y70908D01*
X253999Y70993D01*
X253999Y72454D01*
X253998Y72457D01*
X253999Y72460D01*
X253962Y72543D01*
X253773Y72732D01*
X253773Y77128D01*
X256882Y80237D01*
X261278Y80237D01*
X262197Y79317D01*
X262199Y79317D01*
X262200Y79315D01*
X262245Y79298D01*
X262289Y79280D01*
X262291Y79281D01*
X262293Y79281D01*
X262376Y79317D01*
X272885Y89827D01*
X272887Y89830D01*
X272889Y89831D01*
X272922Y89916D01*
X272922Y259193D01*
X272921Y259196D01*
X272922Y259199D01*
X272885Y259282D01*
X269583Y262584D01*
X269582Y262584D01*
X269582Y262585D01*
X269536Y262603D01*
X269492Y262621D01*
X269491Y262621D01*
X269490Y262621D01*
X269446Y262601D01*
X269402Y262581D01*
X269402Y262580D01*
X269401Y262580D01*
X269368Y262495D01*
X269368Y202095D01*
X254165Y186892D01*
X254163Y186889D01*
X254161Y186888D01*
X254128Y186803D01*
X254128Y162725D01*
X246215Y154812D01*
X229616Y154812D01*
X229613Y154811D01*
X229610Y154812D01*
X229527Y154775D01*
X185684Y110932D01*
X185682Y110929D01*
X185680Y110928D01*
X185647Y110843D01*
X185647Y110832D01*
X182538Y107723D01*
X178142Y107723D01*
X177953Y107912D01*
X177950Y107914D01*
X177949Y107916D01*
X177864Y107949D01*
X175695Y107949D01*
X175605Y108039D01*
X175602Y108040D01*
X175601Y108043D01*
X175516Y108076D01*
X163882Y108076D01*
X162903Y109055D01*
X162900Y109057D01*
X162899Y109059D01*
X162814Y109092D01*
X162725Y109092D01*
X138302Y133515D01*
X138302Y153140D01*
X138301Y153143D01*
X138302Y153146D01*
X138265Y153229D01*
X138083Y153411D01*
X138083Y157807D01*
X138265Y157989D01*
X138267Y157992D01*
X138269Y157994D01*
X138302Y158079D01*
X138302Y161125D01*
X139789Y162612D01*
X139791Y162615D01*
X139793Y162616D01*
X139826Y162701D01*
X139826Y172466D01*
X139825Y172468D01*
X139826Y172470D01*
X139807Y172512D01*
X139788Y172557D01*
X139786Y172557D01*
X139785Y172559D01*
X139700Y172592D01*
X131967Y172592D01*
X131964Y172591D01*
X131961Y172592D01*
X131878Y172555D01*
X127165Y167842D01*
X127163Y167839D01*
X127161Y167838D01*
X127128Y167753D01*
X127128Y108966D01*
X127129Y108963D01*
X127128Y108960D01*
X127165Y108877D01*
X134277Y101765D01*
X134280Y101763D01*
X134281Y101761D01*
X134366Y101728D01*
X241135Y101728D01*
X241352Y101511D01*
X241355Y101510D01*
X241356Y101507D01*
X241441Y101474D01*
X242389Y101474D01*
X246387Y97671D01*
X246447Y96462D01*
X246448Y96459D01*
X246484Y96379D01*
X247778Y95085D01*
X247778Y83985D01*
X244005Y80212D01*
X243533Y79741D01*
X243533Y79739D01*
X243531Y79738D01*
X243439Y79642D01*
X243319Y79516D01*
X243319Y79515D01*
X243199Y79389D01*
X243079Y79263D01*
X242959Y79137D01*
X242839Y79011D01*
X242839Y79010D01*
X242719Y78884D01*
X242699Y78863D01*
X242622Y78829D01*
X242405Y78612D01*
X241617Y78612D01*
X241616Y78612D01*
X241615Y78612D01*
X241571Y78593D01*
X241527Y78574D01*
X241526Y78573D01*
X241525Y78572D01*
X241509Y78527D01*
X241491Y78482D01*
X241492Y78481D01*
X241491Y78480D01*
X241528Y78397D01*
X242797Y77128D01*
X242797Y72732D01*
X239688Y69623D01*
X235292Y69623D01*
X232183Y72732D01*
X232183Y77128D01*
X233452Y78397D01*
X233452Y78398D01*
X233453Y78398D01*
X233471Y78444D01*
X233489Y78488D01*
X233488Y78489D01*
X233489Y78490D01*
X233468Y78534D01*
X233449Y78578D01*
X233448Y78578D01*
X233448Y78579D01*
X233363Y78612D01*
X122030Y78612D01*
X122027Y78611D01*
X122024Y78612D01*
X121941Y78575D01*
X119038Y75672D01*
X117597Y75672D01*
X117594Y75671D01*
X117591Y75672D01*
X117508Y75635D01*
X106515Y64642D01*
X80026Y64642D01*
X80023Y64641D01*
X80020Y64642D01*
X79937Y64605D01*
X79797Y64466D01*
X77463Y63499D01*
X67500Y63499D01*
X67499Y63499D01*
X67498Y63499D01*
X67454Y63480D01*
X67410Y63461D01*
X67409Y63460D01*
X67408Y63459D01*
X67392Y63414D01*
X67374Y63369D01*
X67375Y63368D01*
X67374Y63367D01*
X67411Y63284D01*
X70077Y60618D01*
X70077Y58773D01*
X70078Y58771D01*
X70077Y58769D01*
X70097Y58726D01*
X70115Y58682D01*
X70117Y58682D01*
X70118Y58680D01*
X70203Y58647D01*
X72048Y58647D01*
X75157Y55538D01*
X75157Y51142D01*
X72048Y48033D01*
X67652Y48033D01*
X64543Y51142D01*
X64543Y52987D01*
X64542Y52989D01*
X64543Y52991D01*
X64523Y53034D01*
X64505Y53078D01*
X64503Y53078D01*
X64502Y53080D01*
X64417Y53113D01*
X62572Y53113D01*
X61049Y54636D01*
X61047Y54637D01*
X61046Y54639D01*
X61002Y54655D01*
X60958Y54673D01*
X60956Y54672D01*
X60954Y54673D01*
X60871Y54636D01*
X59348Y53113D01*
X54952Y53113D01*
X51843Y56222D01*
X51843Y60618D01*
X54952Y63727D01*
X59348Y63727D01*
X60871Y62204D01*
X60873Y62203D01*
X60874Y62201D01*
X60918Y62185D01*
X60962Y62167D01*
X60964Y62168D01*
X60966Y62167D01*
X61049Y62204D01*
X62572Y63727D01*
X64863Y63727D01*
X64887Y63737D01*
X64913Y63737D01*
X64930Y63755D01*
X64954Y63765D01*
X64963Y63790D01*
X64981Y63808D01*
X64980Y63834D01*
X64989Y63857D01*
X64978Y63881D01*
X64977Y63907D01*
X64957Y63926D01*
X64948Y63946D01*
X64927Y63954D01*
X64911Y63970D01*
X63713Y64466D01*
X63573Y64605D01*
X63570Y64607D01*
X63569Y64609D01*
X63484Y64642D01*
X2794Y64642D01*
X2792Y64641D01*
X2790Y64642D01*
X2747Y64622D01*
X2703Y64604D01*
X2703Y64602D01*
X2701Y64601D01*
X2668Y64516D01*
X2668Y12700D01*
X2670Y12694D01*
X2668Y12688D01*
X2859Y10755D01*
X2867Y10739D01*
X2868Y10719D01*
X4347Y7148D01*
X4363Y7132D01*
X4374Y7107D01*
X7107Y4374D01*
X7129Y4366D01*
X7148Y4347D01*
X10719Y2868D01*
X10737Y2868D01*
X10755Y2859D01*
X12688Y2668D01*
X12694Y2670D01*
X12700Y2668D01*
X17101Y2668D01*
X17125Y2678D01*
G37*
G36*
X123320Y100332D02*
X123320Y100332D01*
X123323Y100331D01*
X123406Y100368D01*
X124549Y101511D01*
X124551Y101514D01*
X124553Y101515D01*
X124586Y101600D01*
X124586Y168858D01*
X130862Y175134D01*
X132017Y175134D01*
X132020Y175135D01*
X132023Y175134D01*
X132106Y175171D01*
X132422Y175487D01*
X136818Y175487D01*
X137134Y175171D01*
X137137Y175170D01*
X137138Y175167D01*
X137223Y175134D01*
X213360Y175134D01*
X213363Y175135D01*
X213366Y175134D01*
X213449Y175171D01*
X245199Y206921D01*
X245201Y206924D01*
X245203Y206925D01*
X245236Y207010D01*
X245236Y210768D01*
X260312Y225844D01*
X260314Y225847D01*
X260316Y225848D01*
X260349Y225933D01*
X260349Y269367D01*
X260348Y269370D01*
X260349Y269373D01*
X260312Y269456D01*
X249009Y280759D01*
X249006Y280761D01*
X249005Y280763D01*
X248920Y280796D01*
X229922Y280796D01*
X224879Y285839D01*
X224876Y285841D01*
X224875Y285843D01*
X224790Y285876D01*
X161954Y285876D01*
X161951Y285875D01*
X161948Y285876D01*
X161865Y285839D01*
X160279Y284253D01*
X155883Y284253D01*
X154297Y285839D01*
X154294Y285841D01*
X154292Y285843D01*
X154207Y285876D01*
X110490Y285876D01*
X110487Y285875D01*
X110484Y285876D01*
X110401Y285839D01*
X97701Y273139D01*
X97700Y273136D01*
X97697Y273135D01*
X97664Y273050D01*
X97664Y261672D01*
X75555Y239563D01*
X75554Y239560D01*
X75551Y239559D01*
X75518Y239474D01*
X75518Y237471D01*
X72409Y234362D01*
X70406Y234362D01*
X70403Y234361D01*
X70400Y234362D01*
X70317Y234325D01*
X62494Y226502D01*
X62493Y226501D01*
X62492Y226501D01*
X62475Y226455D01*
X62457Y226411D01*
X62457Y226410D01*
X62457Y226409D01*
X62477Y226365D01*
X62497Y226321D01*
X62498Y226321D01*
X62498Y226320D01*
X62583Y226287D01*
X65698Y226287D01*
X68807Y223178D01*
X68807Y218782D01*
X65698Y215673D01*
X61302Y215673D01*
X61176Y215799D01*
X61175Y215799D01*
X61175Y215800D01*
X61129Y215818D01*
X61085Y215836D01*
X61084Y215835D01*
X61083Y215836D01*
X61038Y215815D01*
X60995Y215796D01*
X60995Y215795D01*
X60994Y215795D01*
X60961Y215710D01*
X60961Y151003D01*
X60962Y151000D01*
X60961Y150997D01*
X60998Y150914D01*
X92278Y119634D01*
X92279Y119633D01*
X92279Y119632D01*
X92325Y119615D01*
X92369Y119597D01*
X92370Y119597D01*
X92371Y119597D01*
X92415Y119617D01*
X92459Y119636D01*
X92460Y119638D01*
X92461Y119638D01*
X92493Y119723D01*
X92493Y192348D01*
X104620Y204475D01*
X104620Y204476D01*
X104621Y204476D01*
X104639Y204522D01*
X104657Y204566D01*
X104656Y204567D01*
X104657Y204568D01*
X104636Y204612D01*
X104617Y204656D01*
X104616Y204656D01*
X104615Y204657D01*
X104530Y204690D01*
X100672Y204690D01*
X97563Y207799D01*
X97563Y212195D01*
X100672Y215304D01*
X105068Y215304D01*
X105829Y214543D01*
X105830Y214543D01*
X105830Y214542D01*
X105875Y214524D01*
X105920Y214506D01*
X105921Y214507D01*
X105922Y214506D01*
X105967Y214527D01*
X106010Y214546D01*
X106010Y214547D01*
X106011Y214547D01*
X106044Y214632D01*
X106044Y222088D01*
X106043Y222091D01*
X106044Y222094D01*
X106007Y222177D01*
X105704Y222480D01*
X105702Y222481D01*
X105701Y222483D01*
X105656Y222500D01*
X105613Y222517D01*
X105611Y222517D01*
X105609Y222517D01*
X105525Y222480D01*
X103798Y220753D01*
X99402Y220753D01*
X96293Y223862D01*
X96293Y228258D01*
X99402Y231367D01*
X103798Y231367D01*
X106386Y228779D01*
X106388Y228778D01*
X106389Y228776D01*
X106434Y228759D01*
X106477Y228742D01*
X106479Y228743D01*
X106482Y228742D01*
X106565Y228779D01*
X108292Y230506D01*
X112688Y230506D01*
X114415Y228779D01*
X114417Y228778D01*
X114418Y228776D01*
X114463Y228759D01*
X114507Y228742D01*
X114509Y228743D01*
X114511Y228742D01*
X114594Y228779D01*
X115551Y229736D01*
X116487Y229736D01*
X116489Y229736D01*
X116491Y229736D01*
X116534Y229756D01*
X116578Y229774D01*
X116578Y229776D01*
X116580Y229777D01*
X116613Y229862D01*
X116613Y232068D01*
X119722Y235177D01*
X124118Y235177D01*
X127227Y232068D01*
X127227Y227672D01*
X124118Y224563D01*
X123182Y224563D01*
X123180Y224562D01*
X123178Y224563D01*
X123135Y224543D01*
X123091Y224525D01*
X123090Y224523D01*
X123088Y224522D01*
X123056Y224437D01*
X123056Y222231D01*
X121064Y220240D01*
X121064Y220239D01*
X121063Y220238D01*
X121045Y220193D01*
X121027Y220148D01*
X121028Y220147D01*
X121027Y220146D01*
X121048Y220102D01*
X121067Y220058D01*
X121068Y220058D01*
X121069Y220057D01*
X121154Y220024D01*
X121491Y220024D01*
X124599Y216915D01*
X124599Y212519D01*
X123579Y211499D01*
X123579Y211498D01*
X123578Y211498D01*
X123560Y211452D01*
X123542Y211408D01*
X123543Y211407D01*
X123542Y211406D01*
X123563Y211362D01*
X123582Y211318D01*
X123583Y211317D01*
X123584Y211316D01*
X123669Y211284D01*
X126173Y211284D01*
X129281Y208175D01*
X129281Y206093D01*
X129282Y206091D01*
X129281Y206089D01*
X129301Y206046D01*
X129320Y206002D01*
X129322Y206002D01*
X129323Y206000D01*
X129408Y205967D01*
X131738Y205967D01*
X134847Y202858D01*
X134847Y198473D01*
X134848Y198471D01*
X134847Y198469D01*
X134867Y198426D01*
X134885Y198382D01*
X134887Y198382D01*
X134888Y198380D01*
X134973Y198347D01*
X139358Y198347D01*
X142467Y195238D01*
X142467Y192123D01*
X142468Y192121D01*
X142467Y192119D01*
X142487Y192076D01*
X142505Y192032D01*
X142507Y192032D01*
X142508Y192030D01*
X142593Y191997D01*
X143168Y191997D01*
X144270Y190895D01*
X144272Y190894D01*
X144273Y190892D01*
X144317Y190876D01*
X144361Y190858D01*
X144363Y190859D01*
X144365Y190858D01*
X144448Y190895D01*
X145971Y192418D01*
X148846Y192418D01*
X148848Y192418D01*
X148850Y192418D01*
X148893Y192438D01*
X148937Y192456D01*
X148937Y192458D01*
X148939Y192459D01*
X148972Y192544D01*
X148972Y192812D01*
X152081Y195920D01*
X156477Y195920D01*
X159586Y192812D01*
X159586Y188415D01*
X156477Y185307D01*
X153602Y185307D01*
X153600Y185306D01*
X153598Y185307D01*
X153555Y185287D01*
X153511Y185268D01*
X153511Y185266D01*
X153509Y185265D01*
X153476Y185181D01*
X153476Y184913D01*
X150367Y181804D01*
X145971Y181804D01*
X144869Y182906D01*
X144867Y182907D01*
X144866Y182909D01*
X144822Y182925D01*
X144778Y182943D01*
X144776Y182942D01*
X144774Y182943D01*
X144691Y182906D01*
X143168Y181383D01*
X138772Y181383D01*
X135663Y184492D01*
X135663Y187607D01*
X135662Y187609D01*
X135663Y187611D01*
X135643Y187654D01*
X135625Y187698D01*
X135623Y187698D01*
X135622Y187700D01*
X135537Y187733D01*
X134962Y187733D01*
X131853Y190842D01*
X131853Y195227D01*
X131852Y195229D01*
X131853Y195231D01*
X131833Y195274D01*
X131815Y195318D01*
X131813Y195318D01*
X131812Y195320D01*
X131727Y195353D01*
X127342Y195353D01*
X124233Y198462D01*
X124233Y200544D01*
X124232Y200546D01*
X124233Y200548D01*
X124213Y200591D01*
X124195Y200635D01*
X124193Y200635D01*
X124192Y200637D01*
X124107Y200670D01*
X121776Y200670D01*
X118668Y203779D01*
X118668Y208175D01*
X119688Y209195D01*
X119688Y209196D01*
X119689Y209196D01*
X119707Y209242D01*
X119725Y209286D01*
X119724Y209287D01*
X119725Y209288D01*
X119704Y209333D01*
X119685Y209376D01*
X119684Y209377D01*
X119684Y209378D01*
X119599Y209411D01*
X117095Y209411D01*
X115151Y211354D01*
X115150Y211354D01*
X115150Y211355D01*
X115104Y211373D01*
X115060Y211391D01*
X115059Y211390D01*
X115058Y211391D01*
X115014Y211370D01*
X114970Y211351D01*
X114970Y211350D01*
X114969Y211350D01*
X114936Y211265D01*
X114936Y202216D01*
X101422Y188702D01*
X101421Y188699D01*
X101418Y188698D01*
X101385Y188613D01*
X101385Y110579D01*
X101386Y110576D01*
X101385Y110573D01*
X101422Y110490D01*
X111544Y100368D01*
X111547Y100366D01*
X111548Y100364D01*
X111633Y100331D01*
X123317Y100331D01*
X123320Y100332D01*
G37*
G36*
X105413Y67185D02*
X105413Y67185D01*
X105416Y67184D01*
X105499Y67221D01*
X114207Y75929D01*
X114208Y75931D01*
X114210Y75931D01*
X114226Y75976D01*
X114244Y76020D01*
X114243Y76022D01*
X114244Y76024D01*
X114207Y76107D01*
X111533Y78781D01*
X111533Y83177D01*
X114642Y86286D01*
X119038Y86286D01*
X122147Y83177D01*
X122147Y81280D01*
X122148Y81278D01*
X122147Y81276D01*
X122167Y81233D01*
X122185Y81189D01*
X122187Y81189D01*
X122188Y81187D01*
X122273Y81154D01*
X241300Y81154D01*
X241303Y81155D01*
X241306Y81154D01*
X241389Y81191D01*
X245199Y85001D01*
X245201Y85004D01*
X245203Y85005D01*
X245236Y85090D01*
X245236Y93980D01*
X245235Y93983D01*
X245236Y93986D01*
X245199Y94069D01*
X240119Y99149D01*
X240116Y99151D01*
X240115Y99153D01*
X240030Y99186D01*
X125871Y99186D01*
X125868Y99185D01*
X125865Y99186D01*
X125782Y99149D01*
X125528Y98895D01*
X124295Y97662D01*
X110655Y97662D01*
X109168Y99149D01*
X109165Y99151D01*
X109164Y99153D01*
X109079Y99186D01*
X96520Y99186D01*
X96517Y99185D01*
X96514Y99186D01*
X96431Y99149D01*
X76148Y78866D01*
X71172Y78866D01*
X68706Y81332D01*
X68706Y100278D01*
X82639Y114211D01*
X82641Y114214D01*
X82643Y114215D01*
X82676Y114300D01*
X82676Y125589D01*
X82675Y125592D01*
X82676Y125595D01*
X82639Y125678D01*
X58292Y150025D01*
X58292Y218631D01*
X58291Y218634D01*
X58292Y218637D01*
X58255Y218720D01*
X58193Y218782D01*
X58193Y223178D01*
X58255Y223240D01*
X58256Y223243D01*
X58259Y223244D01*
X58292Y223329D01*
X58292Y225895D01*
X59892Y227495D01*
X67297Y234900D01*
X67298Y234902D01*
X67300Y234903D01*
X67316Y234947D01*
X67334Y234991D01*
X67333Y234993D01*
X67334Y234995D01*
X67297Y235078D01*
X64904Y237471D01*
X64904Y239677D01*
X64904Y239679D01*
X64904Y239681D01*
X64884Y239724D01*
X64866Y239768D01*
X64864Y239768D01*
X64863Y239770D01*
X64778Y239803D01*
X63842Y239803D01*
X60733Y242912D01*
X60733Y247308D01*
X62065Y248640D01*
X62067Y248643D01*
X62069Y248645D01*
X62102Y248729D01*
X62102Y250428D01*
X64409Y252734D01*
X64536Y252734D01*
X64539Y252736D01*
X64542Y252735D01*
X64626Y252771D01*
X90259Y278405D01*
X90261Y278408D01*
X90263Y278410D01*
X90296Y278494D01*
X90296Y303608D01*
X90285Y303633D01*
X90284Y303661D01*
X90266Y303679D01*
X90258Y303698D01*
X90237Y303706D01*
X90218Y303724D01*
X86954Y305076D01*
X84096Y307934D01*
X82549Y311669D01*
X82549Y315711D01*
X84096Y319446D01*
X86954Y322304D01*
X90218Y323656D01*
X90238Y323676D01*
X90263Y323688D01*
X90272Y323711D01*
X90287Y323726D01*
X90287Y323748D01*
X90296Y323772D01*
X90296Y330200D01*
X90295Y330203D01*
X90296Y330206D01*
X90259Y330289D01*
X85433Y335115D01*
X85430Y335117D01*
X85429Y335119D01*
X85344Y335152D01*
X80445Y335152D01*
X80417Y335140D01*
X80371Y335128D01*
X78941Y334090D01*
X70486Y331342D01*
X39687Y331342D01*
X39686Y331342D01*
X39685Y331342D01*
X39642Y331323D01*
X39597Y331304D01*
X39596Y331303D01*
X39595Y331302D01*
X39579Y331257D01*
X39561Y331212D01*
X39562Y331211D01*
X39561Y331210D01*
X39597Y331130D01*
X39597Y328013D01*
X39597Y328012D01*
X39597Y328011D01*
X39597Y328009D01*
X39617Y327966D01*
X39635Y327922D01*
X39637Y327922D01*
X39638Y327920D01*
X39723Y327887D01*
X41568Y327887D01*
X44677Y324778D01*
X44677Y320382D01*
X43507Y319212D01*
X43507Y319211D01*
X43506Y319211D01*
X43488Y319165D01*
X43470Y319121D01*
X43471Y319120D01*
X43470Y319119D01*
X43491Y319075D01*
X43510Y319031D01*
X43511Y319031D01*
X43511Y319030D01*
X43596Y318997D01*
X44108Y318997D01*
X47217Y315888D01*
X47217Y311492D01*
X44108Y308383D01*
X39712Y308383D01*
X38711Y309384D01*
X38710Y309384D01*
X38710Y309385D01*
X38664Y309403D01*
X38620Y309421D01*
X38619Y309420D01*
X38618Y309421D01*
X38574Y309400D01*
X38530Y309381D01*
X38530Y309380D01*
X38529Y309380D01*
X38496Y309295D01*
X38496Y308931D01*
X35825Y302484D01*
X30891Y297550D01*
X24444Y294879D01*
X17466Y294879D01*
X11831Y297213D01*
X11804Y297213D01*
X11779Y297223D01*
X11757Y297213D01*
X11733Y297212D01*
X11714Y297193D01*
X11690Y297181D01*
X11680Y297157D01*
X11665Y297141D01*
X11666Y297120D01*
X11657Y297097D01*
X11657Y293712D01*
X8548Y290603D01*
X4152Y290603D01*
X2883Y291872D01*
X2882Y291872D01*
X2882Y291873D01*
X2880Y291874D01*
X2879Y291876D01*
X2794Y291909D01*
X2793Y291908D01*
X2792Y291909D01*
X2791Y291908D01*
X2790Y291909D01*
X2746Y291888D01*
X2741Y291887D01*
X2703Y291870D01*
X2703Y291869D01*
X2702Y291869D01*
X2702Y291868D01*
X2701Y291868D01*
X2668Y291783D01*
X2668Y237068D01*
X2668Y237067D01*
X2668Y237066D01*
X2687Y237022D01*
X2706Y236978D01*
X2707Y236977D01*
X2708Y236976D01*
X2753Y236959D01*
X2798Y236942D01*
X2799Y236943D01*
X2800Y236942D01*
X2880Y236978D01*
X7278Y236978D01*
X10387Y233869D01*
X10387Y229473D01*
X7278Y226364D01*
X2882Y226364D01*
X2837Y226382D01*
X2792Y226400D01*
X2791Y226399D01*
X2790Y226400D01*
X2746Y226379D01*
X2702Y226360D01*
X2702Y226359D01*
X2701Y226358D01*
X2668Y226274D01*
X2668Y81597D01*
X2668Y81596D01*
X2668Y81595D01*
X2687Y81551D01*
X2706Y81507D01*
X2707Y81506D01*
X2708Y81505D01*
X2753Y81489D01*
X2798Y81471D01*
X2799Y81472D01*
X2800Y81471D01*
X2883Y81508D01*
X4152Y82777D01*
X8548Y82777D01*
X11657Y79668D01*
X11657Y75272D01*
X8548Y72163D01*
X4152Y72163D01*
X2883Y73432D01*
X2882Y73432D01*
X2882Y73433D01*
X2836Y73451D01*
X2792Y73469D01*
X2791Y73468D01*
X2790Y73469D01*
X2746Y73448D01*
X2702Y73429D01*
X2702Y73428D01*
X2701Y73428D01*
X2668Y73343D01*
X2668Y67310D01*
X2669Y67308D01*
X2668Y67306D01*
X2688Y67263D01*
X2706Y67219D01*
X2708Y67219D01*
X2709Y67217D01*
X2794Y67184D01*
X105410Y67184D01*
X105413Y67185D01*
G37*
G36*
X180343Y111635D02*
X180343Y111635D01*
X180346Y111634D01*
X180429Y111671D01*
X226112Y157354D01*
X245110Y157354D01*
X245113Y157355D01*
X245116Y157354D01*
X245199Y157391D01*
X251549Y163741D01*
X251551Y163744D01*
X251553Y163745D01*
X251586Y163830D01*
X251586Y165037D01*
X251586Y165038D01*
X251586Y165039D01*
X251567Y165083D01*
X251548Y165127D01*
X251547Y165128D01*
X251546Y165129D01*
X251501Y165145D01*
X251456Y165163D01*
X251455Y165162D01*
X251454Y165163D01*
X251371Y165126D01*
X248578Y162333D01*
X244182Y162333D01*
X241073Y165442D01*
X241073Y169838D01*
X243866Y172631D01*
X243867Y172633D01*
X243869Y172634D01*
X243885Y172678D01*
X243903Y172722D01*
X243902Y172724D01*
X243903Y172726D01*
X243866Y172809D01*
X242343Y174332D01*
X242343Y178728D01*
X245452Y181837D01*
X249848Y181837D01*
X251371Y180314D01*
X251372Y180314D01*
X251372Y180313D01*
X251418Y180295D01*
X251462Y180277D01*
X251463Y180278D01*
X251464Y180277D01*
X251508Y180298D01*
X251552Y180317D01*
X251552Y180318D01*
X251553Y180318D01*
X251586Y180403D01*
X251586Y187908D01*
X266789Y203111D01*
X266791Y203114D01*
X266793Y203115D01*
X266826Y203200D01*
X266826Y211987D01*
X266825Y211990D01*
X266826Y211993D01*
X266789Y212076D01*
X265175Y213690D01*
X265175Y266940D01*
X265174Y266943D01*
X265175Y266946D01*
X265138Y267029D01*
X263332Y268835D01*
X263331Y268835D01*
X263331Y268836D01*
X263285Y268854D01*
X263241Y268872D01*
X263240Y268872D01*
X263239Y268872D01*
X263195Y268852D01*
X263151Y268832D01*
X263151Y268831D01*
X263150Y268831D01*
X263117Y268746D01*
X263117Y267042D01*
X263055Y266980D01*
X263053Y266977D01*
X263051Y266975D01*
X263018Y266891D01*
X263018Y263719D01*
X263019Y263716D01*
X263018Y263712D01*
X263055Y263629D01*
X263117Y263567D01*
X263117Y259171D01*
X263055Y259109D01*
X263053Y259106D01*
X263051Y259105D01*
X263018Y259020D01*
X263018Y224955D01*
X261531Y223468D01*
X261530Y223465D01*
X261527Y223464D01*
X261494Y223379D01*
X261494Y219762D01*
X247815Y206083D01*
X247813Y206080D01*
X247811Y206079D01*
X247778Y205994D01*
X247778Y205905D01*
X246178Y204305D01*
X216065Y174192D01*
X214465Y172592D01*
X214376Y172592D01*
X214373Y172591D01*
X214370Y172592D01*
X214287Y172555D01*
X213308Y171576D01*
X204533Y171576D01*
X204532Y171576D01*
X204531Y171576D01*
X204487Y171557D01*
X204443Y171538D01*
X204442Y171537D01*
X204441Y171536D01*
X204425Y171491D01*
X204407Y171446D01*
X204408Y171445D01*
X204407Y171444D01*
X204444Y171361D01*
X205967Y169838D01*
X205967Y165442D01*
X202858Y162333D01*
X198462Y162333D01*
X195353Y165442D01*
X195353Y169838D01*
X196876Y171361D01*
X196876Y171362D01*
X196877Y171362D01*
X196895Y171408D01*
X196913Y171452D01*
X196912Y171453D01*
X196913Y171454D01*
X196892Y171498D01*
X196873Y171542D01*
X196872Y171542D01*
X196872Y171543D01*
X196787Y171576D01*
X152400Y171576D01*
X152397Y171575D01*
X152394Y171576D01*
X152311Y171539D01*
X140881Y160109D01*
X140880Y160106D01*
X140877Y160105D01*
X140844Y160020D01*
X140844Y134620D01*
X140845Y134617D01*
X140844Y134614D01*
X140881Y134531D01*
X163741Y111671D01*
X163744Y111670D01*
X163745Y111667D01*
X163830Y111634D01*
X180340Y111634D01*
X180343Y111635D01*
G37*
G36*
X248526Y283338D02*
X248526Y283338D01*
X248527Y283338D01*
X248571Y283357D01*
X248615Y283376D01*
X248616Y283377D01*
X248617Y283378D01*
X248633Y283423D01*
X248651Y283468D01*
X248650Y283469D01*
X248651Y283470D01*
X248614Y283553D01*
X238708Y293459D01*
X238705Y293461D01*
X238704Y293463D01*
X238619Y293496D01*
X231192Y293496D01*
X229837Y294851D01*
X229834Y294852D01*
X229833Y294855D01*
X229748Y294888D01*
X228427Y294888D01*
X225265Y298050D01*
X223506Y299809D01*
X223503Y299811D01*
X223502Y299813D01*
X223417Y299846D01*
X215952Y299846D01*
X211363Y304435D01*
X211362Y304436D01*
X211362Y304437D01*
X211316Y304454D01*
X211272Y304472D01*
X211271Y304472D01*
X211270Y304472D01*
X211226Y304452D01*
X211182Y304433D01*
X211181Y304431D01*
X211180Y304431D01*
X211148Y304346D01*
X211148Y300062D01*
X208039Y296953D01*
X203643Y296953D01*
X200534Y300062D01*
X200534Y304458D01*
X203073Y306997D01*
X203073Y306998D01*
X203074Y306998D01*
X203092Y307044D01*
X203110Y307088D01*
X203109Y307089D01*
X203110Y307090D01*
X203089Y307134D01*
X203070Y307178D01*
X203069Y307178D01*
X203068Y307179D01*
X202984Y307212D01*
X160185Y307212D01*
X159968Y307429D01*
X159965Y307431D01*
X159964Y307433D01*
X159879Y307466D01*
X158802Y307466D01*
X152526Y313742D01*
X152526Y314819D01*
X152525Y314822D01*
X152526Y314825D01*
X152489Y314908D01*
X152272Y315125D01*
X152272Y326225D01*
X152489Y326442D01*
X152491Y326445D01*
X152493Y326446D01*
X152526Y326531D01*
X152526Y332740D01*
X152525Y332743D01*
X152526Y332746D01*
X152489Y332829D01*
X150203Y335115D01*
X150200Y335117D01*
X150199Y335119D01*
X150114Y335152D01*
X133096Y335152D01*
X133093Y335151D01*
X133090Y335152D01*
X133007Y335115D01*
X129451Y331559D01*
X129450Y331556D01*
X129447Y331555D01*
X129414Y331470D01*
X129414Y297180D01*
X129415Y297177D01*
X129414Y297174D01*
X129451Y297091D01*
X133261Y293281D01*
X133264Y293280D01*
X133265Y293277D01*
X133350Y293244D01*
X154207Y293244D01*
X154210Y293245D01*
X154214Y293244D01*
X154297Y293281D01*
X155883Y294867D01*
X160279Y294867D01*
X161865Y293281D01*
X161868Y293280D01*
X161869Y293277D01*
X161954Y293244D01*
X223468Y293244D01*
X224348Y292364D01*
X224351Y292362D01*
X224352Y292360D01*
X224437Y292327D01*
X224448Y292327D01*
X227557Y289218D01*
X227557Y289207D01*
X227558Y289204D01*
X227557Y289201D01*
X227594Y289118D01*
X233337Y283375D01*
X233340Y283373D01*
X233341Y283371D01*
X233426Y283338D01*
X248525Y283338D01*
X248526Y283338D01*
G37*
G36*
X156212Y337695D02*
X156212Y337695D01*
X156214Y337694D01*
X156257Y337714D01*
X156301Y337732D01*
X156301Y337734D01*
X156303Y337735D01*
X156336Y337820D01*
X156336Y357886D01*
X156335Y357888D01*
X156336Y357890D01*
X156316Y357933D01*
X156298Y357977D01*
X156296Y357977D01*
X156295Y357979D01*
X156210Y358012D01*
X154815Y358012D01*
X152398Y359408D01*
X151002Y361825D01*
X151002Y364780D01*
X150991Y364805D01*
X150975Y364859D01*
X150897Y364956D01*
X151001Y365901D01*
X150999Y365907D01*
X151002Y365915D01*
X151002Y366874D01*
X151030Y366944D01*
X151041Y367774D01*
X151034Y367790D01*
X151036Y367810D01*
X150090Y371073D01*
X150076Y371091D01*
X150068Y371117D01*
X147945Y373770D01*
X147925Y373780D01*
X147908Y373801D01*
X144954Y375428D01*
X144926Y375431D01*
X144895Y375443D01*
X144893Y375443D01*
X144877Y375436D01*
X144876Y375436D01*
X144856Y375438D01*
X144855Y375437D01*
X144827Y375415D01*
X144802Y375404D01*
X144797Y375391D01*
X144785Y375382D01*
X143464Y373158D01*
X136396Y367325D01*
X127772Y364225D01*
X118608Y364225D01*
X109984Y367325D01*
X102916Y373158D01*
X101530Y375492D01*
X101507Y375509D01*
X101491Y375533D01*
X101467Y375538D01*
X101450Y375550D01*
X101428Y375547D01*
X101402Y375552D01*
X101198Y375521D01*
X101183Y375512D01*
X101162Y375510D01*
X97892Y373950D01*
X97877Y373932D01*
X97852Y373920D01*
X95428Y371226D01*
X95421Y371205D01*
X95403Y371184D01*
X94194Y367768D01*
X94195Y367750D01*
X94187Y367731D01*
X94108Y365997D01*
X94109Y365995D01*
X94108Y365992D01*
X94108Y365833D01*
X94109Y365830D01*
X94108Y365827D01*
X94162Y364797D01*
X94140Y364772D01*
X94138Y364767D01*
X94108Y364688D01*
X94108Y354964D01*
X91360Y346509D01*
X86134Y339316D01*
X84216Y337922D01*
X84210Y337912D01*
X84200Y337908D01*
X84186Y337871D01*
X84165Y337838D01*
X84168Y337827D01*
X84164Y337816D01*
X84181Y337780D01*
X84191Y337743D01*
X84201Y337737D01*
X84205Y337727D01*
X84250Y337709D01*
X84277Y337695D01*
X84284Y337696D01*
X84290Y337694D01*
X156210Y337694D01*
X156212Y337695D01*
G37*
%LPC*%
G36*
X300588Y291873D02*
X300588Y291873D01*
X298223Y294238D01*
X298223Y297582D01*
X300588Y299947D01*
X302213Y299947D01*
X302214Y299947D01*
X302215Y299947D01*
X302259Y299966D01*
X302304Y299985D01*
X302304Y299986D01*
X302305Y299987D01*
X302322Y300032D01*
X302339Y300077D01*
X302339Y300078D01*
X302339Y300079D01*
X302302Y300162D01*
X299261Y303203D01*
X298920Y304028D01*
X298917Y304031D01*
X298917Y304036D01*
X296784Y309183D01*
X296784Y309821D01*
X296784Y309822D01*
X296784Y309823D01*
X296765Y309867D01*
X296746Y309911D01*
X296745Y309912D01*
X296744Y309913D01*
X296699Y309929D01*
X296654Y309947D01*
X296653Y309946D01*
X296652Y309947D01*
X296569Y309910D01*
X295042Y308383D01*
X291698Y308383D01*
X289333Y310748D01*
X289333Y314092D01*
X291029Y315788D01*
X291029Y315789D01*
X291030Y315789D01*
X291048Y315835D01*
X291066Y315879D01*
X291065Y315880D01*
X291066Y315881D01*
X291046Y315925D01*
X291026Y315969D01*
X291025Y315969D01*
X291025Y315970D01*
X290940Y316003D01*
X289158Y316003D01*
X286793Y318368D01*
X286793Y321712D01*
X289158Y324077D01*
X292210Y324077D01*
X292211Y324077D01*
X292212Y324077D01*
X292256Y324096D01*
X292300Y324115D01*
X292301Y324116D01*
X292302Y324117D01*
X292318Y324162D01*
X292336Y324207D01*
X292335Y324208D01*
X292336Y324209D01*
X292299Y324292D01*
X290603Y325988D01*
X290603Y329332D01*
X292968Y331697D01*
X296312Y331697D01*
X298677Y329332D01*
X298677Y325988D01*
X296312Y323623D01*
X293260Y323623D01*
X293259Y323623D01*
X293258Y323623D01*
X293214Y323604D01*
X293170Y323585D01*
X293169Y323584D01*
X293168Y323583D01*
X293152Y323538D01*
X293134Y323493D01*
X293135Y323492D01*
X293134Y323491D01*
X293171Y323408D01*
X294867Y321712D01*
X294867Y318368D01*
X293171Y316672D01*
X293171Y316671D01*
X293170Y316671D01*
X293152Y316625D01*
X293134Y316581D01*
X293135Y316580D01*
X293134Y316579D01*
X293155Y316535D01*
X293174Y316491D01*
X293175Y316491D01*
X293175Y316490D01*
X293260Y316457D01*
X295042Y316457D01*
X296569Y314930D01*
X296570Y314930D01*
X296570Y314929D01*
X296616Y314911D01*
X296660Y314893D01*
X296661Y314894D01*
X296662Y314893D01*
X296706Y314914D01*
X296750Y314933D01*
X296750Y314934D01*
X296751Y314934D01*
X296784Y315019D01*
X296784Y315657D01*
X299261Y321637D01*
X303838Y326214D01*
X309818Y328691D01*
X316292Y328691D01*
X322272Y326214D01*
X326849Y321637D01*
X329326Y315657D01*
X329326Y309183D01*
X326849Y303203D01*
X322272Y298626D01*
X316292Y296149D01*
X309818Y296149D01*
X306471Y297536D01*
X306444Y297536D01*
X306419Y297545D01*
X306397Y297535D01*
X306373Y297535D01*
X306354Y297515D01*
X306330Y297504D01*
X306320Y297480D01*
X306305Y297464D01*
X306306Y297442D01*
X306297Y297419D01*
X306297Y294238D01*
X303932Y291873D01*
X300588Y291873D01*
G37*
%LPD*%
%LPC*%
G36*
X309818Y4049D02*
X309818Y4049D01*
X303838Y6526D01*
X299261Y11103D01*
X296784Y17083D01*
X296784Y23557D01*
X299261Y29537D01*
X303838Y34114D01*
X309818Y36591D01*
X316292Y36591D01*
X322272Y34114D01*
X326849Y29537D01*
X329326Y23557D01*
X329326Y17083D01*
X326849Y11103D01*
X322272Y6526D01*
X316292Y4049D01*
X309818Y4049D01*
G37*
%LPD*%
%LPC*%
G36*
X208622Y44223D02*
X208622Y44223D01*
X205513Y47332D01*
X205513Y51728D01*
X208622Y54837D01*
X213007Y54837D01*
X213009Y54838D01*
X213011Y54837D01*
X213054Y54857D01*
X213098Y54875D01*
X213098Y54877D01*
X213100Y54878D01*
X213133Y54963D01*
X213133Y59348D01*
X214656Y60871D01*
X214657Y60873D01*
X214659Y60874D01*
X214675Y60918D01*
X214693Y60962D01*
X214692Y60964D01*
X214693Y60966D01*
X214656Y61049D01*
X213133Y62572D01*
X213133Y66968D01*
X216242Y70077D01*
X220638Y70077D01*
X223747Y66968D01*
X223747Y62572D01*
X222224Y61049D01*
X222223Y61047D01*
X222221Y61046D01*
X222205Y61002D01*
X222187Y60958D01*
X222188Y60956D01*
X222187Y60954D01*
X222224Y60871D01*
X223747Y59348D01*
X223747Y58773D01*
X223748Y58771D01*
X223747Y58769D01*
X223767Y58726D01*
X223785Y58682D01*
X223787Y58682D01*
X223788Y58680D01*
X223873Y58647D01*
X228258Y58647D01*
X231367Y55538D01*
X231367Y51142D01*
X228258Y48033D01*
X223873Y48033D01*
X223871Y48032D01*
X223869Y48033D01*
X223826Y48013D01*
X223782Y47995D01*
X223782Y47993D01*
X223780Y47992D01*
X223747Y47907D01*
X223747Y47332D01*
X220638Y44223D01*
X216242Y44223D01*
X214719Y45746D01*
X214717Y45747D01*
X214716Y45749D01*
X214672Y45765D01*
X214628Y45783D01*
X214626Y45782D01*
X214624Y45783D01*
X214541Y45746D01*
X213018Y44223D01*
X208622Y44223D01*
G37*
%LPD*%
%LPC*%
G36*
X65289Y303529D02*
X65289Y303529D01*
X61554Y305076D01*
X58696Y307934D01*
X57149Y311669D01*
X57149Y315711D01*
X58696Y319446D01*
X61554Y322304D01*
X65289Y323851D01*
X69331Y323851D01*
X73066Y322304D01*
X75924Y319446D01*
X77471Y315711D01*
X77471Y311669D01*
X75924Y307934D01*
X73066Y305076D01*
X69331Y303529D01*
X65289Y303529D01*
G37*
%LPD*%
%LPC*%
G36*
X14489Y183514D02*
X14489Y183514D01*
X10754Y185061D01*
X7896Y187919D01*
X6349Y191654D01*
X6349Y195696D01*
X7896Y199431D01*
X10754Y202289D01*
X14489Y203836D01*
X18531Y203836D01*
X22266Y202289D01*
X25124Y199431D01*
X26671Y195696D01*
X26671Y191654D01*
X25124Y187919D01*
X22266Y185061D01*
X18531Y183514D01*
X14489Y183514D01*
G37*
%LPD*%
%LPC*%
G36*
X14489Y81914D02*
X14489Y81914D01*
X10754Y83461D01*
X7896Y86319D01*
X6349Y90054D01*
X6349Y94096D01*
X7896Y97831D01*
X10754Y100689D01*
X14489Y102236D01*
X18531Y102236D01*
X22266Y100689D01*
X25124Y97831D01*
X26671Y94096D01*
X26671Y90054D01*
X25124Y86319D01*
X22266Y83461D01*
X18531Y81914D01*
X14489Y81914D01*
G37*
%LPD*%
%LPC*%
G36*
X14489Y158114D02*
X14489Y158114D01*
X10754Y159661D01*
X7896Y162519D01*
X6349Y166254D01*
X6349Y170296D01*
X7896Y174031D01*
X10754Y176889D01*
X14489Y178436D01*
X18531Y178436D01*
X22266Y176889D01*
X25124Y174031D01*
X26671Y170296D01*
X26671Y166254D01*
X25124Y162519D01*
X22266Y159661D01*
X18531Y158114D01*
X14489Y158114D01*
G37*
%LPD*%
%LPC*%
G36*
X39889Y183514D02*
X39889Y183514D01*
X36154Y185061D01*
X33296Y187919D01*
X31749Y191654D01*
X31749Y195696D01*
X33296Y199431D01*
X36154Y202289D01*
X39889Y203836D01*
X43931Y203836D01*
X47666Y202289D01*
X50524Y199431D01*
X52071Y195696D01*
X52071Y191654D01*
X50524Y187919D01*
X47666Y185061D01*
X43931Y183514D01*
X39889Y183514D01*
G37*
%LPD*%
%LPC*%
G36*
X39889Y158114D02*
X39889Y158114D01*
X36154Y159661D01*
X33296Y162519D01*
X31749Y166254D01*
X31749Y170296D01*
X33296Y174031D01*
X36154Y176889D01*
X39889Y178436D01*
X43931Y178436D01*
X47666Y176889D01*
X50524Y174031D01*
X52071Y170296D01*
X52071Y166254D01*
X50524Y162519D01*
X47666Y159661D01*
X43931Y158114D01*
X39889Y158114D01*
G37*
%LPD*%
%LPC*%
G36*
X14489Y208914D02*
X14489Y208914D01*
X10754Y210461D01*
X7896Y213319D01*
X6349Y217054D01*
X6349Y221096D01*
X7896Y224831D01*
X10754Y227689D01*
X14489Y229236D01*
X18531Y229236D01*
X22266Y227689D01*
X25124Y224831D01*
X26671Y221096D01*
X26671Y217054D01*
X25124Y213319D01*
X22266Y210461D01*
X18531Y208914D01*
X14489Y208914D01*
G37*
%LPD*%
%LPC*%
G36*
X39889Y208914D02*
X39889Y208914D01*
X36154Y210461D01*
X33296Y213319D01*
X31749Y217054D01*
X31749Y221096D01*
X33296Y224831D01*
X36154Y227689D01*
X39889Y229236D01*
X43931Y229236D01*
X47666Y227689D01*
X50524Y224831D01*
X52071Y221096D01*
X52071Y217054D01*
X50524Y213319D01*
X47666Y210461D01*
X43931Y208914D01*
X39889Y208914D01*
G37*
%LPD*%
%LPC*%
G36*
X39889Y132714D02*
X39889Y132714D01*
X36154Y134261D01*
X33296Y137119D01*
X31749Y140854D01*
X31749Y144896D01*
X33296Y148631D01*
X36154Y151489D01*
X39889Y153036D01*
X43931Y153036D01*
X47666Y151489D01*
X50524Y148631D01*
X52071Y144896D01*
X52071Y140854D01*
X50524Y137119D01*
X47666Y134261D01*
X43931Y132714D01*
X39889Y132714D01*
G37*
%LPD*%
%LPC*%
G36*
X14489Y132714D02*
X14489Y132714D01*
X10754Y134261D01*
X7896Y137119D01*
X6349Y140854D01*
X6349Y144896D01*
X7896Y148631D01*
X10754Y151489D01*
X14489Y153036D01*
X18531Y153036D01*
X22266Y151489D01*
X25124Y148631D01*
X26671Y144896D01*
X26671Y140854D01*
X25124Y137119D01*
X22266Y134261D01*
X18531Y132714D01*
X14489Y132714D01*
G37*
%LPD*%
%LPC*%
G36*
X14489Y107314D02*
X14489Y107314D01*
X10754Y108861D01*
X7896Y111719D01*
X6349Y115454D01*
X6349Y119496D01*
X7896Y123231D01*
X10754Y126089D01*
X14489Y127636D01*
X18531Y127636D01*
X22266Y126089D01*
X25124Y123231D01*
X26671Y119496D01*
X26671Y115454D01*
X25124Y111719D01*
X22266Y108861D01*
X18531Y107314D01*
X14489Y107314D01*
G37*
%LPD*%
%LPC*%
G36*
X39889Y107314D02*
X39889Y107314D01*
X36154Y108861D01*
X33296Y111719D01*
X31749Y115454D01*
X31749Y119496D01*
X33296Y123231D01*
X36154Y126089D01*
X39889Y127636D01*
X43931Y127636D01*
X47666Y126089D01*
X50524Y123231D01*
X52071Y119496D01*
X52071Y115454D01*
X50524Y111719D01*
X47666Y108861D01*
X43931Y107314D01*
X39889Y107314D01*
G37*
%LPD*%
%LPC*%
G36*
X39889Y81914D02*
X39889Y81914D01*
X36154Y83461D01*
X33296Y86319D01*
X31749Y90054D01*
X31749Y94096D01*
X33296Y97831D01*
X36154Y100689D01*
X39889Y102236D01*
X43931Y102236D01*
X47666Y100689D01*
X50524Y97831D01*
X52071Y94096D01*
X52071Y90054D01*
X50524Y86319D01*
X47666Y83461D01*
X43931Y81914D01*
X39889Y81914D01*
G37*
%LPD*%
%LPC*%
G36*
X138772Y49303D02*
X138772Y49303D01*
X135663Y52412D01*
X135663Y56170D01*
X135662Y56173D01*
X135663Y56176D01*
X135626Y56259D01*
X133123Y58762D01*
X133123Y63158D01*
X136232Y66267D01*
X140628Y66267D01*
X141516Y65379D01*
X141518Y65378D01*
X141519Y65376D01*
X141563Y65360D01*
X141607Y65342D01*
X141609Y65343D01*
X141611Y65342D01*
X141694Y65379D01*
X142582Y66267D01*
X146978Y66267D01*
X150087Y63158D01*
X150087Y61313D01*
X150088Y61311D01*
X150087Y61309D01*
X150107Y61266D01*
X150125Y61222D01*
X150127Y61222D01*
X150128Y61220D01*
X150213Y61187D01*
X150788Y61187D01*
X153897Y58078D01*
X153897Y53682D01*
X150788Y50573D01*
X146392Y50573D01*
X145504Y51461D01*
X145502Y51462D01*
X145501Y51464D01*
X145457Y51480D01*
X145413Y51498D01*
X145411Y51497D01*
X145409Y51498D01*
X145326Y51461D01*
X143168Y49303D01*
X138772Y49303D01*
G37*
%LPD*%
%LPC*%
G36*
X16852Y276633D02*
X16852Y276633D01*
X13743Y279742D01*
X13743Y284138D01*
X16852Y287247D01*
X18697Y287247D01*
X18699Y287248D01*
X18701Y287247D01*
X18744Y287267D01*
X18788Y287285D01*
X18788Y287287D01*
X18790Y287288D01*
X18823Y287373D01*
X18823Y289218D01*
X21932Y292327D01*
X26328Y292327D01*
X28768Y289887D01*
X28769Y289887D01*
X28769Y289886D01*
X28815Y289868D01*
X28859Y289850D01*
X28860Y289851D01*
X28861Y289850D01*
X28905Y289871D01*
X28949Y289890D01*
X28949Y289891D01*
X28950Y289891D01*
X28983Y289976D01*
X28983Y291758D01*
X32092Y294867D01*
X36488Y294867D01*
X39597Y291758D01*
X39597Y287362D01*
X36488Y284253D01*
X32092Y284253D01*
X29652Y286693D01*
X29651Y286693D01*
X29651Y286694D01*
X29605Y286712D01*
X29561Y286730D01*
X29560Y286729D01*
X29559Y286730D01*
X29515Y286709D01*
X29471Y286690D01*
X29471Y286689D01*
X29470Y286689D01*
X29437Y286604D01*
X29437Y284822D01*
X26328Y281713D01*
X24483Y281713D01*
X24481Y281712D01*
X24479Y281713D01*
X24436Y281693D01*
X24392Y281675D01*
X24392Y281673D01*
X24390Y281672D01*
X24357Y281587D01*
X24357Y279742D01*
X21248Y276633D01*
X16852Y276633D01*
G37*
%LPD*%
%LPC*%
G36*
X266201Y304799D02*
X266201Y304799D01*
X262934Y306153D01*
X260433Y308654D01*
X259079Y311921D01*
X259079Y315459D01*
X260433Y318726D01*
X262934Y321227D01*
X266201Y322581D01*
X269739Y322581D01*
X273006Y321227D01*
X275507Y318726D01*
X276861Y315459D01*
X276861Y311921D01*
X275507Y308654D01*
X273006Y306153D01*
X269739Y304799D01*
X266201Y304799D01*
G37*
%LPD*%
%LPC*%
G36*
X314461Y159384D02*
X314461Y159384D01*
X311194Y160738D01*
X308693Y163239D01*
X307339Y166506D01*
X307339Y170044D01*
X308693Y173311D01*
X311194Y175812D01*
X314461Y177166D01*
X317999Y177166D01*
X321266Y175812D01*
X323767Y173311D01*
X325121Y170044D01*
X325121Y166506D01*
X323767Y163239D01*
X321266Y160738D01*
X317999Y159384D01*
X314461Y159384D01*
G37*
%LPD*%
%LPC*%
G36*
X314461Y184784D02*
X314461Y184784D01*
X311194Y186138D01*
X308693Y188639D01*
X307339Y191906D01*
X307339Y195444D01*
X308693Y198711D01*
X311194Y201212D01*
X314461Y202566D01*
X317999Y202566D01*
X321266Y201212D01*
X323767Y198711D01*
X325121Y195444D01*
X325121Y191906D01*
X323767Y188639D01*
X321266Y186138D01*
X317999Y184784D01*
X314461Y184784D01*
G37*
%LPD*%
%LPC*%
G36*
X289061Y184784D02*
X289061Y184784D01*
X285794Y186138D01*
X283293Y188639D01*
X281939Y191906D01*
X281939Y195444D01*
X283293Y198711D01*
X285794Y201212D01*
X289061Y202566D01*
X292599Y202566D01*
X295866Y201212D01*
X298367Y198711D01*
X299721Y195444D01*
X299721Y191906D01*
X298367Y188639D01*
X295866Y186138D01*
X292599Y184784D01*
X289061Y184784D01*
G37*
%LPD*%
%LPC*%
G36*
X314461Y210184D02*
X314461Y210184D01*
X311194Y211538D01*
X308693Y214039D01*
X307339Y217306D01*
X307339Y220844D01*
X308693Y224111D01*
X311194Y226612D01*
X314461Y227966D01*
X317999Y227966D01*
X321266Y226612D01*
X323767Y224111D01*
X325121Y220844D01*
X325121Y217306D01*
X323767Y214039D01*
X321266Y211538D01*
X317999Y210184D01*
X314461Y210184D01*
G37*
%LPD*%
%LPC*%
G36*
X314461Y133984D02*
X314461Y133984D01*
X311194Y135338D01*
X308693Y137839D01*
X307339Y141106D01*
X307339Y144644D01*
X308693Y147911D01*
X311194Y150412D01*
X314461Y151766D01*
X317999Y151766D01*
X321266Y150412D01*
X323767Y147911D01*
X325121Y144644D01*
X325121Y141106D01*
X323767Y137839D01*
X321266Y135338D01*
X317999Y133984D01*
X314461Y133984D01*
G37*
%LPD*%
%LPC*%
G36*
X289061Y133984D02*
X289061Y133984D01*
X285794Y135338D01*
X283293Y137839D01*
X281939Y141106D01*
X281939Y144644D01*
X283293Y147911D01*
X285794Y150412D01*
X289061Y151766D01*
X292599Y151766D01*
X295866Y150412D01*
X298367Y147911D01*
X299721Y144644D01*
X299721Y141106D01*
X298367Y137839D01*
X295866Y135338D01*
X292599Y133984D01*
X289061Y133984D01*
G37*
%LPD*%
%LPC*%
G36*
X289061Y210184D02*
X289061Y210184D01*
X285794Y211538D01*
X283293Y214039D01*
X281939Y217306D01*
X281939Y220844D01*
X283293Y224111D01*
X285794Y226612D01*
X289061Y227966D01*
X292599Y227966D01*
X295866Y226612D01*
X298367Y224111D01*
X299721Y220844D01*
X299721Y217306D01*
X298367Y214039D01*
X295866Y211538D01*
X292599Y210184D01*
X289061Y210184D01*
G37*
%LPD*%
%LPC*%
G36*
X289061Y159384D02*
X289061Y159384D01*
X285794Y160738D01*
X283293Y163239D01*
X281939Y166506D01*
X281939Y170044D01*
X283293Y173311D01*
X285794Y175812D01*
X289061Y177166D01*
X292599Y177166D01*
X295866Y175812D01*
X298367Y173311D01*
X299721Y170044D01*
X299721Y166506D01*
X298367Y163239D01*
X295866Y160738D01*
X292599Y159384D01*
X289061Y159384D01*
G37*
%LPD*%
%LPC*%
G36*
X289061Y108584D02*
X289061Y108584D01*
X285794Y109938D01*
X283293Y112439D01*
X281939Y115706D01*
X281939Y119244D01*
X283293Y122511D01*
X285794Y125012D01*
X289061Y126366D01*
X292599Y126366D01*
X295866Y125012D01*
X298367Y122511D01*
X299721Y119244D01*
X299721Y115706D01*
X298367Y112439D01*
X295866Y109938D01*
X292599Y108584D01*
X289061Y108584D01*
G37*
%LPD*%
%LPC*%
G36*
X289061Y83184D02*
X289061Y83184D01*
X285794Y84538D01*
X283293Y87039D01*
X281939Y90306D01*
X281939Y93844D01*
X283293Y97111D01*
X285794Y99612D01*
X289061Y100966D01*
X292599Y100966D01*
X295866Y99612D01*
X298367Y97111D01*
X299721Y93844D01*
X299721Y90306D01*
X298367Y87039D01*
X295866Y84538D01*
X292599Y83184D01*
X289061Y83184D01*
G37*
%LPD*%
%LPC*%
G36*
X314461Y83184D02*
X314461Y83184D01*
X311194Y84538D01*
X308693Y87039D01*
X307339Y90306D01*
X307339Y93844D01*
X308693Y97111D01*
X311194Y99612D01*
X314461Y100966D01*
X317999Y100966D01*
X321266Y99612D01*
X323767Y97111D01*
X325121Y93844D01*
X325121Y90306D01*
X323767Y87039D01*
X321266Y84538D01*
X317999Y83184D01*
X314461Y83184D01*
G37*
%LPD*%
%LPC*%
G36*
X240801Y304799D02*
X240801Y304799D01*
X237534Y306153D01*
X235033Y308654D01*
X233679Y311921D01*
X233679Y315459D01*
X235033Y318726D01*
X237534Y321227D01*
X240801Y322581D01*
X244339Y322581D01*
X247606Y321227D01*
X250107Y318726D01*
X251461Y315459D01*
X251461Y311921D01*
X250107Y308654D01*
X247606Y306153D01*
X244339Y304799D01*
X240801Y304799D01*
G37*
%LPD*%
%LPC*%
G36*
X314461Y108584D02*
X314461Y108584D01*
X311194Y109938D01*
X308693Y112439D01*
X307339Y115706D01*
X307339Y119244D01*
X308693Y122511D01*
X311194Y125012D01*
X314461Y126366D01*
X317999Y126366D01*
X321266Y125012D01*
X323767Y122511D01*
X325121Y119244D01*
X325121Y115706D01*
X323767Y112439D01*
X321266Y109938D01*
X317999Y108584D01*
X314461Y108584D01*
G37*
%LPD*%
%LPC*%
G36*
X143852Y238533D02*
X143852Y238533D01*
X140743Y241642D01*
X140743Y246038D01*
X142901Y248196D01*
X142902Y248198D01*
X142904Y248199D01*
X142920Y248243D01*
X142938Y248287D01*
X142937Y248289D01*
X142938Y248291D01*
X142901Y248374D01*
X142013Y249262D01*
X142013Y253658D01*
X144450Y256095D01*
X144451Y256097D01*
X144453Y256098D01*
X144470Y256143D01*
X144487Y256187D01*
X144487Y256189D01*
X144487Y256191D01*
X144450Y256274D01*
X143283Y257441D01*
X143283Y261837D01*
X146392Y264946D01*
X150788Y264946D01*
X153897Y261837D01*
X153897Y257441D01*
X151460Y255004D01*
X151459Y255002D01*
X151457Y255001D01*
X151440Y254956D01*
X151423Y254913D01*
X151423Y254911D01*
X151423Y254908D01*
X151460Y254825D01*
X152627Y253658D01*
X152627Y249262D01*
X150469Y247104D01*
X150468Y247102D01*
X150466Y247101D01*
X150450Y247057D01*
X150432Y247013D01*
X150433Y247011D01*
X150432Y247009D01*
X150469Y246926D01*
X151357Y246038D01*
X151357Y241642D01*
X148248Y238533D01*
X143852Y238533D01*
G37*
%LPD*%
%LPC*%
G36*
X138701Y26019D02*
X138701Y26019D01*
X135470Y27358D01*
X132998Y29830D01*
X131659Y33061D01*
X131659Y36559D01*
X132998Y39790D01*
X135470Y42262D01*
X138701Y43601D01*
X142199Y43601D01*
X145430Y42262D01*
X147902Y39790D01*
X149241Y36559D01*
X149241Y33061D01*
X147902Y29830D01*
X145430Y27358D01*
X142199Y26019D01*
X138701Y26019D01*
G37*
%LPD*%
%LPC*%
G36*
X218701Y26019D02*
X218701Y26019D01*
X215470Y27358D01*
X212998Y29830D01*
X211659Y33061D01*
X211659Y36559D01*
X212998Y39790D01*
X215470Y42262D01*
X218701Y43601D01*
X222199Y43601D01*
X225430Y42262D01*
X227902Y39790D01*
X229241Y36559D01*
X229241Y33061D01*
X227902Y29830D01*
X225430Y27358D01*
X222199Y26019D01*
X218701Y26019D01*
G37*
%LPD*%
%LPC*%
G36*
X39712Y244883D02*
X39712Y244883D01*
X36603Y247992D01*
X36603Y252388D01*
X37491Y253276D01*
X37492Y253278D01*
X37494Y253279D01*
X37510Y253323D01*
X37528Y253367D01*
X37527Y253369D01*
X37528Y253371D01*
X37491Y253454D01*
X35333Y255612D01*
X35333Y260008D01*
X36856Y261531D01*
X36857Y261533D01*
X36859Y261534D01*
X36875Y261578D01*
X36893Y261622D01*
X36892Y261624D01*
X36893Y261626D01*
X36856Y261709D01*
X35333Y263232D01*
X35333Y267628D01*
X38442Y270737D01*
X42838Y270737D01*
X45947Y267628D01*
X45947Y263232D01*
X44424Y261709D01*
X44423Y261707D01*
X44421Y261706D01*
X44405Y261662D01*
X44387Y261618D01*
X44388Y261616D01*
X44387Y261614D01*
X44424Y261531D01*
X45947Y260008D01*
X45947Y255612D01*
X45059Y254724D01*
X45058Y254722D01*
X45056Y254721D01*
X45040Y254677D01*
X45022Y254633D01*
X45023Y254631D01*
X45022Y254629D01*
X45059Y254546D01*
X47217Y252388D01*
X47217Y247992D01*
X44108Y244883D01*
X39712Y244883D01*
G37*
%LPD*%
%LPC*%
G36*
X175602Y271553D02*
X175602Y271553D01*
X172493Y274662D01*
X172493Y279058D01*
X175602Y282167D01*
X179998Y282167D01*
X181691Y280473D01*
X181693Y280473D01*
X181694Y280471D01*
X181739Y280454D01*
X181783Y280437D01*
X181785Y280437D01*
X181787Y280437D01*
X181870Y280473D01*
X184612Y283216D01*
X189008Y283216D01*
X192117Y280107D01*
X192117Y275711D01*
X189008Y272602D01*
X184612Y272602D01*
X182919Y274296D01*
X182917Y274296D01*
X182916Y274298D01*
X182871Y274315D01*
X182828Y274333D01*
X182826Y274332D01*
X182824Y274332D01*
X182740Y274296D01*
X179998Y271553D01*
X175602Y271553D01*
G37*
%LPD*%
%LPC*%
G36*
X197192Y183923D02*
X197192Y183923D01*
X195034Y186081D01*
X195032Y186082D01*
X195031Y186084D01*
X194987Y186100D01*
X194943Y186118D01*
X194941Y186117D01*
X194939Y186118D01*
X194856Y186081D01*
X193607Y184832D01*
X189211Y184832D01*
X186102Y187941D01*
X186102Y192337D01*
X189211Y195446D01*
X193607Y195446D01*
X195765Y193288D01*
X195767Y193287D01*
X195767Y193285D01*
X195812Y193269D01*
X195856Y193251D01*
X195858Y193252D01*
X195860Y193251D01*
X195943Y193288D01*
X197192Y194537D01*
X201588Y194537D01*
X204697Y191428D01*
X204697Y187032D01*
X201588Y183923D01*
X197192Y183923D01*
G37*
%LPD*%
%LPC*%
G36*
X235292Y257583D02*
X235292Y257583D01*
X232183Y260692D01*
X232183Y265088D01*
X235292Y268197D01*
X239688Y268197D01*
X241211Y266674D01*
X241213Y266673D01*
X241214Y266671D01*
X241258Y266655D01*
X241302Y266637D01*
X241304Y266638D01*
X241306Y266637D01*
X241389Y266674D01*
X242912Y268197D01*
X247308Y268197D01*
X250417Y265088D01*
X250417Y260692D01*
X247308Y257583D01*
X242912Y257583D01*
X241389Y259106D01*
X241387Y259107D01*
X241386Y259109D01*
X241342Y259125D01*
X241298Y259143D01*
X241296Y259142D01*
X241294Y259143D01*
X241211Y259106D01*
X239688Y257583D01*
X235292Y257583D01*
G37*
%LPD*%
%LPC*%
G36*
X166712Y67083D02*
X166712Y67083D01*
X163603Y70192D01*
X163603Y74588D01*
X166712Y77697D01*
X171108Y77697D01*
X172631Y76174D01*
X172633Y76173D01*
X172634Y76171D01*
X172678Y76155D01*
X172722Y76137D01*
X172724Y76138D01*
X172726Y76137D01*
X172809Y76174D01*
X174332Y77697D01*
X178728Y77697D01*
X181837Y74588D01*
X181837Y70192D01*
X178728Y67083D01*
X174332Y67083D01*
X172809Y68606D01*
X172807Y68607D01*
X172806Y68609D01*
X172762Y68625D01*
X172718Y68643D01*
X172716Y68642D01*
X172714Y68643D01*
X172631Y68606D01*
X171108Y67083D01*
X166712Y67083D01*
G37*
%LPD*%
%LPC*%
G36*
X173062Y182653D02*
X173062Y182653D01*
X171565Y184150D01*
X171563Y184151D01*
X171562Y184153D01*
X171518Y184169D01*
X171474Y184187D01*
X171472Y184186D01*
X171470Y184187D01*
X171387Y184150D01*
X170285Y183048D01*
X165889Y183048D01*
X162780Y186157D01*
X162780Y190553D01*
X165889Y193662D01*
X170285Y193662D01*
X171782Y192165D01*
X171784Y192164D01*
X171784Y192162D01*
X171829Y192146D01*
X171873Y192128D01*
X171875Y192129D01*
X171877Y192128D01*
X171960Y192165D01*
X173062Y193267D01*
X177458Y193267D01*
X180567Y190158D01*
X180567Y185762D01*
X177458Y182653D01*
X173062Y182653D01*
G37*
%LPD*%
%LPC*%
G36*
X213702Y213951D02*
X213702Y213951D01*
X210593Y217060D01*
X210593Y221456D01*
X212342Y223205D01*
X212343Y223207D01*
X212345Y223208D01*
X212361Y223252D01*
X212379Y223296D01*
X212378Y223298D01*
X212379Y223300D01*
X212342Y223383D01*
X211863Y223862D01*
X211863Y228258D01*
X214972Y231367D01*
X219368Y231367D01*
X222477Y228258D01*
X222477Y223862D01*
X220728Y222113D01*
X220727Y222111D01*
X220725Y222110D01*
X220709Y222066D01*
X220691Y222022D01*
X220692Y222020D01*
X220691Y222018D01*
X220728Y221935D01*
X221207Y221456D01*
X221207Y217060D01*
X218098Y213951D01*
X213702Y213951D01*
G37*
%LPD*%
%LPC*%
G36*
X82593Y51843D02*
X82593Y51843D01*
X79485Y54952D01*
X79485Y59348D01*
X82593Y62457D01*
X86990Y62457D01*
X87466Y61981D01*
X87468Y61980D01*
X87469Y61978D01*
X87513Y61961D01*
X87557Y61944D01*
X87559Y61945D01*
X87561Y61944D01*
X87644Y61981D01*
X89390Y63727D01*
X93787Y63727D01*
X96895Y60618D01*
X96895Y56222D01*
X93787Y53113D01*
X89390Y53113D01*
X88914Y53589D01*
X88912Y53590D01*
X88911Y53592D01*
X88867Y53609D01*
X88823Y53626D01*
X88821Y53625D01*
X88819Y53626D01*
X88736Y53589D01*
X86990Y51843D01*
X82593Y51843D01*
G37*
%LPD*%
%LPC*%
G36*
X178142Y149633D02*
X178142Y149633D01*
X175033Y152742D01*
X175033Y157138D01*
X175921Y158026D01*
X175922Y158028D01*
X175924Y158029D01*
X175940Y158073D01*
X175958Y158117D01*
X175957Y158119D01*
X175958Y158121D01*
X175921Y158204D01*
X175033Y159092D01*
X175033Y163488D01*
X178142Y166597D01*
X182538Y166597D01*
X185647Y163488D01*
X185647Y159092D01*
X184759Y158204D01*
X184758Y158202D01*
X184756Y158201D01*
X184740Y158157D01*
X184722Y158113D01*
X184723Y158111D01*
X184722Y158109D01*
X184759Y158026D01*
X185647Y157138D01*
X185647Y152742D01*
X182538Y149633D01*
X178142Y149633D01*
G37*
%LPD*%
%LPC*%
G36*
X164172Y30253D02*
X164172Y30253D01*
X161063Y33362D01*
X161063Y37758D01*
X164172Y40867D01*
X168568Y40867D01*
X168821Y40614D01*
X168823Y40613D01*
X168824Y40611D01*
X168868Y40595D01*
X168912Y40577D01*
X168914Y40578D01*
X168916Y40577D01*
X168999Y40614D01*
X169252Y40867D01*
X173648Y40867D01*
X176757Y37758D01*
X176757Y33362D01*
X173648Y30253D01*
X169252Y30253D01*
X168999Y30506D01*
X168997Y30507D01*
X168996Y30509D01*
X168952Y30525D01*
X168908Y30543D01*
X168906Y30542D01*
X168904Y30543D01*
X168821Y30506D01*
X168568Y30253D01*
X164172Y30253D01*
G37*
%LPD*%
%LPC*%
G36*
X169252Y238533D02*
X169252Y238533D01*
X166143Y241642D01*
X166143Y246038D01*
X169252Y249147D01*
X173648Y249147D01*
X176757Y246038D01*
X176757Y241642D01*
X173648Y238533D01*
X169252Y238533D01*
G37*
%LPD*%
%LPC*%
G36*
X109562Y119153D02*
X109562Y119153D01*
X106453Y122262D01*
X106453Y126658D01*
X109562Y129767D01*
X113958Y129767D01*
X117067Y126658D01*
X117067Y122262D01*
X113958Y119153D01*
X109562Y119153D01*
G37*
%LPD*%
%LPC*%
G36*
X180682Y238533D02*
X180682Y238533D01*
X177573Y241642D01*
X177573Y246038D01*
X180682Y249147D01*
X185078Y249147D01*
X188187Y246038D01*
X188187Y241642D01*
X185078Y238533D01*
X180682Y238533D01*
G37*
%LPD*%
%LPC*%
G36*
X157822Y238533D02*
X157822Y238533D01*
X154713Y241642D01*
X154713Y246038D01*
X157822Y249147D01*
X162218Y249147D01*
X165327Y246038D01*
X165327Y241642D01*
X162218Y238533D01*
X157822Y238533D01*
G37*
%LPD*%
%LPC*%
G36*
X157822Y216943D02*
X157822Y216943D01*
X154713Y220052D01*
X154713Y224448D01*
X157822Y227557D01*
X162218Y227557D01*
X165327Y224448D01*
X165327Y220052D01*
X162218Y216943D01*
X157822Y216943D01*
G37*
%LPD*%
%LPC*%
G36*
X169252Y216943D02*
X169252Y216943D01*
X166143Y220052D01*
X166143Y224448D01*
X169252Y227557D01*
X173648Y227557D01*
X176757Y224448D01*
X176757Y220052D01*
X173648Y216943D01*
X169252Y216943D01*
G37*
%LPD*%
%LPC*%
G36*
X180682Y216943D02*
X180682Y216943D01*
X177573Y220052D01*
X177573Y224448D01*
X180682Y227557D01*
X185078Y227557D01*
X188187Y224448D01*
X188187Y220052D01*
X185078Y216943D01*
X180682Y216943D01*
G37*
%LPD*%
%LPC*%
G36*
X192112Y202973D02*
X192112Y202973D01*
X189003Y206082D01*
X189003Y210478D01*
X192112Y213587D01*
X196508Y213587D01*
X199617Y210478D01*
X199617Y206082D01*
X196508Y202973D01*
X192112Y202973D01*
G37*
%LPD*%
%LPC*%
G36*
X86702Y219483D02*
X86702Y219483D01*
X83593Y222592D01*
X83593Y226988D01*
X86702Y230097D01*
X91098Y230097D01*
X94207Y226988D01*
X94207Y222592D01*
X91098Y219483D01*
X86702Y219483D01*
G37*
%LPD*%
%LPC*%
G36*
X211162Y192813D02*
X211162Y192813D01*
X208053Y195922D01*
X208053Y200318D01*
X211162Y203427D01*
X215558Y203427D01*
X218667Y200318D01*
X218667Y195922D01*
X215558Y192813D01*
X211162Y192813D01*
G37*
%LPD*%
%LPC*%
G36*
X39712Y295683D02*
X39712Y295683D01*
X36603Y298792D01*
X36603Y303188D01*
X39712Y306297D01*
X44108Y306297D01*
X47217Y303188D01*
X47217Y298792D01*
X44108Y295683D01*
X39712Y295683D01*
G37*
%LPD*%
%LPC*%
G36*
X76542Y158523D02*
X76542Y158523D01*
X73433Y161632D01*
X73433Y166028D01*
X76542Y169137D01*
X80938Y169137D01*
X84047Y166028D01*
X84047Y161632D01*
X80938Y158523D01*
X76542Y158523D01*
G37*
%LPD*%
%LPC*%
G36*
X149379Y271553D02*
X149379Y271553D01*
X146270Y274662D01*
X146270Y279058D01*
X149379Y282167D01*
X153775Y282167D01*
X156884Y279058D01*
X156884Y274662D01*
X153775Y271553D01*
X149379Y271553D01*
G37*
%LPD*%
%LPC*%
G36*
X164172Y149633D02*
X164172Y149633D01*
X161063Y152742D01*
X161063Y157138D01*
X164172Y160247D01*
X168568Y160247D01*
X171677Y157138D01*
X171677Y152742D01*
X168568Y149633D01*
X164172Y149633D01*
G37*
%LPD*%
%LPC*%
G36*
X216242Y13743D02*
X216242Y13743D01*
X213133Y16852D01*
X213133Y21248D01*
X216242Y24357D01*
X220638Y24357D01*
X223747Y21248D01*
X223747Y16852D01*
X220638Y13743D01*
X216242Y13743D01*
G37*
%LPD*%
%LPC*%
G36*
X115912Y147093D02*
X115912Y147093D01*
X112803Y150202D01*
X112803Y154598D01*
X115912Y157707D01*
X120308Y157707D01*
X123417Y154598D01*
X123417Y150202D01*
X120308Y147093D01*
X115912Y147093D01*
G37*
%LPD*%
%LPC*%
G36*
X207639Y262228D02*
X207639Y262228D01*
X204530Y265337D01*
X204530Y269733D01*
X207639Y272841D01*
X212035Y272841D01*
X215144Y269733D01*
X215144Y265337D01*
X212035Y262228D01*
X207639Y262228D01*
G37*
%LPD*%
%LPC*%
G36*
X34632Y32793D02*
X34632Y32793D01*
X31523Y35902D01*
X31523Y40298D01*
X34632Y43407D01*
X39028Y43407D01*
X42137Y40298D01*
X42137Y35902D01*
X39028Y32793D01*
X34632Y32793D01*
G37*
%LPD*%
%LPC*%
G36*
X115912Y257583D02*
X115912Y257583D01*
X112803Y260692D01*
X112803Y265088D01*
X115912Y268197D01*
X120308Y268197D01*
X123417Y265088D01*
X123417Y260692D01*
X120308Y257583D01*
X115912Y257583D01*
G37*
%LPD*%
%LPC*%
G36*
X189572Y252503D02*
X189572Y252503D01*
X186463Y255612D01*
X186463Y260008D01*
X189572Y263117D01*
X193968Y263117D01*
X197077Y260008D01*
X197077Y255612D01*
X193968Y252503D01*
X189572Y252503D01*
G37*
%LPD*%
%LPC*%
G36*
X317098Y55653D02*
X317098Y55653D01*
X314733Y58018D01*
X314733Y61362D01*
X317098Y63727D01*
X320442Y63727D01*
X322807Y61362D01*
X322807Y58018D01*
X320442Y55653D01*
X317098Y55653D01*
G37*
%LPD*%
%LPC*%
G36*
X310748Y275363D02*
X310748Y275363D01*
X308383Y277728D01*
X308383Y281072D01*
X310748Y283437D01*
X314092Y283437D01*
X316457Y281072D01*
X316457Y277728D01*
X314092Y275363D01*
X310748Y275363D01*
G37*
%LPD*%
%LPC*%
G36*
X296778Y282983D02*
X296778Y282983D01*
X294413Y285348D01*
X294413Y288692D01*
X296778Y291057D01*
X300122Y291057D01*
X302487Y288692D01*
X302487Y285348D01*
X300122Y282983D01*
X296778Y282983D01*
G37*
%LPD*%
%LPC*%
G36*
X323448Y46763D02*
X323448Y46763D01*
X321083Y49128D01*
X321083Y52472D01*
X323448Y54837D01*
X326792Y54837D01*
X329157Y52472D01*
X329157Y49128D01*
X326792Y46763D01*
X323448Y46763D01*
G37*
%LPD*%
%LPC*%
G36*
X312018Y40413D02*
X312018Y40413D01*
X309653Y42778D01*
X309653Y46122D01*
X312018Y48487D01*
X315362Y48487D01*
X317727Y46122D01*
X317727Y42778D01*
X315362Y40413D01*
X312018Y40413D01*
G37*
%LPD*%
%LPC*%
G36*
X303128Y37873D02*
X303128Y37873D01*
X300763Y40238D01*
X300763Y43582D01*
X303128Y45947D01*
X306472Y45947D01*
X308837Y43582D01*
X308837Y40238D01*
X306472Y37873D01*
X303128Y37873D01*
G37*
%LPD*%
%LPC*%
G36*
X320908Y36603D02*
X320908Y36603D01*
X318543Y38968D01*
X318543Y42312D01*
X320908Y44677D01*
X324252Y44677D01*
X326617Y42312D01*
X326617Y38968D01*
X324252Y36603D01*
X320908Y36603D01*
G37*
%LPD*%
%LPC*%
G36*
X318368Y284253D02*
X318368Y284253D01*
X316003Y286618D01*
X316003Y289962D01*
X318368Y292327D01*
X321712Y292327D01*
X324077Y289962D01*
X324077Y286618D01*
X321712Y284253D01*
X318368Y284253D01*
G37*
%LPD*%
%LPC*%
G36*
X308208Y286793D02*
X308208Y286793D01*
X305843Y289158D01*
X305843Y292502D01*
X308208Y294867D01*
X311552Y294867D01*
X313917Y292502D01*
X313917Y289158D01*
X311552Y286793D01*
X308208Y286793D01*
G37*
%LPD*%
%LPC*%
G36*
X285348Y288063D02*
X285348Y288063D01*
X282983Y290428D01*
X282983Y293772D01*
X285348Y296137D01*
X288692Y296137D01*
X291057Y293772D01*
X291057Y290428D01*
X288692Y288063D01*
X285348Y288063D01*
G37*
%LPD*%
%LPC*%
G36*
X292968Y298223D02*
X292968Y298223D01*
X290603Y300588D01*
X290603Y303932D01*
X292968Y306297D01*
X296312Y306297D01*
X298677Y303932D01*
X298677Y300588D01*
X296312Y298223D01*
X292968Y298223D01*
G37*
%LPD*%
%LPC*%
G36*
X304398Y48033D02*
X304398Y48033D01*
X302033Y50398D01*
X302033Y53742D01*
X304398Y56107D01*
X307742Y56107D01*
X310107Y53742D01*
X310107Y50398D01*
X307742Y48033D01*
X304398Y48033D01*
G37*
%LPD*%
G36*
X235826Y296038D02*
X235826Y296038D01*
X235827Y296038D01*
X235871Y296057D01*
X235915Y296076D01*
X235916Y296077D01*
X235917Y296078D01*
X235933Y296123D01*
X235951Y296168D01*
X235950Y296169D01*
X235951Y296170D01*
X235914Y296253D01*
X224992Y307175D01*
X224989Y307177D01*
X224988Y307179D01*
X224903Y307212D01*
X221234Y307212D01*
X221233Y307212D01*
X221232Y307212D01*
X221188Y307193D01*
X221143Y307174D01*
X221143Y307173D01*
X221142Y307172D01*
X221125Y307127D01*
X221108Y307082D01*
X221108Y307081D01*
X221108Y307080D01*
X221145Y306997D01*
X225717Y302425D01*
X225720Y302423D01*
X225721Y302421D01*
X225806Y302388D01*
X225895Y302388D01*
X232208Y296075D01*
X232211Y296073D01*
X232212Y296071D01*
X232297Y296038D01*
X235825Y296038D01*
X235826Y296038D01*
G37*
D10*
X16510Y219075D03*
X41910Y219075D03*
X16510Y193675D03*
X41910Y193675D03*
X16510Y168275D03*
X41910Y168275D03*
X16510Y142875D03*
X41910Y142875D03*
X16510Y117475D03*
X41910Y117475D03*
X16510Y92075D03*
X41910Y92075D03*
X316230Y92075D03*
X290830Y92075D03*
X316230Y117475D03*
X290830Y117475D03*
X316230Y142875D03*
X290830Y142875D03*
X316230Y168275D03*
X290830Y168275D03*
X316230Y193675D03*
X290830Y193675D03*
X316230Y219075D03*
X290830Y219075D03*
X267970Y313690D03*
X242570Y313690D03*
X217170Y313690D03*
X118110Y313690D03*
X92710Y313690D03*
X67310Y313690D03*
D11*
X218440Y64770D03*
X218440Y57150D03*
X218440Y49530D03*
X210820Y49530D03*
X226060Y53340D03*
X167640Y363220D03*
X167640Y354330D03*
X167640Y345440D03*
X176530Y341630D03*
X184150Y341630D03*
X191770Y341630D03*
X200660Y341630D03*
X208280Y341630D03*
X218440Y341630D03*
X217170Y349250D03*
X215900Y356870D03*
X217170Y365760D03*
X208280Y367030D03*
X199390Y363220D03*
X191770Y361950D03*
X184150Y363220D03*
X175260Y365760D03*
X205841Y302260D03*
X158081Y289560D03*
X176530Y72390D03*
X168910Y72390D03*
X166370Y35560D03*
X171450Y35560D03*
X137160Y193040D03*
X102870Y209997D03*
X40640Y265430D03*
X40640Y257810D03*
X41910Y250190D03*
X160020Y243840D03*
X171450Y243840D03*
X182880Y243840D03*
X160020Y222250D03*
X171450Y222250D03*
X182880Y222250D03*
X166370Y154940D03*
X180340Y161290D03*
X118110Y262890D03*
X19050Y281940D03*
X24130Y287020D03*
X34290Y289560D03*
X116840Y80979D03*
X180340Y154940D03*
X200660Y167640D03*
X237490Y262890D03*
X245110Y262890D03*
X247650Y176530D03*
X246380Y167640D03*
X111760Y124460D03*
X70211Y239669D03*
X6350Y295910D03*
X34290Y328930D03*
X39370Y322580D03*
X41910Y313690D03*
X294640Y327660D03*
X290830Y320040D03*
X293370Y312420D03*
X294640Y302260D03*
X302260Y295910D03*
X309880Y290830D03*
X320040Y288290D03*
X287020Y292100D03*
X312420Y279400D03*
X298450Y287020D03*
X304800Y41910D03*
X313690Y44450D03*
X322580Y40640D03*
X306070Y52070D03*
X318770Y59690D03*
X325120Y50800D03*
X293370Y5080D03*
X43180Y7620D03*
X43180Y17780D03*
X43180Y27940D03*
X36830Y38100D03*
X8890Y38100D03*
X6350Y77470D03*
X110490Y225199D03*
X77050Y88050D03*
X57150Y58420D03*
X64770Y58420D03*
X69850Y53340D03*
D12*
X77050Y88050D02*
X77115Y88050D01*
X96939Y107874D01*
X96939Y190507D01*
X110490Y204058D01*
X110490Y225199D01*
D13*
X55880Y262890D02*
X80645Y287655D01*
D11*
X82550Y289560D03*
D13*
X80645Y287655D01*
X55880Y262890D02*
X55880Y144860D01*
D11*
X73660Y289560D03*
X66040Y289560D03*
X57150Y289560D03*
D13*
X78740Y289560D02*
X80645Y287655D01*
X78740Y289560D02*
X57150Y289560D01*
D11*
X83820Y116920D03*
D13*
X62230Y138510D01*
X55880Y144860D01*
D14*
X62230Y138510D02*
X62230Y74930D01*
X67310Y69850D01*
X76200Y69850D01*
X100330Y93980D02*
X187960Y93980D01*
X100330Y93980D02*
X76200Y69850D01*
D11*
X237490Y82550D03*
X237490Y74930D03*
X241300Y88900D03*
D15*
X236220Y93980D01*
X187960Y93980D01*
D11*
X259080Y74930D03*
X237490Y8890D03*
D13*
X259080Y30480D02*
X259080Y74930D01*
X259080Y30480D02*
X237490Y8890D01*
D11*
X195580Y322580D03*
X201930Y322580D03*
X185420Y322580D03*
X97790Y364490D03*
X97790Y358140D03*
X97790Y350520D03*
X106680Y342900D03*
X115570Y342900D03*
X124460Y342900D03*
X133350Y342900D03*
X142240Y342900D03*
X151130Y350520D03*
X148590Y358140D03*
X146050Y367030D03*
X134620Y364490D03*
X123190Y361950D03*
X113030Y363220D03*
X104140Y368300D03*
D16*
X106680Y342900D02*
X106680Y289437D01*
X66040Y248797D01*
D11*
X66040Y245110D03*
D17*
X66040Y248797D01*
D11*
X218440Y19050D03*
X144780Y60960D03*
X148590Y55880D03*
X140970Y54610D03*
X138430Y60960D03*
X71120Y214630D03*
X257810Y261369D03*
X161290Y276860D03*
X198120Y278130D03*
X161290Y189230D03*
X205740Y193040D03*
X205740Y201930D03*
X147320Y232410D03*
X222250Y287020D03*
X116840Y104140D03*
X210820Y177800D03*
X215900Y232862D03*
D13*
X173990Y264160D02*
X161290Y276860D01*
X173990Y264160D02*
X185420Y264160D01*
X198120Y276860D01*
X198120Y278130D01*
X207010Y287020D01*
X222250Y287020D01*
D11*
X187960Y180340D03*
X194310Y180340D03*
D12*
X196850Y177800D02*
X210820Y177800D01*
X196850Y177800D02*
X194310Y180340D01*
X187960Y180340D01*
X182880Y185420D01*
X190500Y201930D02*
X205740Y201930D01*
X182880Y194310D02*
X182880Y185420D01*
X182880Y194310D02*
X190500Y201930D01*
X186690Y181610D02*
X187960Y180340D01*
X186690Y181610D02*
X161290Y181610D01*
X161290Y189230D01*
X161290Y203200D01*
X152400Y212090D01*
X151130Y212090D01*
X147320Y215900D01*
X147320Y232410D01*
X257810Y261369D02*
X257810Y269240D01*
D11*
X257810Y269240D03*
D12*
X257810Y261369D02*
X229303Y232862D01*
X215900Y232862D01*
D11*
X116840Y111760D03*
D13*
X116840Y104140D01*
X117243Y111760D02*
X118331Y112848D01*
X117243Y111760D02*
X116840Y111760D01*
X107729Y144598D02*
X107729Y166149D01*
X118331Y133996D02*
X118331Y112848D01*
X118331Y133996D02*
X107729Y144598D01*
X151961Y181610D02*
X161290Y181610D01*
X121699Y180119D02*
X107729Y166149D01*
X121699Y180119D02*
X150470Y180119D01*
X151961Y181610D01*
D11*
X67310Y207010D03*
X67310Y200660D03*
X167640Y116840D03*
X173990Y116840D03*
X180340Y113030D03*
X234950Y163830D03*
D13*
X180340Y113030D02*
X177800Y113030D01*
X173990Y116840D01*
X167640Y116840D01*
X180340Y113030D02*
X219710Y152400D01*
X219710Y163830D02*
X234950Y163830D01*
D11*
X262890Y212090D03*
X255270Y212090D03*
X261620Y205740D03*
X255270Y205740D03*
D12*
X219710Y170180D01*
X219710Y163830D01*
X219710Y152400D01*
D11*
X141050Y297180D03*
X141050Y323850D03*
X141050Y330200D03*
X143390Y155609D03*
D16*
X167640Y131359D01*
X167640Y116840D01*
D11*
X234950Y176530D03*
D14*
X141050Y297180D02*
X141050Y330200D01*
X141050Y323850D01*
D16*
X264160Y271780D02*
X264160Y214630D01*
X255270Y205740D01*
D18*
X261620Y205740D01*
X234950Y176530D02*
X234950Y163830D01*
D19*
X264160Y271780D02*
X250190Y285750D01*
X234950Y285750D01*
X226060Y294640D01*
X203065Y297180D02*
X141050Y297180D01*
X203065Y297180D02*
X205605Y294640D01*
X226060Y294640D01*
D11*
X217170Y226060D03*
X215900Y219258D03*
X91588Y58420D03*
X84792Y57150D03*
X152400Y10160D03*
X146050Y10160D03*
X139700Y10160D03*
X208280Y60960D03*
D13*
X157480Y10160D01*
X153670Y10160D01*
X139700Y10160D01*
D11*
X208280Y68580D03*
X142240Y68580D03*
X135890Y71120D03*
X130810Y66040D03*
D13*
X138430Y68580D02*
X142240Y68580D01*
X138430Y68580D02*
X135890Y71120D01*
X130810Y66040D01*
X129540Y67310D01*
X115570Y67310D01*
D11*
X115570Y67310D03*
D13*
X130810Y39015D02*
X130660Y38865D01*
X130810Y39015D02*
X130810Y66040D01*
X130660Y19200D02*
X139700Y10160D01*
X130660Y19200D02*
X130660Y38865D01*
D11*
X134620Y170180D03*
D14*
X208280Y68580D02*
X208280Y60960D01*
D11*
X255270Y151130D03*
X10160Y49530D03*
X17780Y48260D03*
X25400Y46990D03*
D14*
X57150Y46990D02*
X93980Y10160D01*
X153670Y10160D01*
X57150Y46990D02*
X25400Y46990D01*
X24130Y48260D01*
X17780Y48260D01*
X16510Y49530D01*
X10160Y49530D01*
X255270Y151130D02*
X258806Y151130D01*
X270366Y139570D01*
X270366Y129540D01*
D16*
X134620Y125730D02*
X134620Y170180D01*
X229870Y151130D02*
X255270Y151130D01*
X154940Y105410D02*
X134620Y125730D01*
X154940Y105410D02*
X184150Y105410D01*
X229870Y151130D01*
D18*
X270510Y215900D02*
X270510Y281940D01*
X275590Y210820D02*
X275590Y201930D01*
X260350Y186690D01*
X260350Y156210D01*
X255270Y151130D01*
X275590Y210820D02*
X270510Y215900D01*
X230637Y300223D02*
X217170Y313690D01*
X230637Y300223D02*
X252227Y300223D01*
X270510Y281940D01*
D13*
X248920Y66040D02*
X246380Y63500D01*
X248920Y81424D02*
X270366Y102870D01*
X248920Y81424D02*
X248920Y66040D01*
X246380Y63500D02*
X233680Y63500D01*
X208280Y60960D02*
X208280Y71120D01*
X212725Y75565D01*
X221615Y75565D01*
X233680Y63500D01*
X270366Y102870D02*
X270366Y129540D01*
D11*
X255270Y157480D03*
X78740Y163830D03*
X118110Y152400D03*
X146050Y243840D03*
X199390Y189230D03*
X147320Y251460D03*
X213360Y198120D03*
X278130Y269240D03*
X151577Y276860D03*
X186810Y277909D03*
X209837Y267535D03*
X177800Y276860D03*
X191770Y257810D03*
X148590Y259639D03*
X120650Y299720D03*
X41910Y300990D03*
X140970Y186690D03*
X148169Y187111D03*
X154279Y190614D03*
X129540Y200660D03*
X168087Y188355D03*
X63500Y220980D03*
X88900Y224790D03*
X123975Y205977D03*
X191409Y190139D03*
X194310Y208280D03*
X119293Y214717D03*
X175260Y187960D03*
X101600Y226060D03*
X5080Y231671D03*
X121920Y229870D03*
X117749Y224429D03*
M02*
