G04 EAGLE Gerber RS-274X export*
G75*
%MOMM*%
%FSLAX34Y34*%
%LPD*%
%INSilkscreen Bottom*%
%IPPOS*%
%AMOC8*
5,1,8,0,0,1.08239X$1,22.5*%
G01*
%ADD10C,0.127000*%
%ADD11C,0.203200*%
%ADD12C,0.120000*%
%ADD13C,0.050000*%


D10*
X245450Y139810D02*
X245450Y-190D01*
X157450Y-190D01*
X127450Y-8190D01*
X97450Y-8190D01*
X97450Y125310D01*
X110450Y125310D01*
X110450Y139810D01*
X245450Y139810D01*
D11*
X0Y212725D02*
X0Y225425D01*
X332740Y98425D02*
X332740Y85725D01*
D12*
X176640Y296950D02*
X173740Y296950D01*
X161540Y325350D02*
X158640Y325350D01*
X158640Y296950D01*
X161540Y296950D01*
X176640Y296950D02*
X176640Y325350D01*
X173740Y325350D01*
D13*
X170140Y313650D02*
X165140Y313650D01*
X167640Y308650D01*
X170140Y313650D01*
X170140Y308650D02*
X165140Y308650D01*
D10*
X183515Y286385D02*
X195445Y286385D01*
X195445Y289699D01*
X195443Y289812D01*
X195437Y289925D01*
X195428Y290038D01*
X195414Y290150D01*
X195397Y290262D01*
X195376Y290373D01*
X195351Y290484D01*
X195322Y290593D01*
X195290Y290702D01*
X195254Y290809D01*
X195214Y290915D01*
X195171Y291019D01*
X195124Y291122D01*
X195073Y291224D01*
X195020Y291323D01*
X194963Y291421D01*
X194902Y291517D01*
X194838Y291610D01*
X194772Y291701D01*
X194702Y291790D01*
X194629Y291877D01*
X194553Y291961D01*
X194474Y292042D01*
X194393Y292121D01*
X194309Y292197D01*
X194222Y292270D01*
X194133Y292340D01*
X194042Y292406D01*
X193949Y292470D01*
X193853Y292531D01*
X193755Y292588D01*
X193656Y292641D01*
X193554Y292692D01*
X193451Y292739D01*
X193347Y292782D01*
X193241Y292822D01*
X193134Y292858D01*
X193025Y292890D01*
X192916Y292919D01*
X192805Y292944D01*
X192694Y292965D01*
X192582Y292982D01*
X192470Y292996D01*
X192357Y293005D01*
X192244Y293011D01*
X192131Y293013D01*
X186829Y293013D01*
X186716Y293011D01*
X186603Y293005D01*
X186490Y292996D01*
X186378Y292982D01*
X186266Y292965D01*
X186155Y292944D01*
X186044Y292919D01*
X185935Y292890D01*
X185826Y292858D01*
X185719Y292822D01*
X185613Y292782D01*
X185509Y292739D01*
X185406Y292692D01*
X185304Y292641D01*
X185205Y292588D01*
X185107Y292531D01*
X185011Y292470D01*
X184918Y292406D01*
X184827Y292340D01*
X184738Y292270D01*
X184651Y292197D01*
X184567Y292121D01*
X184486Y292042D01*
X184407Y291961D01*
X184331Y291877D01*
X184258Y291790D01*
X184188Y291701D01*
X184122Y291610D01*
X184058Y291517D01*
X183997Y291421D01*
X183940Y291323D01*
X183887Y291224D01*
X183836Y291122D01*
X183789Y291019D01*
X183746Y290915D01*
X183706Y290809D01*
X183670Y290702D01*
X183638Y290593D01*
X183609Y290484D01*
X183584Y290373D01*
X183563Y290262D01*
X183546Y290150D01*
X183532Y290038D01*
X183523Y289925D01*
X183517Y289812D01*
X183515Y289699D01*
X183515Y286385D01*
X192794Y298661D02*
X195445Y301975D01*
X183515Y301975D01*
X183515Y298661D02*
X183515Y305289D01*
M02*
