G04 EAGLE Gerber RS-274X export*
G75*
%MOMM*%
%FSLAX34Y34*%
%LPD*%
%INSoldermask Top*%
%IPPOS*%
%AMOC8*
5,1,8,0,0,1.08239X$1,22.5*%
G01*
%ADD10C,3.152400*%
%ADD11R,6.731000X4.445000*%
%ADD12C,0.508000*%
%ADD13R,5.232400X2.692400*%
%ADD14R,1.232400X1.202400*%
%ADD15R,0.752400X0.752400*%
%ADD16R,1.202400X1.232400*%
%ADD17R,2.102400X1.652400*%
%ADD18R,1.252400X1.152400*%
%ADD19R,1.352400X0.952400*%
%ADD20R,0.652400X0.502400*%
%ADD21R,0.675000X1.312500*%
%ADD22R,1.952400X0.952400*%
%ADD23R,0.852400X0.752400*%
%ADD24R,1.967700X1.317000*%
%ADD25R,0.752400X0.852400*%
%ADD26R,1.052400X1.152400*%
%ADD27C,1.402400*%
%ADD28C,0.296959*%
%ADD29C,0.253078*%
%ADD30R,0.702400X1.352400*%
%ADD31C,0.232581*%
%ADD32R,3.352400X3.352400*%
%ADD33C,0.353534*%
%ADD34C,0.853819*%
%ADD35C,1.108294*%
%ADD36C,1.219200*%
%ADD37R,1.552400X1.352400*%
%ADD38R,0.952400X0.952400*%
%ADD39C,2.032000*%
%ADD40C,1.676400*%
%ADD41R,0.502400X0.642400*%
%ADD42R,1.752400X0.352400*%

G36*
X187537Y138117D02*
X187537Y138117D01*
X187532Y138124D01*
X187539Y138130D01*
X187539Y164130D01*
X187503Y164177D01*
X187496Y164172D01*
X187490Y164179D01*
X160490Y164179D01*
X160443Y164143D01*
X160448Y164136D01*
X160441Y164130D01*
X160441Y138130D01*
X160477Y138083D01*
X160484Y138088D01*
X160490Y138081D01*
X187490Y138081D01*
X187537Y138117D01*
G37*
G36*
X14042Y59153D02*
X14042Y59153D01*
X14044Y59151D01*
X14388Y59178D01*
X14392Y59182D01*
X14396Y59179D01*
X14732Y59260D01*
X14735Y59265D01*
X14739Y59263D01*
X15058Y59395D01*
X15061Y59400D01*
X15065Y59398D01*
X15359Y59578D01*
X15361Y59583D01*
X15365Y59583D01*
X15628Y59807D01*
X15629Y59812D01*
X15634Y59812D01*
X15858Y60075D01*
X15858Y60081D01*
X15862Y60081D01*
X16042Y60375D01*
X16041Y60381D01*
X16046Y60382D01*
X16178Y60701D01*
X16176Y60707D01*
X16180Y60708D01*
X16261Y61044D01*
X16259Y61050D01*
X16262Y61052D01*
X16289Y61396D01*
X16287Y61399D01*
X16289Y61400D01*
X16262Y65944D01*
X16257Y65951D01*
X16261Y65956D01*
X16180Y66292D01*
X16175Y66295D01*
X16178Y66299D01*
X16046Y66618D01*
X16040Y66621D01*
X16042Y66625D01*
X15862Y66919D01*
X15857Y66921D01*
X15858Y66925D01*
X15634Y67188D01*
X15628Y67189D01*
X15628Y67194D01*
X15365Y67418D01*
X15359Y67418D01*
X15359Y67422D01*
X15065Y67602D01*
X15059Y67601D01*
X15058Y67606D01*
X14739Y67738D01*
X14733Y67736D01*
X14732Y67740D01*
X14396Y67821D01*
X14391Y67819D01*
X14390Y67819D01*
X14388Y67822D01*
X14044Y67849D01*
X14041Y67848D01*
X14040Y67849D01*
X8240Y67849D01*
X8238Y67847D01*
X8236Y67849D01*
X7892Y67822D01*
X7888Y67819D01*
X7887Y67819D01*
X7884Y67821D01*
X7548Y67740D01*
X7545Y67735D01*
X7541Y67738D01*
X7222Y67606D01*
X7219Y67600D01*
X7215Y67602D01*
X6921Y67422D01*
X6919Y67417D01*
X6915Y67418D01*
X6652Y67194D01*
X6651Y67188D01*
X6647Y67188D01*
X6423Y66925D01*
X6422Y66919D01*
X6418Y66919D01*
X6238Y66625D01*
X6239Y66619D01*
X6235Y66618D01*
X6103Y66299D01*
X6104Y66293D01*
X6100Y66292D01*
X6019Y65956D01*
X6021Y65950D01*
X6018Y65948D01*
X5991Y65604D01*
X5993Y65601D01*
X5991Y65600D01*
X6018Y61056D01*
X6023Y61049D01*
X6019Y61044D01*
X6100Y60708D01*
X6105Y60705D01*
X6103Y60701D01*
X6235Y60382D01*
X6240Y60379D01*
X6238Y60375D01*
X6418Y60081D01*
X6423Y60079D01*
X6423Y60075D01*
X6647Y59812D01*
X6652Y59811D01*
X6652Y59807D01*
X6915Y59583D01*
X6921Y59582D01*
X6921Y59578D01*
X7215Y59398D01*
X7221Y59399D01*
X7222Y59395D01*
X7541Y59263D01*
X7547Y59264D01*
X7548Y59260D01*
X7884Y59179D01*
X7890Y59181D01*
X7892Y59178D01*
X8236Y59151D01*
X8239Y59153D01*
X8240Y59151D01*
X14040Y59151D01*
X14042Y59153D01*
G37*
G36*
X47642Y59153D02*
X47642Y59153D01*
X47644Y59151D01*
X47988Y59178D01*
X47992Y59182D01*
X47996Y59179D01*
X48332Y59260D01*
X48335Y59265D01*
X48339Y59263D01*
X48658Y59395D01*
X48661Y59400D01*
X48665Y59398D01*
X48959Y59578D01*
X48961Y59583D01*
X48965Y59583D01*
X49228Y59807D01*
X49229Y59812D01*
X49234Y59812D01*
X49458Y60075D01*
X49458Y60081D01*
X49462Y60081D01*
X49642Y60375D01*
X49641Y60381D01*
X49646Y60382D01*
X49778Y60701D01*
X49776Y60707D01*
X49780Y60708D01*
X49861Y61044D01*
X49859Y61050D01*
X49862Y61052D01*
X49889Y61396D01*
X49887Y61399D01*
X49889Y61400D01*
X49862Y65944D01*
X49857Y65951D01*
X49861Y65956D01*
X49780Y66292D01*
X49775Y66295D01*
X49778Y66299D01*
X49646Y66618D01*
X49640Y66621D01*
X49642Y66625D01*
X49462Y66919D01*
X49457Y66921D01*
X49458Y66925D01*
X49234Y67188D01*
X49228Y67189D01*
X49228Y67194D01*
X48965Y67418D01*
X48959Y67418D01*
X48959Y67422D01*
X48665Y67602D01*
X48659Y67601D01*
X48658Y67606D01*
X48339Y67738D01*
X48333Y67736D01*
X48332Y67740D01*
X47996Y67821D01*
X47991Y67819D01*
X47990Y67819D01*
X47988Y67822D01*
X47644Y67849D01*
X47641Y67848D01*
X47640Y67849D01*
X41840Y67849D01*
X41838Y67847D01*
X41836Y67849D01*
X41492Y67822D01*
X41488Y67819D01*
X41487Y67819D01*
X41484Y67821D01*
X41148Y67740D01*
X41145Y67735D01*
X41141Y67738D01*
X40822Y67606D01*
X40819Y67600D01*
X40815Y67602D01*
X40521Y67422D01*
X40519Y67417D01*
X40515Y67418D01*
X40252Y67194D01*
X40251Y67188D01*
X40247Y67188D01*
X40023Y66925D01*
X40022Y66919D01*
X40018Y66919D01*
X39838Y66625D01*
X39839Y66619D01*
X39835Y66618D01*
X39703Y66299D01*
X39704Y66293D01*
X39700Y66292D01*
X39619Y65956D01*
X39621Y65950D01*
X39618Y65948D01*
X39591Y65604D01*
X39593Y65601D01*
X39591Y65600D01*
X39618Y61056D01*
X39623Y61049D01*
X39619Y61044D01*
X39700Y60708D01*
X39705Y60705D01*
X39703Y60701D01*
X39835Y60382D01*
X39840Y60379D01*
X39838Y60375D01*
X40018Y60081D01*
X40023Y60079D01*
X40023Y60075D01*
X40247Y59812D01*
X40252Y59811D01*
X40252Y59807D01*
X40515Y59583D01*
X40521Y59582D01*
X40521Y59578D01*
X40815Y59398D01*
X40821Y59399D01*
X40822Y59395D01*
X41141Y59263D01*
X41147Y59264D01*
X41148Y59260D01*
X41484Y59179D01*
X41490Y59181D01*
X41492Y59178D01*
X41836Y59151D01*
X41839Y59153D01*
X41840Y59151D01*
X47640Y59151D01*
X47642Y59153D01*
G37*
G36*
X157543Y162283D02*
X157543Y162283D01*
X157544Y162281D01*
X157654Y162290D01*
X157658Y162294D01*
X157661Y162291D01*
X157767Y162316D01*
X157771Y162321D01*
X157775Y162318D01*
X157877Y162360D01*
X157880Y162366D01*
X157884Y162364D01*
X157977Y162422D01*
X157979Y162427D01*
X157983Y162426D01*
X158067Y162497D01*
X158068Y162503D01*
X158073Y162503D01*
X158144Y162587D01*
X158144Y162593D01*
X158148Y162593D01*
X158206Y162686D01*
X158205Y162692D01*
X158210Y162693D01*
X158252Y162795D01*
X158250Y162801D01*
X158254Y162803D01*
X158279Y162909D01*
X158277Y162914D01*
X158280Y162916D01*
X158289Y163026D01*
X158287Y163029D01*
X158289Y163030D01*
X158280Y164340D01*
X158275Y164347D01*
X158279Y164351D01*
X158254Y164457D01*
X158249Y164461D01*
X158252Y164465D01*
X158210Y164567D01*
X158204Y164570D01*
X158206Y164574D01*
X158148Y164667D01*
X158143Y164669D01*
X158144Y164673D01*
X158073Y164757D01*
X158067Y164758D01*
X158067Y164763D01*
X157983Y164834D01*
X157977Y164834D01*
X157977Y164838D01*
X157884Y164896D01*
X157878Y164895D01*
X157877Y164900D01*
X157775Y164942D01*
X157769Y164940D01*
X157767Y164944D01*
X157661Y164969D01*
X157656Y164967D01*
X157654Y164970D01*
X157544Y164979D01*
X157541Y164977D01*
X157540Y164979D01*
X152040Y164979D01*
X152038Y164977D01*
X152036Y164979D01*
X151926Y164970D01*
X151922Y164966D01*
X151919Y164969D01*
X151813Y164944D01*
X151809Y164939D01*
X151805Y164942D01*
X151703Y164900D01*
X151700Y164894D01*
X151696Y164896D01*
X151603Y164838D01*
X151601Y164833D01*
X151597Y164834D01*
X151513Y164763D01*
X151512Y164757D01*
X151507Y164757D01*
X151436Y164673D01*
X151436Y164667D01*
X151432Y164667D01*
X151374Y164574D01*
X151375Y164568D01*
X151370Y164567D01*
X151328Y164465D01*
X151329Y164462D01*
X151327Y164461D01*
X151329Y164459D01*
X151326Y164457D01*
X151301Y164351D01*
X151303Y164346D01*
X151300Y164344D01*
X151291Y164234D01*
X151293Y164231D01*
X151291Y164230D01*
X151300Y162920D01*
X151305Y162913D01*
X151301Y162909D01*
X151326Y162803D01*
X151331Y162799D01*
X151328Y162795D01*
X151370Y162693D01*
X151376Y162690D01*
X151374Y162686D01*
X151432Y162593D01*
X151437Y162591D01*
X151436Y162587D01*
X151507Y162503D01*
X151513Y162502D01*
X151513Y162497D01*
X151597Y162426D01*
X151603Y162426D01*
X151603Y162422D01*
X151696Y162364D01*
X151702Y162365D01*
X151703Y162360D01*
X151805Y162318D01*
X151811Y162320D01*
X151813Y162316D01*
X151919Y162291D01*
X151924Y162293D01*
X151926Y162290D01*
X152036Y162281D01*
X152039Y162283D01*
X152040Y162281D01*
X157540Y162281D01*
X157543Y162283D01*
G37*
G36*
X195943Y162283D02*
X195943Y162283D01*
X195944Y162281D01*
X196054Y162290D01*
X196058Y162294D01*
X196061Y162291D01*
X196167Y162316D01*
X196171Y162321D01*
X196175Y162318D01*
X196277Y162360D01*
X196280Y162366D01*
X196284Y162364D01*
X196377Y162422D01*
X196379Y162427D01*
X196383Y162426D01*
X196467Y162497D01*
X196468Y162503D01*
X196473Y162503D01*
X196544Y162587D01*
X196544Y162593D01*
X196548Y162593D01*
X196606Y162686D01*
X196605Y162692D01*
X196610Y162693D01*
X196652Y162795D01*
X196650Y162801D01*
X196654Y162803D01*
X196679Y162909D01*
X196677Y162914D01*
X196680Y162916D01*
X196689Y163026D01*
X196687Y163029D01*
X196689Y163030D01*
X196680Y164340D01*
X196675Y164347D01*
X196679Y164351D01*
X196654Y164457D01*
X196649Y164461D01*
X196652Y164465D01*
X196610Y164567D01*
X196604Y164570D01*
X196606Y164574D01*
X196548Y164667D01*
X196543Y164669D01*
X196544Y164673D01*
X196473Y164757D01*
X196467Y164758D01*
X196467Y164763D01*
X196383Y164834D01*
X196377Y164834D01*
X196377Y164838D01*
X196284Y164896D01*
X196278Y164895D01*
X196277Y164900D01*
X196175Y164942D01*
X196169Y164940D01*
X196167Y164944D01*
X196061Y164969D01*
X196056Y164967D01*
X196054Y164970D01*
X195944Y164979D01*
X195941Y164977D01*
X195940Y164979D01*
X190440Y164979D01*
X190438Y164977D01*
X190436Y164979D01*
X190326Y164970D01*
X190322Y164966D01*
X190319Y164969D01*
X190213Y164944D01*
X190209Y164939D01*
X190205Y164942D01*
X190103Y164900D01*
X190100Y164894D01*
X190096Y164896D01*
X190003Y164838D01*
X190001Y164833D01*
X189997Y164834D01*
X189913Y164763D01*
X189912Y164757D01*
X189907Y164757D01*
X189836Y164673D01*
X189836Y164667D01*
X189832Y164667D01*
X189774Y164574D01*
X189775Y164568D01*
X189770Y164567D01*
X189728Y164465D01*
X189729Y164462D01*
X189727Y164461D01*
X189729Y164459D01*
X189726Y164457D01*
X189701Y164351D01*
X189703Y164346D01*
X189700Y164344D01*
X189691Y164234D01*
X189693Y164231D01*
X189691Y164230D01*
X189700Y162920D01*
X189705Y162913D01*
X189701Y162909D01*
X189726Y162803D01*
X189731Y162799D01*
X189728Y162795D01*
X189770Y162693D01*
X189776Y162690D01*
X189774Y162686D01*
X189832Y162593D01*
X189837Y162591D01*
X189836Y162587D01*
X189907Y162503D01*
X189913Y162502D01*
X189913Y162497D01*
X189997Y162426D01*
X190003Y162426D01*
X190003Y162422D01*
X190096Y162364D01*
X190102Y162365D01*
X190103Y162360D01*
X190205Y162318D01*
X190211Y162320D01*
X190213Y162316D01*
X190319Y162291D01*
X190324Y162293D01*
X190326Y162290D01*
X190436Y162281D01*
X190439Y162283D01*
X190440Y162281D01*
X195940Y162281D01*
X195943Y162283D01*
G37*
G36*
X157543Y157283D02*
X157543Y157283D01*
X157544Y157281D01*
X157654Y157290D01*
X157658Y157294D01*
X157661Y157291D01*
X157767Y157316D01*
X157771Y157321D01*
X157775Y157318D01*
X157877Y157360D01*
X157880Y157366D01*
X157884Y157364D01*
X157977Y157422D01*
X157979Y157427D01*
X157983Y157426D01*
X158067Y157497D01*
X158068Y157503D01*
X158073Y157503D01*
X158144Y157587D01*
X158144Y157593D01*
X158148Y157593D01*
X158206Y157686D01*
X158205Y157692D01*
X158210Y157693D01*
X158252Y157795D01*
X158250Y157801D01*
X158254Y157803D01*
X158279Y157909D01*
X158277Y157914D01*
X158280Y157916D01*
X158289Y158026D01*
X158287Y158029D01*
X158289Y158030D01*
X158280Y159340D01*
X158275Y159347D01*
X158279Y159351D01*
X158254Y159457D01*
X158249Y159461D01*
X158252Y159465D01*
X158210Y159567D01*
X158204Y159570D01*
X158206Y159574D01*
X158148Y159667D01*
X158143Y159669D01*
X158144Y159673D01*
X158073Y159757D01*
X158067Y159758D01*
X158067Y159763D01*
X157983Y159834D01*
X157977Y159834D01*
X157977Y159838D01*
X157884Y159896D01*
X157878Y159895D01*
X157877Y159900D01*
X157775Y159942D01*
X157769Y159940D01*
X157767Y159944D01*
X157661Y159969D01*
X157656Y159967D01*
X157654Y159970D01*
X157544Y159979D01*
X157541Y159977D01*
X157540Y159979D01*
X152040Y159979D01*
X152038Y159977D01*
X152036Y159979D01*
X151926Y159970D01*
X151922Y159966D01*
X151919Y159969D01*
X151813Y159944D01*
X151809Y159939D01*
X151805Y159942D01*
X151703Y159900D01*
X151700Y159894D01*
X151696Y159896D01*
X151603Y159838D01*
X151601Y159833D01*
X151597Y159834D01*
X151513Y159763D01*
X151512Y159757D01*
X151507Y159757D01*
X151436Y159673D01*
X151436Y159667D01*
X151432Y159667D01*
X151374Y159574D01*
X151375Y159568D01*
X151370Y159567D01*
X151328Y159465D01*
X151329Y159462D01*
X151327Y159461D01*
X151329Y159459D01*
X151326Y159457D01*
X151301Y159351D01*
X151303Y159346D01*
X151300Y159344D01*
X151291Y159234D01*
X151293Y159231D01*
X151291Y159230D01*
X151300Y157920D01*
X151305Y157913D01*
X151301Y157909D01*
X151326Y157803D01*
X151331Y157799D01*
X151328Y157795D01*
X151370Y157693D01*
X151376Y157690D01*
X151374Y157686D01*
X151432Y157593D01*
X151437Y157591D01*
X151436Y157587D01*
X151507Y157503D01*
X151513Y157502D01*
X151513Y157497D01*
X151597Y157426D01*
X151603Y157426D01*
X151603Y157422D01*
X151696Y157364D01*
X151702Y157365D01*
X151703Y157360D01*
X151805Y157318D01*
X151811Y157320D01*
X151813Y157316D01*
X151919Y157291D01*
X151924Y157293D01*
X151926Y157290D01*
X152036Y157281D01*
X152039Y157283D01*
X152040Y157281D01*
X157540Y157281D01*
X157543Y157283D01*
G37*
G36*
X195943Y157283D02*
X195943Y157283D01*
X195944Y157281D01*
X196054Y157290D01*
X196058Y157294D01*
X196061Y157291D01*
X196167Y157316D01*
X196171Y157321D01*
X196175Y157318D01*
X196277Y157360D01*
X196280Y157366D01*
X196284Y157364D01*
X196377Y157422D01*
X196379Y157427D01*
X196383Y157426D01*
X196467Y157497D01*
X196468Y157503D01*
X196473Y157503D01*
X196544Y157587D01*
X196544Y157593D01*
X196548Y157593D01*
X196606Y157686D01*
X196605Y157692D01*
X196610Y157693D01*
X196652Y157795D01*
X196650Y157801D01*
X196654Y157803D01*
X196679Y157909D01*
X196677Y157914D01*
X196680Y157916D01*
X196689Y158026D01*
X196687Y158029D01*
X196689Y158030D01*
X196680Y159340D01*
X196675Y159347D01*
X196679Y159351D01*
X196654Y159457D01*
X196649Y159461D01*
X196652Y159465D01*
X196610Y159567D01*
X196604Y159570D01*
X196606Y159574D01*
X196548Y159667D01*
X196543Y159669D01*
X196544Y159673D01*
X196473Y159757D01*
X196467Y159758D01*
X196467Y159763D01*
X196383Y159834D01*
X196377Y159834D01*
X196377Y159838D01*
X196284Y159896D01*
X196278Y159895D01*
X196277Y159900D01*
X196175Y159942D01*
X196169Y159940D01*
X196167Y159944D01*
X196061Y159969D01*
X196056Y159967D01*
X196054Y159970D01*
X195944Y159979D01*
X195941Y159977D01*
X195940Y159979D01*
X190440Y159979D01*
X190438Y159977D01*
X190436Y159979D01*
X190326Y159970D01*
X190322Y159966D01*
X190319Y159969D01*
X190213Y159944D01*
X190209Y159939D01*
X190205Y159942D01*
X190103Y159900D01*
X190100Y159894D01*
X190096Y159896D01*
X190003Y159838D01*
X190001Y159833D01*
X189997Y159834D01*
X189913Y159763D01*
X189912Y159757D01*
X189907Y159757D01*
X189836Y159673D01*
X189836Y159667D01*
X189832Y159667D01*
X189774Y159574D01*
X189775Y159568D01*
X189770Y159567D01*
X189728Y159465D01*
X189729Y159462D01*
X189727Y159461D01*
X189729Y159459D01*
X189726Y159457D01*
X189701Y159351D01*
X189703Y159346D01*
X189700Y159344D01*
X189691Y159234D01*
X189693Y159231D01*
X189691Y159230D01*
X189700Y157920D01*
X189705Y157913D01*
X189701Y157909D01*
X189726Y157803D01*
X189731Y157799D01*
X189728Y157795D01*
X189770Y157693D01*
X189776Y157690D01*
X189774Y157686D01*
X189832Y157593D01*
X189837Y157591D01*
X189836Y157587D01*
X189907Y157503D01*
X189913Y157502D01*
X189913Y157497D01*
X189997Y157426D01*
X190003Y157426D01*
X190003Y157422D01*
X190096Y157364D01*
X190102Y157365D01*
X190103Y157360D01*
X190205Y157318D01*
X190211Y157320D01*
X190213Y157316D01*
X190319Y157291D01*
X190324Y157293D01*
X190326Y157290D01*
X190436Y157281D01*
X190439Y157283D01*
X190440Y157281D01*
X195940Y157281D01*
X195943Y157283D01*
G37*
G36*
X195943Y152283D02*
X195943Y152283D01*
X195944Y152281D01*
X196054Y152290D01*
X196058Y152294D01*
X196061Y152291D01*
X196167Y152316D01*
X196171Y152321D01*
X196175Y152318D01*
X196277Y152360D01*
X196280Y152366D01*
X196284Y152364D01*
X196377Y152422D01*
X196379Y152427D01*
X196383Y152426D01*
X196467Y152497D01*
X196468Y152503D01*
X196473Y152503D01*
X196544Y152587D01*
X196544Y152593D01*
X196548Y152593D01*
X196606Y152686D01*
X196605Y152692D01*
X196610Y152693D01*
X196652Y152795D01*
X196650Y152801D01*
X196654Y152803D01*
X196679Y152909D01*
X196677Y152914D01*
X196680Y152916D01*
X196689Y153026D01*
X196687Y153029D01*
X196689Y153030D01*
X196680Y154340D01*
X196675Y154347D01*
X196679Y154351D01*
X196654Y154457D01*
X196649Y154461D01*
X196652Y154465D01*
X196610Y154567D01*
X196604Y154570D01*
X196606Y154574D01*
X196548Y154667D01*
X196543Y154669D01*
X196544Y154673D01*
X196473Y154757D01*
X196467Y154758D01*
X196467Y154763D01*
X196383Y154834D01*
X196377Y154834D01*
X196377Y154838D01*
X196284Y154896D01*
X196278Y154895D01*
X196277Y154900D01*
X196175Y154942D01*
X196169Y154940D01*
X196167Y154944D01*
X196061Y154969D01*
X196056Y154967D01*
X196054Y154970D01*
X195944Y154979D01*
X195941Y154977D01*
X195940Y154979D01*
X190440Y154979D01*
X190438Y154977D01*
X190436Y154979D01*
X190326Y154970D01*
X190322Y154966D01*
X190319Y154969D01*
X190213Y154944D01*
X190209Y154939D01*
X190205Y154942D01*
X190103Y154900D01*
X190100Y154894D01*
X190096Y154896D01*
X190003Y154838D01*
X190001Y154833D01*
X189997Y154834D01*
X189913Y154763D01*
X189912Y154757D01*
X189907Y154757D01*
X189836Y154673D01*
X189836Y154667D01*
X189832Y154667D01*
X189774Y154574D01*
X189775Y154568D01*
X189770Y154567D01*
X189728Y154465D01*
X189729Y154462D01*
X189727Y154461D01*
X189729Y154459D01*
X189726Y154457D01*
X189701Y154351D01*
X189703Y154346D01*
X189700Y154344D01*
X189691Y154234D01*
X189693Y154231D01*
X189691Y154230D01*
X189700Y152920D01*
X189705Y152913D01*
X189701Y152909D01*
X189726Y152803D01*
X189731Y152799D01*
X189728Y152795D01*
X189770Y152693D01*
X189776Y152690D01*
X189774Y152686D01*
X189832Y152593D01*
X189837Y152591D01*
X189836Y152587D01*
X189907Y152503D01*
X189913Y152502D01*
X189913Y152497D01*
X189997Y152426D01*
X190003Y152426D01*
X190003Y152422D01*
X190096Y152364D01*
X190102Y152365D01*
X190103Y152360D01*
X190205Y152318D01*
X190211Y152320D01*
X190213Y152316D01*
X190319Y152291D01*
X190324Y152293D01*
X190326Y152290D01*
X190436Y152281D01*
X190439Y152283D01*
X190440Y152281D01*
X195940Y152281D01*
X195943Y152283D01*
G37*
G36*
X157543Y152283D02*
X157543Y152283D01*
X157544Y152281D01*
X157654Y152290D01*
X157658Y152294D01*
X157661Y152291D01*
X157767Y152316D01*
X157771Y152321D01*
X157775Y152318D01*
X157877Y152360D01*
X157880Y152366D01*
X157884Y152364D01*
X157977Y152422D01*
X157979Y152427D01*
X157983Y152426D01*
X158067Y152497D01*
X158068Y152503D01*
X158073Y152503D01*
X158144Y152587D01*
X158144Y152593D01*
X158148Y152593D01*
X158206Y152686D01*
X158205Y152692D01*
X158210Y152693D01*
X158252Y152795D01*
X158250Y152801D01*
X158254Y152803D01*
X158279Y152909D01*
X158277Y152914D01*
X158280Y152916D01*
X158289Y153026D01*
X158287Y153029D01*
X158289Y153030D01*
X158280Y154340D01*
X158275Y154347D01*
X158279Y154351D01*
X158254Y154457D01*
X158249Y154461D01*
X158252Y154465D01*
X158210Y154567D01*
X158204Y154570D01*
X158206Y154574D01*
X158148Y154667D01*
X158143Y154669D01*
X158144Y154673D01*
X158073Y154757D01*
X158067Y154758D01*
X158067Y154763D01*
X157983Y154834D01*
X157977Y154834D01*
X157977Y154838D01*
X157884Y154896D01*
X157878Y154895D01*
X157877Y154900D01*
X157775Y154942D01*
X157769Y154940D01*
X157767Y154944D01*
X157661Y154969D01*
X157656Y154967D01*
X157654Y154970D01*
X157544Y154979D01*
X157541Y154977D01*
X157540Y154979D01*
X152040Y154979D01*
X152038Y154977D01*
X152036Y154979D01*
X151926Y154970D01*
X151922Y154966D01*
X151919Y154969D01*
X151813Y154944D01*
X151809Y154939D01*
X151805Y154942D01*
X151703Y154900D01*
X151700Y154894D01*
X151696Y154896D01*
X151603Y154838D01*
X151601Y154833D01*
X151597Y154834D01*
X151513Y154763D01*
X151512Y154757D01*
X151507Y154757D01*
X151436Y154673D01*
X151436Y154667D01*
X151432Y154667D01*
X151374Y154574D01*
X151375Y154568D01*
X151370Y154567D01*
X151328Y154465D01*
X151329Y154462D01*
X151327Y154461D01*
X151329Y154459D01*
X151326Y154457D01*
X151301Y154351D01*
X151303Y154346D01*
X151300Y154344D01*
X151291Y154234D01*
X151293Y154231D01*
X151291Y154230D01*
X151300Y152920D01*
X151305Y152913D01*
X151301Y152909D01*
X151326Y152803D01*
X151331Y152799D01*
X151328Y152795D01*
X151370Y152693D01*
X151376Y152690D01*
X151374Y152686D01*
X151432Y152593D01*
X151437Y152591D01*
X151436Y152587D01*
X151507Y152503D01*
X151513Y152502D01*
X151513Y152497D01*
X151597Y152426D01*
X151603Y152426D01*
X151603Y152422D01*
X151696Y152364D01*
X151702Y152365D01*
X151703Y152360D01*
X151805Y152318D01*
X151811Y152320D01*
X151813Y152316D01*
X151919Y152291D01*
X151924Y152293D01*
X151926Y152290D01*
X152036Y152281D01*
X152039Y152283D01*
X152040Y152281D01*
X157540Y152281D01*
X157543Y152283D01*
G37*
G36*
X195943Y147283D02*
X195943Y147283D01*
X195944Y147281D01*
X196054Y147290D01*
X196058Y147294D01*
X196061Y147291D01*
X196167Y147316D01*
X196171Y147321D01*
X196175Y147318D01*
X196277Y147360D01*
X196280Y147366D01*
X196284Y147364D01*
X196377Y147422D01*
X196379Y147427D01*
X196383Y147426D01*
X196467Y147497D01*
X196468Y147503D01*
X196473Y147503D01*
X196544Y147587D01*
X196544Y147593D01*
X196548Y147593D01*
X196606Y147686D01*
X196605Y147692D01*
X196610Y147693D01*
X196652Y147795D01*
X196650Y147801D01*
X196654Y147803D01*
X196679Y147909D01*
X196677Y147914D01*
X196680Y147916D01*
X196689Y148026D01*
X196687Y148029D01*
X196689Y148030D01*
X196680Y149340D01*
X196675Y149347D01*
X196679Y149351D01*
X196654Y149457D01*
X196649Y149461D01*
X196652Y149465D01*
X196610Y149567D01*
X196604Y149570D01*
X196606Y149574D01*
X196548Y149667D01*
X196543Y149669D01*
X196544Y149673D01*
X196473Y149757D01*
X196467Y149758D01*
X196467Y149763D01*
X196383Y149834D01*
X196377Y149834D01*
X196377Y149838D01*
X196284Y149896D01*
X196278Y149895D01*
X196277Y149900D01*
X196175Y149942D01*
X196169Y149940D01*
X196167Y149944D01*
X196061Y149969D01*
X196056Y149967D01*
X196054Y149970D01*
X195944Y149979D01*
X195941Y149977D01*
X195940Y149979D01*
X190440Y149979D01*
X190438Y149977D01*
X190436Y149979D01*
X190326Y149970D01*
X190322Y149966D01*
X190319Y149969D01*
X190213Y149944D01*
X190209Y149939D01*
X190205Y149942D01*
X190103Y149900D01*
X190100Y149894D01*
X190096Y149896D01*
X190003Y149838D01*
X190001Y149833D01*
X189997Y149834D01*
X189913Y149763D01*
X189912Y149757D01*
X189907Y149757D01*
X189836Y149673D01*
X189836Y149667D01*
X189832Y149667D01*
X189774Y149574D01*
X189775Y149568D01*
X189770Y149567D01*
X189728Y149465D01*
X189729Y149462D01*
X189727Y149461D01*
X189729Y149459D01*
X189726Y149457D01*
X189701Y149351D01*
X189703Y149346D01*
X189700Y149344D01*
X189691Y149234D01*
X189693Y149231D01*
X189691Y149230D01*
X189700Y147920D01*
X189705Y147913D01*
X189701Y147909D01*
X189726Y147803D01*
X189731Y147799D01*
X189728Y147795D01*
X189770Y147693D01*
X189776Y147690D01*
X189774Y147686D01*
X189832Y147593D01*
X189837Y147591D01*
X189836Y147587D01*
X189907Y147503D01*
X189913Y147502D01*
X189913Y147497D01*
X189997Y147426D01*
X190003Y147426D01*
X190003Y147422D01*
X190096Y147364D01*
X190102Y147365D01*
X190103Y147360D01*
X190205Y147318D01*
X190211Y147320D01*
X190213Y147316D01*
X190319Y147291D01*
X190324Y147293D01*
X190326Y147290D01*
X190436Y147281D01*
X190439Y147283D01*
X190440Y147281D01*
X195940Y147281D01*
X195943Y147283D01*
G37*
G36*
X157543Y147283D02*
X157543Y147283D01*
X157544Y147281D01*
X157654Y147290D01*
X157658Y147294D01*
X157661Y147291D01*
X157767Y147316D01*
X157771Y147321D01*
X157775Y147318D01*
X157877Y147360D01*
X157880Y147366D01*
X157884Y147364D01*
X157977Y147422D01*
X157979Y147427D01*
X157983Y147426D01*
X158067Y147497D01*
X158068Y147503D01*
X158073Y147503D01*
X158144Y147587D01*
X158144Y147593D01*
X158148Y147593D01*
X158206Y147686D01*
X158205Y147692D01*
X158210Y147693D01*
X158252Y147795D01*
X158250Y147801D01*
X158254Y147803D01*
X158279Y147909D01*
X158277Y147914D01*
X158280Y147916D01*
X158289Y148026D01*
X158287Y148029D01*
X158289Y148030D01*
X158280Y149340D01*
X158275Y149347D01*
X158279Y149351D01*
X158254Y149457D01*
X158249Y149461D01*
X158252Y149465D01*
X158210Y149567D01*
X158204Y149570D01*
X158206Y149574D01*
X158148Y149667D01*
X158143Y149669D01*
X158144Y149673D01*
X158073Y149757D01*
X158067Y149758D01*
X158067Y149763D01*
X157983Y149834D01*
X157977Y149834D01*
X157977Y149838D01*
X157884Y149896D01*
X157878Y149895D01*
X157877Y149900D01*
X157775Y149942D01*
X157769Y149940D01*
X157767Y149944D01*
X157661Y149969D01*
X157656Y149967D01*
X157654Y149970D01*
X157544Y149979D01*
X157541Y149977D01*
X157540Y149979D01*
X152040Y149979D01*
X152038Y149977D01*
X152036Y149979D01*
X151926Y149970D01*
X151922Y149966D01*
X151919Y149969D01*
X151813Y149944D01*
X151809Y149939D01*
X151805Y149942D01*
X151703Y149900D01*
X151700Y149894D01*
X151696Y149896D01*
X151603Y149838D01*
X151601Y149833D01*
X151597Y149834D01*
X151513Y149763D01*
X151512Y149757D01*
X151507Y149757D01*
X151436Y149673D01*
X151436Y149667D01*
X151432Y149667D01*
X151374Y149574D01*
X151375Y149568D01*
X151370Y149567D01*
X151328Y149465D01*
X151329Y149462D01*
X151327Y149461D01*
X151329Y149459D01*
X151326Y149457D01*
X151301Y149351D01*
X151303Y149346D01*
X151300Y149344D01*
X151291Y149234D01*
X151293Y149231D01*
X151291Y149230D01*
X151300Y147920D01*
X151305Y147913D01*
X151301Y147909D01*
X151326Y147803D01*
X151331Y147799D01*
X151328Y147795D01*
X151370Y147693D01*
X151376Y147690D01*
X151374Y147686D01*
X151432Y147593D01*
X151437Y147591D01*
X151436Y147587D01*
X151507Y147503D01*
X151513Y147502D01*
X151513Y147497D01*
X151597Y147426D01*
X151603Y147426D01*
X151603Y147422D01*
X151696Y147364D01*
X151702Y147365D01*
X151703Y147360D01*
X151805Y147318D01*
X151811Y147320D01*
X151813Y147316D01*
X151919Y147291D01*
X151924Y147293D01*
X151926Y147290D01*
X152036Y147281D01*
X152039Y147283D01*
X152040Y147281D01*
X157540Y147281D01*
X157543Y147283D01*
G37*
G36*
X157543Y142283D02*
X157543Y142283D01*
X157544Y142281D01*
X157654Y142290D01*
X157658Y142294D01*
X157661Y142291D01*
X157767Y142316D01*
X157771Y142321D01*
X157775Y142318D01*
X157877Y142360D01*
X157880Y142366D01*
X157884Y142364D01*
X157977Y142422D01*
X157979Y142427D01*
X157983Y142426D01*
X158067Y142497D01*
X158068Y142503D01*
X158073Y142503D01*
X158144Y142587D01*
X158144Y142593D01*
X158148Y142593D01*
X158206Y142686D01*
X158205Y142692D01*
X158210Y142693D01*
X158252Y142795D01*
X158250Y142801D01*
X158254Y142803D01*
X158279Y142909D01*
X158277Y142914D01*
X158280Y142916D01*
X158289Y143026D01*
X158287Y143029D01*
X158289Y143030D01*
X158280Y144340D01*
X158275Y144347D01*
X158279Y144351D01*
X158254Y144457D01*
X158249Y144461D01*
X158252Y144465D01*
X158210Y144567D01*
X158204Y144570D01*
X158206Y144574D01*
X158148Y144667D01*
X158143Y144669D01*
X158144Y144673D01*
X158073Y144757D01*
X158067Y144758D01*
X158067Y144763D01*
X157983Y144834D01*
X157977Y144834D01*
X157977Y144838D01*
X157884Y144896D01*
X157878Y144895D01*
X157877Y144900D01*
X157775Y144942D01*
X157769Y144940D01*
X157767Y144944D01*
X157661Y144969D01*
X157656Y144967D01*
X157654Y144970D01*
X157544Y144979D01*
X157541Y144977D01*
X157540Y144979D01*
X152040Y144979D01*
X152038Y144977D01*
X152036Y144979D01*
X151926Y144970D01*
X151922Y144966D01*
X151919Y144969D01*
X151813Y144944D01*
X151809Y144939D01*
X151805Y144942D01*
X151703Y144900D01*
X151700Y144894D01*
X151696Y144896D01*
X151603Y144838D01*
X151601Y144833D01*
X151597Y144834D01*
X151513Y144763D01*
X151512Y144757D01*
X151507Y144757D01*
X151436Y144673D01*
X151436Y144667D01*
X151432Y144667D01*
X151374Y144574D01*
X151375Y144568D01*
X151370Y144567D01*
X151328Y144465D01*
X151329Y144462D01*
X151327Y144461D01*
X151329Y144459D01*
X151326Y144457D01*
X151301Y144351D01*
X151303Y144346D01*
X151300Y144344D01*
X151291Y144234D01*
X151293Y144231D01*
X151291Y144230D01*
X151300Y142920D01*
X151305Y142913D01*
X151301Y142909D01*
X151326Y142803D01*
X151331Y142799D01*
X151328Y142795D01*
X151370Y142693D01*
X151376Y142690D01*
X151374Y142686D01*
X151432Y142593D01*
X151437Y142591D01*
X151436Y142587D01*
X151507Y142503D01*
X151513Y142502D01*
X151513Y142497D01*
X151597Y142426D01*
X151603Y142426D01*
X151603Y142422D01*
X151696Y142364D01*
X151702Y142365D01*
X151703Y142360D01*
X151805Y142318D01*
X151811Y142320D01*
X151813Y142316D01*
X151919Y142291D01*
X151924Y142293D01*
X151926Y142290D01*
X152036Y142281D01*
X152039Y142283D01*
X152040Y142281D01*
X157540Y142281D01*
X157543Y142283D01*
G37*
G36*
X195943Y142283D02*
X195943Y142283D01*
X195944Y142281D01*
X196054Y142290D01*
X196058Y142294D01*
X196061Y142291D01*
X196167Y142316D01*
X196171Y142321D01*
X196175Y142318D01*
X196277Y142360D01*
X196280Y142366D01*
X196284Y142364D01*
X196377Y142422D01*
X196379Y142427D01*
X196383Y142426D01*
X196467Y142497D01*
X196468Y142503D01*
X196473Y142503D01*
X196544Y142587D01*
X196544Y142593D01*
X196548Y142593D01*
X196606Y142686D01*
X196605Y142692D01*
X196610Y142693D01*
X196652Y142795D01*
X196650Y142801D01*
X196654Y142803D01*
X196679Y142909D01*
X196677Y142914D01*
X196680Y142916D01*
X196689Y143026D01*
X196687Y143029D01*
X196689Y143030D01*
X196680Y144340D01*
X196675Y144347D01*
X196679Y144351D01*
X196654Y144457D01*
X196649Y144461D01*
X196652Y144465D01*
X196610Y144567D01*
X196604Y144570D01*
X196606Y144574D01*
X196548Y144667D01*
X196543Y144669D01*
X196544Y144673D01*
X196473Y144757D01*
X196467Y144758D01*
X196467Y144763D01*
X196383Y144834D01*
X196377Y144834D01*
X196377Y144838D01*
X196284Y144896D01*
X196278Y144895D01*
X196277Y144900D01*
X196175Y144942D01*
X196169Y144940D01*
X196167Y144944D01*
X196061Y144969D01*
X196056Y144967D01*
X196054Y144970D01*
X195944Y144979D01*
X195941Y144977D01*
X195940Y144979D01*
X190440Y144979D01*
X190438Y144977D01*
X190436Y144979D01*
X190326Y144970D01*
X190322Y144966D01*
X190319Y144969D01*
X190213Y144944D01*
X190209Y144939D01*
X190205Y144942D01*
X190103Y144900D01*
X190100Y144894D01*
X190096Y144896D01*
X190003Y144838D01*
X190001Y144833D01*
X189997Y144834D01*
X189913Y144763D01*
X189912Y144757D01*
X189907Y144757D01*
X189836Y144673D01*
X189836Y144667D01*
X189832Y144667D01*
X189774Y144574D01*
X189775Y144568D01*
X189770Y144567D01*
X189728Y144465D01*
X189729Y144462D01*
X189727Y144461D01*
X189729Y144459D01*
X189726Y144457D01*
X189701Y144351D01*
X189703Y144346D01*
X189700Y144344D01*
X189691Y144234D01*
X189693Y144231D01*
X189691Y144230D01*
X189700Y142920D01*
X189705Y142913D01*
X189701Y142909D01*
X189726Y142803D01*
X189731Y142799D01*
X189728Y142795D01*
X189770Y142693D01*
X189776Y142690D01*
X189774Y142686D01*
X189832Y142593D01*
X189837Y142591D01*
X189836Y142587D01*
X189907Y142503D01*
X189913Y142502D01*
X189913Y142497D01*
X189997Y142426D01*
X190003Y142426D01*
X190003Y142422D01*
X190096Y142364D01*
X190102Y142365D01*
X190103Y142360D01*
X190205Y142318D01*
X190211Y142320D01*
X190213Y142316D01*
X190319Y142291D01*
X190324Y142293D01*
X190326Y142290D01*
X190436Y142281D01*
X190439Y142283D01*
X190440Y142281D01*
X195940Y142281D01*
X195943Y142283D01*
G37*
G36*
X195943Y137283D02*
X195943Y137283D01*
X195944Y137281D01*
X196054Y137290D01*
X196058Y137294D01*
X196061Y137291D01*
X196167Y137316D01*
X196171Y137321D01*
X196175Y137318D01*
X196277Y137360D01*
X196280Y137366D01*
X196284Y137364D01*
X196377Y137422D01*
X196379Y137427D01*
X196383Y137426D01*
X196467Y137497D01*
X196468Y137503D01*
X196473Y137503D01*
X196544Y137587D01*
X196544Y137593D01*
X196548Y137593D01*
X196606Y137686D01*
X196605Y137692D01*
X196610Y137693D01*
X196652Y137795D01*
X196650Y137801D01*
X196654Y137803D01*
X196679Y137909D01*
X196677Y137914D01*
X196680Y137916D01*
X196689Y138026D01*
X196687Y138029D01*
X196689Y138030D01*
X196680Y139340D01*
X196675Y139347D01*
X196679Y139351D01*
X196654Y139457D01*
X196649Y139461D01*
X196652Y139465D01*
X196610Y139567D01*
X196604Y139570D01*
X196606Y139574D01*
X196548Y139667D01*
X196543Y139669D01*
X196544Y139673D01*
X196473Y139757D01*
X196467Y139758D01*
X196467Y139763D01*
X196383Y139834D01*
X196377Y139834D01*
X196377Y139838D01*
X196284Y139896D01*
X196278Y139895D01*
X196277Y139900D01*
X196175Y139942D01*
X196169Y139940D01*
X196167Y139944D01*
X196061Y139969D01*
X196056Y139967D01*
X196054Y139970D01*
X195944Y139979D01*
X195941Y139977D01*
X195940Y139979D01*
X190440Y139979D01*
X190438Y139977D01*
X190436Y139979D01*
X190326Y139970D01*
X190322Y139966D01*
X190319Y139969D01*
X190213Y139944D01*
X190209Y139939D01*
X190205Y139942D01*
X190103Y139900D01*
X190100Y139894D01*
X190096Y139896D01*
X190003Y139838D01*
X190001Y139833D01*
X189997Y139834D01*
X189913Y139763D01*
X189912Y139757D01*
X189907Y139757D01*
X189836Y139673D01*
X189836Y139667D01*
X189832Y139667D01*
X189774Y139574D01*
X189775Y139568D01*
X189770Y139567D01*
X189728Y139465D01*
X189729Y139462D01*
X189727Y139461D01*
X189729Y139459D01*
X189726Y139457D01*
X189701Y139351D01*
X189703Y139346D01*
X189700Y139344D01*
X189691Y139234D01*
X189693Y139231D01*
X189691Y139230D01*
X189700Y137920D01*
X189705Y137913D01*
X189701Y137909D01*
X189726Y137803D01*
X189731Y137799D01*
X189728Y137795D01*
X189770Y137693D01*
X189776Y137690D01*
X189774Y137686D01*
X189832Y137593D01*
X189837Y137591D01*
X189836Y137587D01*
X189907Y137503D01*
X189913Y137502D01*
X189913Y137497D01*
X189997Y137426D01*
X190003Y137426D01*
X190003Y137422D01*
X190096Y137364D01*
X190102Y137365D01*
X190103Y137360D01*
X190205Y137318D01*
X190211Y137320D01*
X190213Y137316D01*
X190319Y137291D01*
X190324Y137293D01*
X190326Y137290D01*
X190436Y137281D01*
X190439Y137283D01*
X190440Y137281D01*
X195940Y137281D01*
X195943Y137283D01*
G37*
G36*
X157543Y137283D02*
X157543Y137283D01*
X157544Y137281D01*
X157654Y137290D01*
X157658Y137294D01*
X157661Y137291D01*
X157767Y137316D01*
X157771Y137321D01*
X157775Y137318D01*
X157877Y137360D01*
X157880Y137366D01*
X157884Y137364D01*
X157977Y137422D01*
X157979Y137427D01*
X157983Y137426D01*
X158067Y137497D01*
X158068Y137503D01*
X158073Y137503D01*
X158144Y137587D01*
X158144Y137593D01*
X158148Y137593D01*
X158206Y137686D01*
X158205Y137692D01*
X158210Y137693D01*
X158252Y137795D01*
X158250Y137801D01*
X158254Y137803D01*
X158279Y137909D01*
X158277Y137914D01*
X158280Y137916D01*
X158289Y138026D01*
X158287Y138029D01*
X158289Y138030D01*
X158280Y139340D01*
X158275Y139347D01*
X158279Y139351D01*
X158254Y139457D01*
X158249Y139461D01*
X158252Y139465D01*
X158210Y139567D01*
X158204Y139570D01*
X158206Y139574D01*
X158148Y139667D01*
X158143Y139669D01*
X158144Y139673D01*
X158073Y139757D01*
X158067Y139758D01*
X158067Y139763D01*
X157983Y139834D01*
X157977Y139834D01*
X157977Y139838D01*
X157884Y139896D01*
X157878Y139895D01*
X157877Y139900D01*
X157775Y139942D01*
X157769Y139940D01*
X157767Y139944D01*
X157661Y139969D01*
X157656Y139967D01*
X157654Y139970D01*
X157544Y139979D01*
X157541Y139977D01*
X157540Y139979D01*
X152040Y139979D01*
X152038Y139977D01*
X152036Y139979D01*
X151926Y139970D01*
X151922Y139966D01*
X151919Y139969D01*
X151813Y139944D01*
X151809Y139939D01*
X151805Y139942D01*
X151703Y139900D01*
X151700Y139894D01*
X151696Y139896D01*
X151603Y139838D01*
X151601Y139833D01*
X151597Y139834D01*
X151513Y139763D01*
X151512Y139757D01*
X151507Y139757D01*
X151436Y139673D01*
X151436Y139667D01*
X151432Y139667D01*
X151374Y139574D01*
X151375Y139568D01*
X151370Y139567D01*
X151328Y139465D01*
X151329Y139462D01*
X151327Y139461D01*
X151329Y139459D01*
X151326Y139457D01*
X151301Y139351D01*
X151303Y139346D01*
X151300Y139344D01*
X151291Y139234D01*
X151293Y139231D01*
X151291Y139230D01*
X151300Y137920D01*
X151305Y137913D01*
X151301Y137909D01*
X151326Y137803D01*
X151331Y137799D01*
X151328Y137795D01*
X151370Y137693D01*
X151376Y137690D01*
X151374Y137686D01*
X151432Y137593D01*
X151437Y137591D01*
X151436Y137587D01*
X151507Y137503D01*
X151513Y137502D01*
X151513Y137497D01*
X151597Y137426D01*
X151603Y137426D01*
X151603Y137422D01*
X151696Y137364D01*
X151702Y137365D01*
X151703Y137360D01*
X151805Y137318D01*
X151811Y137320D01*
X151813Y137316D01*
X151919Y137291D01*
X151924Y137293D01*
X151926Y137290D01*
X152036Y137281D01*
X152039Y137283D01*
X152040Y137281D01*
X157540Y137281D01*
X157543Y137283D01*
G37*
G36*
X172200Y166840D02*
X172200Y166840D01*
X172207Y166845D01*
X172211Y166841D01*
X172317Y166866D01*
X172321Y166871D01*
X172325Y166868D01*
X172427Y166910D01*
X172430Y166916D01*
X172434Y166914D01*
X172527Y166972D01*
X172529Y166977D01*
X172533Y166976D01*
X172617Y167047D01*
X172618Y167053D01*
X172623Y167053D01*
X172694Y167137D01*
X172694Y167143D01*
X172698Y167143D01*
X172756Y167236D01*
X172755Y167242D01*
X172760Y167243D01*
X172802Y167345D01*
X172800Y167351D01*
X172804Y167353D01*
X172829Y167459D01*
X172827Y167464D01*
X172830Y167466D01*
X172839Y167576D01*
X172837Y167579D01*
X172839Y167580D01*
X172839Y173080D01*
X172837Y173083D01*
X172839Y173084D01*
X172830Y173194D01*
X172826Y173198D01*
X172829Y173201D01*
X172804Y173307D01*
X172799Y173311D01*
X172802Y173315D01*
X172760Y173417D01*
X172754Y173420D01*
X172756Y173424D01*
X172698Y173517D01*
X172693Y173519D01*
X172694Y173523D01*
X172623Y173607D01*
X172617Y173608D01*
X172617Y173613D01*
X172533Y173684D01*
X172527Y173684D01*
X172527Y173688D01*
X172434Y173746D01*
X172428Y173745D01*
X172427Y173750D01*
X172325Y173792D01*
X172319Y173790D01*
X172317Y173794D01*
X172211Y173819D01*
X172206Y173817D01*
X172204Y173820D01*
X172094Y173829D01*
X172091Y173827D01*
X172090Y173829D01*
X170780Y173820D01*
X170773Y173815D01*
X170769Y173819D01*
X170663Y173794D01*
X170659Y173789D01*
X170655Y173792D01*
X170553Y173750D01*
X170550Y173744D01*
X170546Y173746D01*
X170453Y173688D01*
X170451Y173683D01*
X170447Y173684D01*
X170363Y173613D01*
X170362Y173607D01*
X170357Y173607D01*
X170286Y173523D01*
X170286Y173517D01*
X170282Y173517D01*
X170224Y173424D01*
X170225Y173418D01*
X170220Y173417D01*
X170178Y173315D01*
X170180Y173309D01*
X170176Y173307D01*
X170151Y173201D01*
X170152Y173198D01*
X170151Y173197D01*
X170152Y173196D01*
X170150Y173194D01*
X170141Y173084D01*
X170143Y173081D01*
X170141Y173080D01*
X170141Y167580D01*
X170143Y167578D01*
X170141Y167576D01*
X170150Y167466D01*
X170154Y167462D01*
X170151Y167459D01*
X170176Y167353D01*
X170181Y167349D01*
X170178Y167345D01*
X170220Y167243D01*
X170226Y167240D01*
X170224Y167236D01*
X170282Y167143D01*
X170287Y167141D01*
X170286Y167137D01*
X170357Y167053D01*
X170363Y167052D01*
X170363Y167047D01*
X170447Y166976D01*
X170453Y166976D01*
X170453Y166972D01*
X170546Y166914D01*
X170552Y166915D01*
X170553Y166910D01*
X170655Y166868D01*
X170661Y166870D01*
X170663Y166866D01*
X170769Y166841D01*
X170774Y166843D01*
X170776Y166840D01*
X170886Y166831D01*
X170889Y166833D01*
X170890Y166831D01*
X172200Y166840D01*
G37*
G36*
X187200Y166840D02*
X187200Y166840D01*
X187207Y166845D01*
X187211Y166841D01*
X187317Y166866D01*
X187321Y166871D01*
X187325Y166868D01*
X187427Y166910D01*
X187430Y166916D01*
X187434Y166914D01*
X187527Y166972D01*
X187529Y166977D01*
X187533Y166976D01*
X187617Y167047D01*
X187618Y167053D01*
X187623Y167053D01*
X187694Y167137D01*
X187694Y167143D01*
X187698Y167143D01*
X187756Y167236D01*
X187755Y167242D01*
X187760Y167243D01*
X187802Y167345D01*
X187800Y167351D01*
X187804Y167353D01*
X187829Y167459D01*
X187827Y167464D01*
X187830Y167466D01*
X187839Y167576D01*
X187837Y167579D01*
X187839Y167580D01*
X187839Y173080D01*
X187837Y173083D01*
X187839Y173084D01*
X187830Y173194D01*
X187826Y173198D01*
X187829Y173201D01*
X187804Y173307D01*
X187799Y173311D01*
X187802Y173315D01*
X187760Y173417D01*
X187754Y173420D01*
X187756Y173424D01*
X187698Y173517D01*
X187693Y173519D01*
X187694Y173523D01*
X187623Y173607D01*
X187617Y173608D01*
X187617Y173613D01*
X187533Y173684D01*
X187527Y173684D01*
X187527Y173688D01*
X187434Y173746D01*
X187428Y173745D01*
X187427Y173750D01*
X187325Y173792D01*
X187319Y173790D01*
X187317Y173794D01*
X187211Y173819D01*
X187206Y173817D01*
X187204Y173820D01*
X187094Y173829D01*
X187091Y173827D01*
X187090Y173829D01*
X185780Y173820D01*
X185773Y173815D01*
X185769Y173819D01*
X185663Y173794D01*
X185659Y173789D01*
X185655Y173792D01*
X185553Y173750D01*
X185550Y173744D01*
X185546Y173746D01*
X185453Y173688D01*
X185451Y173683D01*
X185447Y173684D01*
X185363Y173613D01*
X185362Y173607D01*
X185357Y173607D01*
X185286Y173523D01*
X185286Y173517D01*
X185282Y173517D01*
X185224Y173424D01*
X185225Y173418D01*
X185220Y173417D01*
X185178Y173315D01*
X185180Y173309D01*
X185176Y173307D01*
X185151Y173201D01*
X185152Y173198D01*
X185151Y173197D01*
X185152Y173196D01*
X185150Y173194D01*
X185141Y173084D01*
X185143Y173081D01*
X185141Y173080D01*
X185141Y167580D01*
X185143Y167578D01*
X185141Y167576D01*
X185150Y167466D01*
X185154Y167462D01*
X185151Y167459D01*
X185176Y167353D01*
X185181Y167349D01*
X185178Y167345D01*
X185220Y167243D01*
X185226Y167240D01*
X185224Y167236D01*
X185282Y167143D01*
X185287Y167141D01*
X185286Y167137D01*
X185357Y167053D01*
X185363Y167052D01*
X185363Y167047D01*
X185447Y166976D01*
X185453Y166976D01*
X185453Y166972D01*
X185546Y166914D01*
X185552Y166915D01*
X185553Y166910D01*
X185655Y166868D01*
X185661Y166870D01*
X185663Y166866D01*
X185769Y166841D01*
X185774Y166843D01*
X185776Y166840D01*
X185886Y166831D01*
X185889Y166833D01*
X185890Y166831D01*
X187200Y166840D01*
G37*
G36*
X162200Y166840D02*
X162200Y166840D01*
X162207Y166845D01*
X162211Y166841D01*
X162317Y166866D01*
X162321Y166871D01*
X162325Y166868D01*
X162427Y166910D01*
X162430Y166916D01*
X162434Y166914D01*
X162527Y166972D01*
X162529Y166977D01*
X162533Y166976D01*
X162617Y167047D01*
X162618Y167053D01*
X162623Y167053D01*
X162694Y167137D01*
X162694Y167143D01*
X162698Y167143D01*
X162756Y167236D01*
X162755Y167242D01*
X162760Y167243D01*
X162802Y167345D01*
X162800Y167351D01*
X162804Y167353D01*
X162829Y167459D01*
X162827Y167464D01*
X162830Y167466D01*
X162839Y167576D01*
X162837Y167579D01*
X162839Y167580D01*
X162839Y173080D01*
X162837Y173083D01*
X162839Y173084D01*
X162830Y173194D01*
X162826Y173198D01*
X162829Y173201D01*
X162804Y173307D01*
X162799Y173311D01*
X162802Y173315D01*
X162760Y173417D01*
X162754Y173420D01*
X162756Y173424D01*
X162698Y173517D01*
X162693Y173519D01*
X162694Y173523D01*
X162623Y173607D01*
X162617Y173608D01*
X162617Y173613D01*
X162533Y173684D01*
X162527Y173684D01*
X162527Y173688D01*
X162434Y173746D01*
X162428Y173745D01*
X162427Y173750D01*
X162325Y173792D01*
X162319Y173790D01*
X162317Y173794D01*
X162211Y173819D01*
X162206Y173817D01*
X162204Y173820D01*
X162094Y173829D01*
X162091Y173827D01*
X162090Y173829D01*
X160780Y173820D01*
X160773Y173815D01*
X160769Y173819D01*
X160663Y173794D01*
X160659Y173789D01*
X160655Y173792D01*
X160553Y173750D01*
X160550Y173744D01*
X160546Y173746D01*
X160453Y173688D01*
X160451Y173683D01*
X160447Y173684D01*
X160363Y173613D01*
X160362Y173607D01*
X160357Y173607D01*
X160286Y173523D01*
X160286Y173517D01*
X160282Y173517D01*
X160224Y173424D01*
X160225Y173418D01*
X160220Y173417D01*
X160178Y173315D01*
X160180Y173309D01*
X160176Y173307D01*
X160151Y173201D01*
X160152Y173198D01*
X160151Y173197D01*
X160152Y173196D01*
X160150Y173194D01*
X160141Y173084D01*
X160143Y173081D01*
X160141Y173080D01*
X160141Y167580D01*
X160143Y167578D01*
X160141Y167576D01*
X160150Y167466D01*
X160154Y167462D01*
X160151Y167459D01*
X160176Y167353D01*
X160181Y167349D01*
X160178Y167345D01*
X160220Y167243D01*
X160226Y167240D01*
X160224Y167236D01*
X160282Y167143D01*
X160287Y167141D01*
X160286Y167137D01*
X160357Y167053D01*
X160363Y167052D01*
X160363Y167047D01*
X160447Y166976D01*
X160453Y166976D01*
X160453Y166972D01*
X160546Y166914D01*
X160552Y166915D01*
X160553Y166910D01*
X160655Y166868D01*
X160661Y166870D01*
X160663Y166866D01*
X160769Y166841D01*
X160774Y166843D01*
X160776Y166840D01*
X160886Y166831D01*
X160889Y166833D01*
X160890Y166831D01*
X162200Y166840D01*
G37*
G36*
X167200Y166840D02*
X167200Y166840D01*
X167207Y166845D01*
X167211Y166841D01*
X167317Y166866D01*
X167321Y166871D01*
X167325Y166868D01*
X167427Y166910D01*
X167430Y166916D01*
X167434Y166914D01*
X167527Y166972D01*
X167529Y166977D01*
X167533Y166976D01*
X167617Y167047D01*
X167618Y167053D01*
X167623Y167053D01*
X167694Y167137D01*
X167694Y167143D01*
X167698Y167143D01*
X167756Y167236D01*
X167755Y167242D01*
X167760Y167243D01*
X167802Y167345D01*
X167800Y167351D01*
X167804Y167353D01*
X167829Y167459D01*
X167827Y167464D01*
X167830Y167466D01*
X167839Y167576D01*
X167837Y167579D01*
X167839Y167580D01*
X167839Y173080D01*
X167837Y173083D01*
X167839Y173084D01*
X167830Y173194D01*
X167826Y173198D01*
X167829Y173201D01*
X167804Y173307D01*
X167799Y173311D01*
X167802Y173315D01*
X167760Y173417D01*
X167754Y173420D01*
X167756Y173424D01*
X167698Y173517D01*
X167693Y173519D01*
X167694Y173523D01*
X167623Y173607D01*
X167617Y173608D01*
X167617Y173613D01*
X167533Y173684D01*
X167527Y173684D01*
X167527Y173688D01*
X167434Y173746D01*
X167428Y173745D01*
X167427Y173750D01*
X167325Y173792D01*
X167319Y173790D01*
X167317Y173794D01*
X167211Y173819D01*
X167206Y173817D01*
X167204Y173820D01*
X167094Y173829D01*
X167091Y173827D01*
X167090Y173829D01*
X165780Y173820D01*
X165773Y173815D01*
X165769Y173819D01*
X165663Y173794D01*
X165659Y173789D01*
X165655Y173792D01*
X165553Y173750D01*
X165550Y173744D01*
X165546Y173746D01*
X165453Y173688D01*
X165451Y173683D01*
X165447Y173684D01*
X165363Y173613D01*
X165362Y173607D01*
X165357Y173607D01*
X165286Y173523D01*
X165286Y173517D01*
X165282Y173517D01*
X165224Y173424D01*
X165225Y173418D01*
X165220Y173417D01*
X165178Y173315D01*
X165180Y173309D01*
X165176Y173307D01*
X165151Y173201D01*
X165152Y173198D01*
X165151Y173197D01*
X165152Y173196D01*
X165150Y173194D01*
X165141Y173084D01*
X165143Y173081D01*
X165141Y173080D01*
X165141Y167580D01*
X165143Y167578D01*
X165141Y167576D01*
X165150Y167466D01*
X165154Y167462D01*
X165151Y167459D01*
X165176Y167353D01*
X165181Y167349D01*
X165178Y167345D01*
X165220Y167243D01*
X165226Y167240D01*
X165224Y167236D01*
X165282Y167143D01*
X165287Y167141D01*
X165286Y167137D01*
X165357Y167053D01*
X165363Y167052D01*
X165363Y167047D01*
X165447Y166976D01*
X165453Y166976D01*
X165453Y166972D01*
X165546Y166914D01*
X165552Y166915D01*
X165553Y166910D01*
X165655Y166868D01*
X165661Y166870D01*
X165663Y166866D01*
X165769Y166841D01*
X165774Y166843D01*
X165776Y166840D01*
X165886Y166831D01*
X165889Y166833D01*
X165890Y166831D01*
X167200Y166840D01*
G37*
G36*
X177200Y166840D02*
X177200Y166840D01*
X177207Y166845D01*
X177211Y166841D01*
X177317Y166866D01*
X177321Y166871D01*
X177325Y166868D01*
X177427Y166910D01*
X177430Y166916D01*
X177434Y166914D01*
X177527Y166972D01*
X177529Y166977D01*
X177533Y166976D01*
X177617Y167047D01*
X177618Y167053D01*
X177623Y167053D01*
X177694Y167137D01*
X177694Y167143D01*
X177698Y167143D01*
X177756Y167236D01*
X177755Y167242D01*
X177760Y167243D01*
X177802Y167345D01*
X177800Y167351D01*
X177804Y167353D01*
X177829Y167459D01*
X177827Y167464D01*
X177830Y167466D01*
X177839Y167576D01*
X177837Y167579D01*
X177839Y167580D01*
X177839Y173080D01*
X177837Y173083D01*
X177839Y173084D01*
X177830Y173194D01*
X177826Y173198D01*
X177829Y173201D01*
X177804Y173307D01*
X177799Y173311D01*
X177802Y173315D01*
X177760Y173417D01*
X177754Y173420D01*
X177756Y173424D01*
X177698Y173517D01*
X177693Y173519D01*
X177694Y173523D01*
X177623Y173607D01*
X177617Y173608D01*
X177617Y173613D01*
X177533Y173684D01*
X177527Y173684D01*
X177527Y173688D01*
X177434Y173746D01*
X177428Y173745D01*
X177427Y173750D01*
X177325Y173792D01*
X177319Y173790D01*
X177317Y173794D01*
X177211Y173819D01*
X177206Y173817D01*
X177204Y173820D01*
X177094Y173829D01*
X177091Y173827D01*
X177090Y173829D01*
X175780Y173820D01*
X175773Y173815D01*
X175769Y173819D01*
X175663Y173794D01*
X175659Y173789D01*
X175655Y173792D01*
X175553Y173750D01*
X175550Y173744D01*
X175546Y173746D01*
X175453Y173688D01*
X175451Y173683D01*
X175447Y173684D01*
X175363Y173613D01*
X175362Y173607D01*
X175357Y173607D01*
X175286Y173523D01*
X175286Y173517D01*
X175282Y173517D01*
X175224Y173424D01*
X175225Y173418D01*
X175220Y173417D01*
X175178Y173315D01*
X175180Y173309D01*
X175176Y173307D01*
X175151Y173201D01*
X175152Y173198D01*
X175151Y173197D01*
X175152Y173196D01*
X175150Y173194D01*
X175141Y173084D01*
X175143Y173081D01*
X175141Y173080D01*
X175141Y167580D01*
X175143Y167578D01*
X175141Y167576D01*
X175150Y167466D01*
X175154Y167462D01*
X175151Y167459D01*
X175176Y167353D01*
X175181Y167349D01*
X175178Y167345D01*
X175220Y167243D01*
X175226Y167240D01*
X175224Y167236D01*
X175282Y167143D01*
X175287Y167141D01*
X175286Y167137D01*
X175357Y167053D01*
X175363Y167052D01*
X175363Y167047D01*
X175447Y166976D01*
X175453Y166976D01*
X175453Y166972D01*
X175546Y166914D01*
X175552Y166915D01*
X175553Y166910D01*
X175655Y166868D01*
X175661Y166870D01*
X175663Y166866D01*
X175769Y166841D01*
X175774Y166843D01*
X175776Y166840D01*
X175886Y166831D01*
X175889Y166833D01*
X175890Y166831D01*
X177200Y166840D01*
G37*
G36*
X182200Y166840D02*
X182200Y166840D01*
X182207Y166845D01*
X182211Y166841D01*
X182317Y166866D01*
X182321Y166871D01*
X182325Y166868D01*
X182427Y166910D01*
X182430Y166916D01*
X182434Y166914D01*
X182527Y166972D01*
X182529Y166977D01*
X182533Y166976D01*
X182617Y167047D01*
X182618Y167053D01*
X182623Y167053D01*
X182694Y167137D01*
X182694Y167143D01*
X182698Y167143D01*
X182756Y167236D01*
X182755Y167242D01*
X182760Y167243D01*
X182802Y167345D01*
X182800Y167351D01*
X182804Y167353D01*
X182829Y167459D01*
X182827Y167464D01*
X182830Y167466D01*
X182839Y167576D01*
X182837Y167579D01*
X182839Y167580D01*
X182839Y173080D01*
X182837Y173083D01*
X182839Y173084D01*
X182830Y173194D01*
X182826Y173198D01*
X182829Y173201D01*
X182804Y173307D01*
X182799Y173311D01*
X182802Y173315D01*
X182760Y173417D01*
X182754Y173420D01*
X182756Y173424D01*
X182698Y173517D01*
X182693Y173519D01*
X182694Y173523D01*
X182623Y173607D01*
X182617Y173608D01*
X182617Y173613D01*
X182533Y173684D01*
X182527Y173684D01*
X182527Y173688D01*
X182434Y173746D01*
X182428Y173745D01*
X182427Y173750D01*
X182325Y173792D01*
X182319Y173790D01*
X182317Y173794D01*
X182211Y173819D01*
X182206Y173817D01*
X182204Y173820D01*
X182094Y173829D01*
X182091Y173827D01*
X182090Y173829D01*
X180780Y173820D01*
X180773Y173815D01*
X180769Y173819D01*
X180663Y173794D01*
X180659Y173789D01*
X180655Y173792D01*
X180553Y173750D01*
X180550Y173744D01*
X180546Y173746D01*
X180453Y173688D01*
X180451Y173683D01*
X180447Y173684D01*
X180363Y173613D01*
X180362Y173607D01*
X180357Y173607D01*
X180286Y173523D01*
X180286Y173517D01*
X180282Y173517D01*
X180224Y173424D01*
X180225Y173418D01*
X180220Y173417D01*
X180178Y173315D01*
X180180Y173309D01*
X180176Y173307D01*
X180151Y173201D01*
X180152Y173198D01*
X180151Y173197D01*
X180152Y173196D01*
X180150Y173194D01*
X180141Y173084D01*
X180143Y173081D01*
X180141Y173080D01*
X180141Y167580D01*
X180143Y167578D01*
X180141Y167576D01*
X180150Y167466D01*
X180154Y167462D01*
X180151Y167459D01*
X180176Y167353D01*
X180181Y167349D01*
X180178Y167345D01*
X180220Y167243D01*
X180226Y167240D01*
X180224Y167236D01*
X180282Y167143D01*
X180287Y167141D01*
X180286Y167137D01*
X180357Y167053D01*
X180363Y167052D01*
X180363Y167047D01*
X180447Y166976D01*
X180453Y166976D01*
X180453Y166972D01*
X180546Y166914D01*
X180552Y166915D01*
X180553Y166910D01*
X180655Y166868D01*
X180661Y166870D01*
X180663Y166866D01*
X180769Y166841D01*
X180774Y166843D01*
X180776Y166840D01*
X180886Y166831D01*
X180889Y166833D01*
X180890Y166831D01*
X182200Y166840D01*
G37*
G36*
X167200Y128440D02*
X167200Y128440D01*
X167207Y128445D01*
X167211Y128441D01*
X167317Y128466D01*
X167321Y128471D01*
X167325Y128468D01*
X167427Y128510D01*
X167430Y128516D01*
X167434Y128514D01*
X167527Y128572D01*
X167529Y128577D01*
X167533Y128576D01*
X167617Y128647D01*
X167618Y128653D01*
X167623Y128653D01*
X167694Y128737D01*
X167694Y128743D01*
X167698Y128743D01*
X167756Y128836D01*
X167755Y128842D01*
X167760Y128843D01*
X167802Y128945D01*
X167800Y128951D01*
X167804Y128953D01*
X167829Y129059D01*
X167827Y129064D01*
X167830Y129066D01*
X167839Y129176D01*
X167837Y129179D01*
X167839Y129180D01*
X167839Y134680D01*
X167837Y134683D01*
X167839Y134684D01*
X167830Y134794D01*
X167826Y134798D01*
X167829Y134801D01*
X167804Y134907D01*
X167799Y134911D01*
X167802Y134915D01*
X167760Y135017D01*
X167754Y135020D01*
X167756Y135024D01*
X167698Y135117D01*
X167693Y135119D01*
X167694Y135123D01*
X167623Y135207D01*
X167617Y135208D01*
X167617Y135213D01*
X167533Y135284D01*
X167527Y135284D01*
X167527Y135288D01*
X167434Y135346D01*
X167428Y135345D01*
X167427Y135350D01*
X167325Y135392D01*
X167319Y135390D01*
X167317Y135394D01*
X167211Y135419D01*
X167206Y135417D01*
X167204Y135420D01*
X167094Y135429D01*
X167091Y135427D01*
X167090Y135429D01*
X165780Y135420D01*
X165773Y135415D01*
X165769Y135419D01*
X165663Y135394D01*
X165659Y135389D01*
X165655Y135392D01*
X165553Y135350D01*
X165550Y135344D01*
X165546Y135346D01*
X165453Y135288D01*
X165451Y135283D01*
X165447Y135284D01*
X165363Y135213D01*
X165362Y135207D01*
X165357Y135207D01*
X165286Y135123D01*
X165286Y135117D01*
X165282Y135117D01*
X165224Y135024D01*
X165225Y135018D01*
X165220Y135017D01*
X165178Y134915D01*
X165180Y134909D01*
X165176Y134907D01*
X165151Y134801D01*
X165152Y134798D01*
X165151Y134797D01*
X165152Y134796D01*
X165150Y134794D01*
X165141Y134684D01*
X165143Y134681D01*
X165141Y134680D01*
X165141Y129180D01*
X165143Y129178D01*
X165141Y129176D01*
X165150Y129066D01*
X165154Y129062D01*
X165151Y129059D01*
X165176Y128953D01*
X165181Y128949D01*
X165178Y128945D01*
X165220Y128843D01*
X165226Y128840D01*
X165224Y128836D01*
X165282Y128743D01*
X165287Y128741D01*
X165286Y128737D01*
X165357Y128653D01*
X165363Y128652D01*
X165363Y128647D01*
X165447Y128576D01*
X165453Y128576D01*
X165453Y128572D01*
X165546Y128514D01*
X165552Y128515D01*
X165553Y128510D01*
X165655Y128468D01*
X165661Y128470D01*
X165663Y128466D01*
X165769Y128441D01*
X165774Y128443D01*
X165776Y128440D01*
X165886Y128431D01*
X165889Y128433D01*
X165890Y128431D01*
X167200Y128440D01*
G37*
G36*
X172200Y128440D02*
X172200Y128440D01*
X172207Y128445D01*
X172211Y128441D01*
X172317Y128466D01*
X172321Y128471D01*
X172325Y128468D01*
X172427Y128510D01*
X172430Y128516D01*
X172434Y128514D01*
X172527Y128572D01*
X172529Y128577D01*
X172533Y128576D01*
X172617Y128647D01*
X172618Y128653D01*
X172623Y128653D01*
X172694Y128737D01*
X172694Y128743D01*
X172698Y128743D01*
X172756Y128836D01*
X172755Y128842D01*
X172760Y128843D01*
X172802Y128945D01*
X172800Y128951D01*
X172804Y128953D01*
X172829Y129059D01*
X172827Y129064D01*
X172830Y129066D01*
X172839Y129176D01*
X172837Y129179D01*
X172839Y129180D01*
X172839Y134680D01*
X172837Y134683D01*
X172839Y134684D01*
X172830Y134794D01*
X172826Y134798D01*
X172829Y134801D01*
X172804Y134907D01*
X172799Y134911D01*
X172802Y134915D01*
X172760Y135017D01*
X172754Y135020D01*
X172756Y135024D01*
X172698Y135117D01*
X172693Y135119D01*
X172694Y135123D01*
X172623Y135207D01*
X172617Y135208D01*
X172617Y135213D01*
X172533Y135284D01*
X172527Y135284D01*
X172527Y135288D01*
X172434Y135346D01*
X172428Y135345D01*
X172427Y135350D01*
X172325Y135392D01*
X172319Y135390D01*
X172317Y135394D01*
X172211Y135419D01*
X172206Y135417D01*
X172204Y135420D01*
X172094Y135429D01*
X172091Y135427D01*
X172090Y135429D01*
X170780Y135420D01*
X170773Y135415D01*
X170769Y135419D01*
X170663Y135394D01*
X170659Y135389D01*
X170655Y135392D01*
X170553Y135350D01*
X170550Y135344D01*
X170546Y135346D01*
X170453Y135288D01*
X170451Y135283D01*
X170447Y135284D01*
X170363Y135213D01*
X170362Y135207D01*
X170357Y135207D01*
X170286Y135123D01*
X170286Y135117D01*
X170282Y135117D01*
X170224Y135024D01*
X170225Y135018D01*
X170220Y135017D01*
X170178Y134915D01*
X170180Y134909D01*
X170176Y134907D01*
X170151Y134801D01*
X170152Y134798D01*
X170151Y134797D01*
X170152Y134796D01*
X170150Y134794D01*
X170141Y134684D01*
X170143Y134681D01*
X170141Y134680D01*
X170141Y129180D01*
X170143Y129178D01*
X170141Y129176D01*
X170150Y129066D01*
X170154Y129062D01*
X170151Y129059D01*
X170176Y128953D01*
X170181Y128949D01*
X170178Y128945D01*
X170220Y128843D01*
X170226Y128840D01*
X170224Y128836D01*
X170282Y128743D01*
X170287Y128741D01*
X170286Y128737D01*
X170357Y128653D01*
X170363Y128652D01*
X170363Y128647D01*
X170447Y128576D01*
X170453Y128576D01*
X170453Y128572D01*
X170546Y128514D01*
X170552Y128515D01*
X170553Y128510D01*
X170655Y128468D01*
X170661Y128470D01*
X170663Y128466D01*
X170769Y128441D01*
X170774Y128443D01*
X170776Y128440D01*
X170886Y128431D01*
X170889Y128433D01*
X170890Y128431D01*
X172200Y128440D01*
G37*
G36*
X182200Y128440D02*
X182200Y128440D01*
X182207Y128445D01*
X182211Y128441D01*
X182317Y128466D01*
X182321Y128471D01*
X182325Y128468D01*
X182427Y128510D01*
X182430Y128516D01*
X182434Y128514D01*
X182527Y128572D01*
X182529Y128577D01*
X182533Y128576D01*
X182617Y128647D01*
X182618Y128653D01*
X182623Y128653D01*
X182694Y128737D01*
X182694Y128743D01*
X182698Y128743D01*
X182756Y128836D01*
X182755Y128842D01*
X182760Y128843D01*
X182802Y128945D01*
X182800Y128951D01*
X182804Y128953D01*
X182829Y129059D01*
X182827Y129064D01*
X182830Y129066D01*
X182839Y129176D01*
X182837Y129179D01*
X182839Y129180D01*
X182839Y134680D01*
X182837Y134683D01*
X182839Y134684D01*
X182830Y134794D01*
X182826Y134798D01*
X182829Y134801D01*
X182804Y134907D01*
X182799Y134911D01*
X182802Y134915D01*
X182760Y135017D01*
X182754Y135020D01*
X182756Y135024D01*
X182698Y135117D01*
X182693Y135119D01*
X182694Y135123D01*
X182623Y135207D01*
X182617Y135208D01*
X182617Y135213D01*
X182533Y135284D01*
X182527Y135284D01*
X182527Y135288D01*
X182434Y135346D01*
X182428Y135345D01*
X182427Y135350D01*
X182325Y135392D01*
X182319Y135390D01*
X182317Y135394D01*
X182211Y135419D01*
X182206Y135417D01*
X182204Y135420D01*
X182094Y135429D01*
X182091Y135427D01*
X182090Y135429D01*
X180780Y135420D01*
X180773Y135415D01*
X180769Y135419D01*
X180663Y135394D01*
X180659Y135389D01*
X180655Y135392D01*
X180553Y135350D01*
X180550Y135344D01*
X180546Y135346D01*
X180453Y135288D01*
X180451Y135283D01*
X180447Y135284D01*
X180363Y135213D01*
X180362Y135207D01*
X180357Y135207D01*
X180286Y135123D01*
X180286Y135117D01*
X180282Y135117D01*
X180224Y135024D01*
X180225Y135018D01*
X180220Y135017D01*
X180178Y134915D01*
X180180Y134909D01*
X180176Y134907D01*
X180151Y134801D01*
X180152Y134798D01*
X180151Y134797D01*
X180152Y134796D01*
X180150Y134794D01*
X180141Y134684D01*
X180143Y134681D01*
X180141Y134680D01*
X180141Y129180D01*
X180143Y129178D01*
X180141Y129176D01*
X180150Y129066D01*
X180154Y129062D01*
X180151Y129059D01*
X180176Y128953D01*
X180181Y128949D01*
X180178Y128945D01*
X180220Y128843D01*
X180226Y128840D01*
X180224Y128836D01*
X180282Y128743D01*
X180287Y128741D01*
X180286Y128737D01*
X180357Y128653D01*
X180363Y128652D01*
X180363Y128647D01*
X180447Y128576D01*
X180453Y128576D01*
X180453Y128572D01*
X180546Y128514D01*
X180552Y128515D01*
X180553Y128510D01*
X180655Y128468D01*
X180661Y128470D01*
X180663Y128466D01*
X180769Y128441D01*
X180774Y128443D01*
X180776Y128440D01*
X180886Y128431D01*
X180889Y128433D01*
X180890Y128431D01*
X182200Y128440D01*
G37*
G36*
X162200Y128440D02*
X162200Y128440D01*
X162207Y128445D01*
X162211Y128441D01*
X162317Y128466D01*
X162321Y128471D01*
X162325Y128468D01*
X162427Y128510D01*
X162430Y128516D01*
X162434Y128514D01*
X162527Y128572D01*
X162529Y128577D01*
X162533Y128576D01*
X162617Y128647D01*
X162618Y128653D01*
X162623Y128653D01*
X162694Y128737D01*
X162694Y128743D01*
X162698Y128743D01*
X162756Y128836D01*
X162755Y128842D01*
X162760Y128843D01*
X162802Y128945D01*
X162800Y128951D01*
X162804Y128953D01*
X162829Y129059D01*
X162827Y129064D01*
X162830Y129066D01*
X162839Y129176D01*
X162837Y129179D01*
X162839Y129180D01*
X162839Y134680D01*
X162837Y134683D01*
X162839Y134684D01*
X162830Y134794D01*
X162826Y134798D01*
X162829Y134801D01*
X162804Y134907D01*
X162799Y134911D01*
X162802Y134915D01*
X162760Y135017D01*
X162754Y135020D01*
X162756Y135024D01*
X162698Y135117D01*
X162693Y135119D01*
X162694Y135123D01*
X162623Y135207D01*
X162617Y135208D01*
X162617Y135213D01*
X162533Y135284D01*
X162527Y135284D01*
X162527Y135288D01*
X162434Y135346D01*
X162428Y135345D01*
X162427Y135350D01*
X162325Y135392D01*
X162319Y135390D01*
X162317Y135394D01*
X162211Y135419D01*
X162206Y135417D01*
X162204Y135420D01*
X162094Y135429D01*
X162091Y135427D01*
X162090Y135429D01*
X160780Y135420D01*
X160773Y135415D01*
X160769Y135419D01*
X160663Y135394D01*
X160659Y135389D01*
X160655Y135392D01*
X160553Y135350D01*
X160550Y135344D01*
X160546Y135346D01*
X160453Y135288D01*
X160451Y135283D01*
X160447Y135284D01*
X160363Y135213D01*
X160362Y135207D01*
X160357Y135207D01*
X160286Y135123D01*
X160286Y135117D01*
X160282Y135117D01*
X160224Y135024D01*
X160225Y135018D01*
X160220Y135017D01*
X160178Y134915D01*
X160180Y134909D01*
X160176Y134907D01*
X160151Y134801D01*
X160152Y134798D01*
X160151Y134797D01*
X160152Y134796D01*
X160150Y134794D01*
X160141Y134684D01*
X160143Y134681D01*
X160141Y134680D01*
X160141Y129180D01*
X160143Y129178D01*
X160141Y129176D01*
X160150Y129066D01*
X160154Y129062D01*
X160151Y129059D01*
X160176Y128953D01*
X160181Y128949D01*
X160178Y128945D01*
X160220Y128843D01*
X160226Y128840D01*
X160224Y128836D01*
X160282Y128743D01*
X160287Y128741D01*
X160286Y128737D01*
X160357Y128653D01*
X160363Y128652D01*
X160363Y128647D01*
X160447Y128576D01*
X160453Y128576D01*
X160453Y128572D01*
X160546Y128514D01*
X160552Y128515D01*
X160553Y128510D01*
X160655Y128468D01*
X160661Y128470D01*
X160663Y128466D01*
X160769Y128441D01*
X160774Y128443D01*
X160776Y128440D01*
X160886Y128431D01*
X160889Y128433D01*
X160890Y128431D01*
X162200Y128440D01*
G37*
G36*
X187200Y128440D02*
X187200Y128440D01*
X187207Y128445D01*
X187211Y128441D01*
X187317Y128466D01*
X187321Y128471D01*
X187325Y128468D01*
X187427Y128510D01*
X187430Y128516D01*
X187434Y128514D01*
X187527Y128572D01*
X187529Y128577D01*
X187533Y128576D01*
X187617Y128647D01*
X187618Y128653D01*
X187623Y128653D01*
X187694Y128737D01*
X187694Y128743D01*
X187698Y128743D01*
X187756Y128836D01*
X187755Y128842D01*
X187760Y128843D01*
X187802Y128945D01*
X187800Y128951D01*
X187804Y128953D01*
X187829Y129059D01*
X187827Y129064D01*
X187830Y129066D01*
X187839Y129176D01*
X187837Y129179D01*
X187839Y129180D01*
X187839Y134680D01*
X187837Y134683D01*
X187839Y134684D01*
X187830Y134794D01*
X187826Y134798D01*
X187829Y134801D01*
X187804Y134907D01*
X187799Y134911D01*
X187802Y134915D01*
X187760Y135017D01*
X187754Y135020D01*
X187756Y135024D01*
X187698Y135117D01*
X187693Y135119D01*
X187694Y135123D01*
X187623Y135207D01*
X187617Y135208D01*
X187617Y135213D01*
X187533Y135284D01*
X187527Y135284D01*
X187527Y135288D01*
X187434Y135346D01*
X187428Y135345D01*
X187427Y135350D01*
X187325Y135392D01*
X187319Y135390D01*
X187317Y135394D01*
X187211Y135419D01*
X187206Y135417D01*
X187204Y135420D01*
X187094Y135429D01*
X187091Y135427D01*
X187090Y135429D01*
X185780Y135420D01*
X185773Y135415D01*
X185769Y135419D01*
X185663Y135394D01*
X185659Y135389D01*
X185655Y135392D01*
X185553Y135350D01*
X185550Y135344D01*
X185546Y135346D01*
X185453Y135288D01*
X185451Y135283D01*
X185447Y135284D01*
X185363Y135213D01*
X185362Y135207D01*
X185357Y135207D01*
X185286Y135123D01*
X185286Y135117D01*
X185282Y135117D01*
X185224Y135024D01*
X185225Y135018D01*
X185220Y135017D01*
X185178Y134915D01*
X185180Y134909D01*
X185176Y134907D01*
X185151Y134801D01*
X185152Y134798D01*
X185151Y134797D01*
X185152Y134796D01*
X185150Y134794D01*
X185141Y134684D01*
X185143Y134681D01*
X185141Y134680D01*
X185141Y129180D01*
X185143Y129178D01*
X185141Y129176D01*
X185150Y129066D01*
X185154Y129062D01*
X185151Y129059D01*
X185176Y128953D01*
X185181Y128949D01*
X185178Y128945D01*
X185220Y128843D01*
X185226Y128840D01*
X185224Y128836D01*
X185282Y128743D01*
X185287Y128741D01*
X185286Y128737D01*
X185357Y128653D01*
X185363Y128652D01*
X185363Y128647D01*
X185447Y128576D01*
X185453Y128576D01*
X185453Y128572D01*
X185546Y128514D01*
X185552Y128515D01*
X185553Y128510D01*
X185655Y128468D01*
X185661Y128470D01*
X185663Y128466D01*
X185769Y128441D01*
X185774Y128443D01*
X185776Y128440D01*
X185886Y128431D01*
X185889Y128433D01*
X185890Y128431D01*
X187200Y128440D01*
G37*
G36*
X177200Y128440D02*
X177200Y128440D01*
X177207Y128445D01*
X177211Y128441D01*
X177317Y128466D01*
X177321Y128471D01*
X177325Y128468D01*
X177427Y128510D01*
X177430Y128516D01*
X177434Y128514D01*
X177527Y128572D01*
X177529Y128577D01*
X177533Y128576D01*
X177617Y128647D01*
X177618Y128653D01*
X177623Y128653D01*
X177694Y128737D01*
X177694Y128743D01*
X177698Y128743D01*
X177756Y128836D01*
X177755Y128842D01*
X177760Y128843D01*
X177802Y128945D01*
X177800Y128951D01*
X177804Y128953D01*
X177829Y129059D01*
X177827Y129064D01*
X177830Y129066D01*
X177839Y129176D01*
X177837Y129179D01*
X177839Y129180D01*
X177839Y134680D01*
X177837Y134683D01*
X177839Y134684D01*
X177830Y134794D01*
X177826Y134798D01*
X177829Y134801D01*
X177804Y134907D01*
X177799Y134911D01*
X177802Y134915D01*
X177760Y135017D01*
X177754Y135020D01*
X177756Y135024D01*
X177698Y135117D01*
X177693Y135119D01*
X177694Y135123D01*
X177623Y135207D01*
X177617Y135208D01*
X177617Y135213D01*
X177533Y135284D01*
X177527Y135284D01*
X177527Y135288D01*
X177434Y135346D01*
X177428Y135345D01*
X177427Y135350D01*
X177325Y135392D01*
X177319Y135390D01*
X177317Y135394D01*
X177211Y135419D01*
X177206Y135417D01*
X177204Y135420D01*
X177094Y135429D01*
X177091Y135427D01*
X177090Y135429D01*
X175780Y135420D01*
X175773Y135415D01*
X175769Y135419D01*
X175663Y135394D01*
X175659Y135389D01*
X175655Y135392D01*
X175553Y135350D01*
X175550Y135344D01*
X175546Y135346D01*
X175453Y135288D01*
X175451Y135283D01*
X175447Y135284D01*
X175363Y135213D01*
X175362Y135207D01*
X175357Y135207D01*
X175286Y135123D01*
X175286Y135117D01*
X175282Y135117D01*
X175224Y135024D01*
X175225Y135018D01*
X175220Y135017D01*
X175178Y134915D01*
X175180Y134909D01*
X175176Y134907D01*
X175151Y134801D01*
X175152Y134798D01*
X175151Y134797D01*
X175152Y134796D01*
X175150Y134794D01*
X175141Y134684D01*
X175143Y134681D01*
X175141Y134680D01*
X175141Y129180D01*
X175143Y129178D01*
X175141Y129176D01*
X175150Y129066D01*
X175154Y129062D01*
X175151Y129059D01*
X175176Y128953D01*
X175181Y128949D01*
X175178Y128945D01*
X175220Y128843D01*
X175226Y128840D01*
X175224Y128836D01*
X175282Y128743D01*
X175287Y128741D01*
X175286Y128737D01*
X175357Y128653D01*
X175363Y128652D01*
X175363Y128647D01*
X175447Y128576D01*
X175453Y128576D01*
X175453Y128572D01*
X175546Y128514D01*
X175552Y128515D01*
X175553Y128510D01*
X175655Y128468D01*
X175661Y128470D01*
X175663Y128466D01*
X175769Y128441D01*
X175774Y128443D01*
X175776Y128440D01*
X175886Y128431D01*
X175889Y128433D01*
X175890Y128431D01*
X177200Y128440D01*
G37*
D10*
X313055Y312420D03*
X313055Y20320D03*
X20955Y20320D03*
X20955Y312420D03*
D11*
X121285Y358775D03*
X196215Y358775D03*
D12*
X242044Y107950D02*
X242046Y108034D01*
X242052Y108118D01*
X242062Y108202D01*
X242075Y108285D01*
X242093Y108367D01*
X242115Y108449D01*
X242140Y108529D01*
X242169Y108608D01*
X242202Y108686D01*
X242238Y108762D01*
X242278Y108836D01*
X242321Y108908D01*
X242367Y108978D01*
X242417Y109046D01*
X242470Y109112D01*
X242526Y109175D01*
X242585Y109235D01*
X242647Y109292D01*
X242711Y109347D01*
X242778Y109398D01*
X242847Y109446D01*
X242918Y109491D01*
X242991Y109533D01*
X243066Y109571D01*
X243143Y109605D01*
X243221Y109636D01*
X243301Y109663D01*
X243382Y109687D01*
X243464Y109706D01*
X243547Y109722D01*
X243630Y109734D01*
X243714Y109742D01*
X243798Y109746D01*
X243882Y109746D01*
X243966Y109742D01*
X244050Y109734D01*
X244133Y109722D01*
X244216Y109706D01*
X244298Y109687D01*
X244379Y109663D01*
X244459Y109636D01*
X244537Y109605D01*
X244614Y109571D01*
X244689Y109533D01*
X244762Y109491D01*
X244833Y109446D01*
X244902Y109398D01*
X244969Y109347D01*
X245033Y109292D01*
X245095Y109235D01*
X245154Y109175D01*
X245210Y109112D01*
X245263Y109046D01*
X245313Y108978D01*
X245359Y108908D01*
X245402Y108836D01*
X245442Y108762D01*
X245478Y108686D01*
X245511Y108608D01*
X245540Y108529D01*
X245565Y108449D01*
X245587Y108367D01*
X245605Y108285D01*
X245618Y108202D01*
X245628Y108118D01*
X245634Y108034D01*
X245636Y107950D01*
X245634Y107866D01*
X245628Y107782D01*
X245618Y107698D01*
X245605Y107615D01*
X245587Y107533D01*
X245565Y107451D01*
X245540Y107371D01*
X245511Y107292D01*
X245478Y107214D01*
X245442Y107138D01*
X245402Y107064D01*
X245359Y106992D01*
X245313Y106922D01*
X245263Y106854D01*
X245210Y106788D01*
X245154Y106725D01*
X245095Y106665D01*
X245033Y106608D01*
X244969Y106553D01*
X244902Y106502D01*
X244833Y106454D01*
X244762Y106409D01*
X244689Y106367D01*
X244614Y106329D01*
X244537Y106295D01*
X244459Y106264D01*
X244379Y106237D01*
X244298Y106213D01*
X244216Y106194D01*
X244133Y106178D01*
X244050Y106166D01*
X243966Y106158D01*
X243882Y106154D01*
X243798Y106154D01*
X243714Y106158D01*
X243630Y106166D01*
X243547Y106178D01*
X243464Y106194D01*
X243382Y106213D01*
X243301Y106237D01*
X243221Y106264D01*
X243143Y106295D01*
X243066Y106329D01*
X242991Y106367D01*
X242918Y106409D01*
X242847Y106454D01*
X242778Y106502D01*
X242711Y106553D01*
X242647Y106608D01*
X242585Y106665D01*
X242526Y106725D01*
X242470Y106788D01*
X242417Y106854D01*
X242367Y106922D01*
X242321Y106992D01*
X242278Y107064D01*
X242238Y107138D01*
X242202Y107214D01*
X242169Y107292D01*
X242140Y107371D01*
X242115Y107451D01*
X242093Y107533D01*
X242075Y107615D01*
X242062Y107698D01*
X242052Y107782D01*
X242046Y107866D01*
X242044Y107950D01*
D13*
X123190Y351790D03*
D14*
X62230Y69990D03*
X62230Y87490D03*
D15*
X119380Y255190D03*
X119380Y245190D03*
D14*
X185420Y63360D03*
X185420Y45860D03*
X259080Y62090D03*
X259080Y44590D03*
X219710Y97650D03*
X219710Y80150D03*
X267970Y114160D03*
X267970Y96660D03*
X242570Y144640D03*
X242570Y127140D03*
D16*
X227470Y227330D03*
X244970Y227330D03*
D14*
X157480Y96380D03*
X157480Y78880D03*
D17*
X230090Y193040D03*
X257590Y193040D03*
D16*
X223380Y127000D03*
X205880Y127000D03*
X142100Y124460D03*
X124600Y124460D03*
D15*
X67310Y262810D03*
X67310Y252810D03*
D16*
X123050Y165100D03*
X105550Y165100D03*
X71260Y102870D03*
X88760Y102870D03*
D14*
X53340Y247790D03*
X53340Y265290D03*
D18*
X227720Y212090D03*
X244720Y212090D03*
D19*
X204470Y79900D03*
X204470Y97900D03*
X142240Y78630D03*
X142240Y96630D03*
D20*
X164720Y289970D03*
X164720Y296470D03*
X164720Y302970D03*
X164720Y309470D03*
X180720Y309470D03*
X180720Y302970D03*
X180720Y296470D03*
X180720Y289970D03*
D21*
X170840Y82418D03*
X180340Y82418D03*
X189840Y82418D03*
X189840Y105543D03*
X170840Y105543D03*
D22*
X237490Y62340D03*
X237490Y44340D03*
X163830Y63610D03*
X163830Y45610D03*
D23*
X227330Y18970D03*
X227330Y8970D03*
X199390Y50880D03*
X199390Y60880D03*
X129540Y148510D03*
X129540Y138510D03*
X283210Y52150D03*
X283210Y62150D03*
X295910Y67230D03*
X295910Y57230D03*
D24*
X261620Y136376D03*
X261620Y165884D03*
D23*
X64770Y126920D03*
X64770Y116920D03*
D25*
X219630Y154940D03*
X209630Y154940D03*
X219630Y168910D03*
X209630Y168910D03*
X149940Y110490D03*
X159940Y110490D03*
X141050Y289560D03*
X151050Y289560D03*
X141050Y314960D03*
X151050Y314960D03*
D15*
X109140Y233680D03*
X99140Y233680D03*
D25*
X141050Y303530D03*
X151050Y303530D03*
D23*
X196850Y293450D03*
X196850Y303450D03*
D25*
X105490Y177800D03*
X115490Y177800D03*
D23*
X105410Y148510D03*
X105410Y138510D03*
X116840Y190580D03*
X116840Y200580D03*
X91440Y116920D03*
X91440Y126920D03*
X76200Y116920D03*
X76200Y126920D03*
X105410Y200580D03*
X105410Y190580D03*
X128270Y192960D03*
X128270Y182960D03*
D15*
X267970Y284400D03*
X267970Y274400D03*
D23*
X118110Y138510D03*
X118110Y148510D03*
X267970Y249000D03*
X267970Y259000D03*
D15*
X86280Y233680D03*
X76280Y233680D03*
D25*
X113110Y58420D03*
X123110Y58420D03*
D23*
X269240Y52150D03*
X269240Y62150D03*
X210820Y8970D03*
X210820Y18970D03*
D26*
X284300Y243460D03*
X284300Y259460D03*
X325300Y259460D03*
X325300Y243460D03*
D27*
X140450Y34810D03*
X220450Y34810D03*
D28*
X244813Y26323D02*
X257867Y26323D01*
X244813Y26323D02*
X244813Y30777D01*
X257867Y30777D01*
X257867Y26323D01*
X257867Y29144D02*
X244813Y29144D01*
X244813Y16823D02*
X257867Y16823D01*
X244813Y16823D02*
X244813Y21277D01*
X257867Y21277D01*
X257867Y16823D01*
X257867Y19644D02*
X244813Y19644D01*
X244813Y7323D02*
X257867Y7323D01*
X244813Y7323D02*
X244813Y11777D01*
X257867Y11777D01*
X257867Y7323D01*
X257867Y10144D02*
X244813Y10144D01*
X267913Y7323D02*
X280967Y7323D01*
X267913Y7323D02*
X267913Y11777D01*
X280967Y11777D01*
X280967Y7323D01*
X280967Y10144D02*
X267913Y10144D01*
X267913Y16823D02*
X280967Y16823D01*
X267913Y16823D02*
X267913Y21277D01*
X280967Y21277D01*
X280967Y16823D01*
X280967Y19644D02*
X267913Y19644D01*
X267913Y26323D02*
X280967Y26323D01*
X267913Y26323D02*
X267913Y30777D01*
X280967Y30777D01*
X280967Y26323D01*
X280967Y29144D02*
X267913Y29144D01*
X176587Y26323D02*
X163533Y26323D01*
X163533Y30777D01*
X176587Y30777D01*
X176587Y26323D01*
X176587Y29144D02*
X163533Y29144D01*
X163533Y16823D02*
X176587Y16823D01*
X163533Y16823D02*
X163533Y21277D01*
X176587Y21277D01*
X176587Y16823D01*
X176587Y19644D02*
X163533Y19644D01*
X163533Y7323D02*
X176587Y7323D01*
X163533Y7323D02*
X163533Y11777D01*
X176587Y11777D01*
X176587Y7323D01*
X176587Y10144D02*
X163533Y10144D01*
X186633Y7323D02*
X199687Y7323D01*
X186633Y7323D02*
X186633Y11777D01*
X199687Y11777D01*
X199687Y7323D01*
X199687Y10144D02*
X186633Y10144D01*
X186633Y16823D02*
X199687Y16823D01*
X186633Y16823D02*
X186633Y21277D01*
X199687Y21277D01*
X199687Y16823D01*
X199687Y19644D02*
X186633Y19644D01*
X186633Y26323D02*
X199687Y26323D01*
X186633Y26323D02*
X186633Y30777D01*
X199687Y30777D01*
X199687Y26323D01*
X199687Y29144D02*
X186633Y29144D01*
D29*
X73077Y136673D02*
X73077Y151367D01*
X73077Y136673D02*
X69983Y136673D01*
X69983Y151367D01*
X73077Y151367D01*
X73077Y139077D02*
X69983Y139077D01*
X69983Y141481D02*
X73077Y141481D01*
X73077Y143885D02*
X69983Y143885D01*
X69983Y146289D02*
X73077Y146289D01*
X73077Y148693D02*
X69983Y148693D01*
X69983Y151097D02*
X73077Y151097D01*
X79577Y151367D02*
X79577Y136673D01*
X76483Y136673D01*
X76483Y151367D01*
X79577Y151367D01*
X79577Y139077D02*
X76483Y139077D01*
X76483Y141481D02*
X79577Y141481D01*
X79577Y143885D02*
X76483Y143885D01*
X76483Y146289D02*
X79577Y146289D01*
X79577Y148693D02*
X76483Y148693D01*
X76483Y151097D02*
X79577Y151097D01*
X86077Y151367D02*
X86077Y136673D01*
X82983Y136673D01*
X82983Y151367D01*
X86077Y151367D01*
X86077Y139077D02*
X82983Y139077D01*
X82983Y141481D02*
X86077Y141481D01*
X86077Y143885D02*
X82983Y143885D01*
X82983Y146289D02*
X86077Y146289D01*
X86077Y148693D02*
X82983Y148693D01*
X82983Y151097D02*
X86077Y151097D01*
X92577Y151367D02*
X92577Y136673D01*
X89483Y136673D01*
X89483Y151367D01*
X92577Y151367D01*
X92577Y139077D02*
X89483Y139077D01*
X89483Y141481D02*
X92577Y141481D01*
X92577Y143885D02*
X89483Y143885D01*
X89483Y146289D02*
X92577Y146289D01*
X92577Y148693D02*
X89483Y148693D01*
X89483Y151097D02*
X92577Y151097D01*
X92577Y194073D02*
X92577Y208767D01*
X92577Y194073D02*
X89483Y194073D01*
X89483Y208767D01*
X92577Y208767D01*
X92577Y196477D02*
X89483Y196477D01*
X89483Y198881D02*
X92577Y198881D01*
X92577Y201285D02*
X89483Y201285D01*
X89483Y203689D02*
X92577Y203689D01*
X92577Y206093D02*
X89483Y206093D01*
X89483Y208497D02*
X92577Y208497D01*
X86077Y208767D02*
X86077Y194073D01*
X82983Y194073D01*
X82983Y208767D01*
X86077Y208767D01*
X86077Y196477D02*
X82983Y196477D01*
X82983Y198881D02*
X86077Y198881D01*
X86077Y201285D02*
X82983Y201285D01*
X82983Y203689D02*
X86077Y203689D01*
X86077Y206093D02*
X82983Y206093D01*
X82983Y208497D02*
X86077Y208497D01*
X79577Y208767D02*
X79577Y194073D01*
X76483Y194073D01*
X76483Y208767D01*
X79577Y208767D01*
X79577Y196477D02*
X76483Y196477D01*
X76483Y198881D02*
X79577Y198881D01*
X79577Y201285D02*
X76483Y201285D01*
X76483Y203689D02*
X79577Y203689D01*
X79577Y206093D02*
X76483Y206093D01*
X76483Y208497D02*
X79577Y208497D01*
X73077Y208767D02*
X73077Y194073D01*
X69983Y194073D01*
X69983Y208767D01*
X73077Y208767D01*
X73077Y196477D02*
X69983Y196477D01*
X69983Y198881D02*
X73077Y198881D01*
X73077Y201285D02*
X69983Y201285D01*
X69983Y203689D02*
X73077Y203689D01*
X73077Y206093D02*
X69983Y206093D01*
X69983Y208497D02*
X73077Y208497D01*
D30*
X107340Y80979D03*
X116840Y80979D03*
X126340Y80979D03*
X126340Y106981D03*
X107340Y106981D03*
D31*
X198049Y264071D02*
X198049Y272019D01*
X198049Y264071D02*
X196851Y264071D01*
X196851Y272019D01*
X198049Y272019D01*
X198049Y266281D02*
X196851Y266281D01*
X196851Y268491D02*
X198049Y268491D01*
X198049Y270701D02*
X196851Y270701D01*
X194049Y272019D02*
X194049Y264071D01*
X192851Y264071D01*
X192851Y272019D01*
X194049Y272019D01*
X194049Y266281D02*
X192851Y266281D01*
X192851Y268491D02*
X194049Y268491D01*
X194049Y270701D02*
X192851Y270701D01*
X190049Y272019D02*
X190049Y264071D01*
X188851Y264071D01*
X188851Y272019D01*
X190049Y272019D01*
X190049Y266281D02*
X188851Y266281D01*
X188851Y268491D02*
X190049Y268491D01*
X190049Y270701D02*
X188851Y270701D01*
X186049Y272019D02*
X186049Y264071D01*
X184851Y264071D01*
X184851Y272019D01*
X186049Y272019D01*
X186049Y266281D02*
X184851Y266281D01*
X184851Y268491D02*
X186049Y268491D01*
X186049Y270701D02*
X184851Y270701D01*
X182049Y272019D02*
X182049Y264071D01*
X180851Y264071D01*
X180851Y272019D01*
X182049Y272019D01*
X182049Y266281D02*
X180851Y266281D01*
X180851Y268491D02*
X182049Y268491D01*
X182049Y270701D02*
X180851Y270701D01*
X178049Y272019D02*
X178049Y264071D01*
X176851Y264071D01*
X176851Y272019D01*
X178049Y272019D01*
X178049Y266281D02*
X176851Y266281D01*
X176851Y268491D02*
X178049Y268491D01*
X178049Y270701D02*
X176851Y270701D01*
X172851Y272019D02*
X172851Y264071D01*
X172851Y272019D02*
X174049Y272019D01*
X174049Y264071D01*
X172851Y264071D01*
X172851Y266281D02*
X174049Y266281D01*
X174049Y268491D02*
X172851Y268491D01*
X172851Y270701D02*
X174049Y270701D01*
D32*
X171450Y233680D03*
D31*
X170049Y264071D02*
X170049Y272019D01*
X170049Y264071D02*
X168851Y264071D01*
X168851Y272019D01*
X170049Y272019D01*
X170049Y266281D02*
X168851Y266281D01*
X168851Y268491D02*
X170049Y268491D01*
X170049Y270701D02*
X168851Y270701D01*
X166049Y272019D02*
X166049Y264071D01*
X164851Y264071D01*
X164851Y272019D01*
X166049Y272019D01*
X166049Y266281D02*
X164851Y266281D01*
X164851Y268491D02*
X166049Y268491D01*
X166049Y270701D02*
X164851Y270701D01*
X162049Y272019D02*
X162049Y264071D01*
X160851Y264071D01*
X160851Y272019D01*
X162049Y272019D01*
X162049Y266281D02*
X160851Y266281D01*
X160851Y268491D02*
X162049Y268491D01*
X162049Y270701D02*
X160851Y270701D01*
X158049Y272019D02*
X158049Y264071D01*
X156851Y264071D01*
X156851Y272019D01*
X158049Y272019D01*
X158049Y266281D02*
X156851Y266281D01*
X156851Y268491D02*
X158049Y268491D01*
X158049Y270701D02*
X156851Y270701D01*
X154049Y272019D02*
X154049Y264071D01*
X152851Y264071D01*
X152851Y272019D01*
X154049Y272019D01*
X154049Y266281D02*
X152851Y266281D01*
X152851Y268491D02*
X154049Y268491D01*
X154049Y270701D02*
X152851Y270701D01*
X150049Y272019D02*
X150049Y264071D01*
X148851Y264071D01*
X148851Y272019D01*
X150049Y272019D01*
X150049Y266281D02*
X148851Y266281D01*
X148851Y268491D02*
X150049Y268491D01*
X150049Y270701D02*
X148851Y270701D01*
X144851Y272019D02*
X144851Y264071D01*
X144851Y272019D02*
X146049Y272019D01*
X146049Y264071D01*
X144851Y264071D01*
X144851Y266281D02*
X146049Y266281D01*
X146049Y268491D02*
X144851Y268491D01*
X144851Y270701D02*
X146049Y270701D01*
X141059Y260279D02*
X133111Y260279D01*
X141059Y260279D02*
X141059Y259081D01*
X133111Y259081D01*
X133111Y260279D01*
X133111Y256279D02*
X141059Y256279D01*
X141059Y255081D01*
X133111Y255081D01*
X133111Y256279D01*
X133111Y252279D02*
X141059Y252279D01*
X141059Y251081D01*
X133111Y251081D01*
X133111Y252279D01*
X133111Y248279D02*
X141059Y248279D01*
X141059Y247081D01*
X133111Y247081D01*
X133111Y248279D01*
X133111Y244279D02*
X141059Y244279D01*
X141059Y243081D01*
X133111Y243081D01*
X133111Y244279D01*
X133111Y240279D02*
X141059Y240279D01*
X141059Y239081D01*
X133111Y239081D01*
X133111Y240279D01*
X133111Y235081D02*
X141059Y235081D01*
X133111Y235081D02*
X133111Y236279D01*
X141059Y236279D01*
X141059Y235081D01*
X141059Y232279D02*
X133111Y232279D01*
X141059Y232279D02*
X141059Y231081D01*
X133111Y231081D01*
X133111Y232279D01*
X133111Y228279D02*
X141059Y228279D01*
X141059Y227081D01*
X133111Y227081D01*
X133111Y228279D01*
X133111Y224279D02*
X141059Y224279D01*
X141059Y223081D01*
X133111Y223081D01*
X133111Y224279D01*
X133111Y220279D02*
X141059Y220279D01*
X141059Y219081D01*
X133111Y219081D01*
X133111Y220279D01*
X133111Y216279D02*
X141059Y216279D01*
X141059Y215081D01*
X133111Y215081D01*
X133111Y216279D01*
X133111Y212279D02*
X141059Y212279D01*
X141059Y211081D01*
X133111Y211081D01*
X133111Y212279D01*
X133111Y207081D02*
X141059Y207081D01*
X133111Y207081D02*
X133111Y208279D01*
X141059Y208279D01*
X141059Y207081D01*
X144851Y203289D02*
X144851Y195341D01*
X144851Y203289D02*
X146049Y203289D01*
X146049Y195341D01*
X144851Y195341D01*
X144851Y197551D02*
X146049Y197551D01*
X146049Y199761D02*
X144851Y199761D01*
X144851Y201971D02*
X146049Y201971D01*
X148851Y203289D02*
X148851Y195341D01*
X148851Y203289D02*
X150049Y203289D01*
X150049Y195341D01*
X148851Y195341D01*
X148851Y197551D02*
X150049Y197551D01*
X150049Y199761D02*
X148851Y199761D01*
X148851Y201971D02*
X150049Y201971D01*
X152851Y203289D02*
X152851Y195341D01*
X152851Y203289D02*
X154049Y203289D01*
X154049Y195341D01*
X152851Y195341D01*
X152851Y197551D02*
X154049Y197551D01*
X154049Y199761D02*
X152851Y199761D01*
X152851Y201971D02*
X154049Y201971D01*
X156851Y203289D02*
X156851Y195341D01*
X156851Y203289D02*
X158049Y203289D01*
X158049Y195341D01*
X156851Y195341D01*
X156851Y197551D02*
X158049Y197551D01*
X158049Y199761D02*
X156851Y199761D01*
X156851Y201971D02*
X158049Y201971D01*
X160851Y203289D02*
X160851Y195341D01*
X160851Y203289D02*
X162049Y203289D01*
X162049Y195341D01*
X160851Y195341D01*
X160851Y197551D02*
X162049Y197551D01*
X162049Y199761D02*
X160851Y199761D01*
X160851Y201971D02*
X162049Y201971D01*
X164851Y203289D02*
X164851Y195341D01*
X164851Y203289D02*
X166049Y203289D01*
X166049Y195341D01*
X164851Y195341D01*
X164851Y197551D02*
X166049Y197551D01*
X166049Y199761D02*
X164851Y199761D01*
X164851Y201971D02*
X166049Y201971D01*
X170049Y203289D02*
X170049Y195341D01*
X168851Y195341D01*
X168851Y203289D01*
X170049Y203289D01*
X170049Y197551D02*
X168851Y197551D01*
X168851Y199761D02*
X170049Y199761D01*
X170049Y201971D02*
X168851Y201971D01*
X172851Y203289D02*
X172851Y195341D01*
X172851Y203289D02*
X174049Y203289D01*
X174049Y195341D01*
X172851Y195341D01*
X172851Y197551D02*
X174049Y197551D01*
X174049Y199761D02*
X172851Y199761D01*
X172851Y201971D02*
X174049Y201971D01*
X176851Y203289D02*
X176851Y195341D01*
X176851Y203289D02*
X178049Y203289D01*
X178049Y195341D01*
X176851Y195341D01*
X176851Y197551D02*
X178049Y197551D01*
X178049Y199761D02*
X176851Y199761D01*
X176851Y201971D02*
X178049Y201971D01*
X180851Y203289D02*
X180851Y195341D01*
X180851Y203289D02*
X182049Y203289D01*
X182049Y195341D01*
X180851Y195341D01*
X180851Y197551D02*
X182049Y197551D01*
X182049Y199761D02*
X180851Y199761D01*
X180851Y201971D02*
X182049Y201971D01*
X184851Y203289D02*
X184851Y195341D01*
X184851Y203289D02*
X186049Y203289D01*
X186049Y195341D01*
X184851Y195341D01*
X184851Y197551D02*
X186049Y197551D01*
X186049Y199761D02*
X184851Y199761D01*
X184851Y201971D02*
X186049Y201971D01*
X188851Y203289D02*
X188851Y195341D01*
X188851Y203289D02*
X190049Y203289D01*
X190049Y195341D01*
X188851Y195341D01*
X188851Y197551D02*
X190049Y197551D01*
X190049Y199761D02*
X188851Y199761D01*
X188851Y201971D02*
X190049Y201971D01*
X192851Y203289D02*
X192851Y195341D01*
X192851Y203289D02*
X194049Y203289D01*
X194049Y195341D01*
X192851Y195341D01*
X192851Y197551D02*
X194049Y197551D01*
X194049Y199761D02*
X192851Y199761D01*
X192851Y201971D02*
X194049Y201971D01*
X198049Y203289D02*
X198049Y195341D01*
X196851Y195341D01*
X196851Y203289D01*
X198049Y203289D01*
X198049Y197551D02*
X196851Y197551D01*
X196851Y199761D02*
X198049Y199761D01*
X198049Y201971D02*
X196851Y201971D01*
X201841Y207081D02*
X209789Y207081D01*
X201841Y207081D02*
X201841Y208279D01*
X209789Y208279D01*
X209789Y207081D01*
X209789Y211081D02*
X201841Y211081D01*
X201841Y212279D01*
X209789Y212279D01*
X209789Y211081D01*
X209789Y215081D02*
X201841Y215081D01*
X201841Y216279D01*
X209789Y216279D01*
X209789Y215081D01*
X209789Y219081D02*
X201841Y219081D01*
X201841Y220279D01*
X209789Y220279D01*
X209789Y219081D01*
X209789Y223081D02*
X201841Y223081D01*
X201841Y224279D01*
X209789Y224279D01*
X209789Y223081D01*
X209789Y227081D02*
X201841Y227081D01*
X201841Y228279D01*
X209789Y228279D01*
X209789Y227081D01*
X209789Y232279D02*
X201841Y232279D01*
X209789Y232279D02*
X209789Y231081D01*
X201841Y231081D01*
X201841Y232279D01*
X201841Y235081D02*
X209789Y235081D01*
X201841Y235081D02*
X201841Y236279D01*
X209789Y236279D01*
X209789Y235081D01*
X209789Y239081D02*
X201841Y239081D01*
X201841Y240279D01*
X209789Y240279D01*
X209789Y239081D01*
X209789Y243081D02*
X201841Y243081D01*
X201841Y244279D01*
X209789Y244279D01*
X209789Y243081D01*
X209789Y247081D02*
X201841Y247081D01*
X201841Y248279D01*
X209789Y248279D01*
X209789Y247081D01*
X209789Y251081D02*
X201841Y251081D01*
X201841Y252279D01*
X209789Y252279D01*
X209789Y251081D01*
X209789Y255081D02*
X201841Y255081D01*
X201841Y256279D01*
X209789Y256279D01*
X209789Y255081D01*
X209789Y260279D02*
X201841Y260279D01*
X209789Y260279D02*
X209789Y259081D01*
X201841Y259081D01*
X201841Y260279D01*
D33*
X92435Y50985D02*
X90445Y50985D01*
X92435Y50985D02*
X92435Y37995D01*
X90445Y37995D01*
X90445Y50985D01*
X90445Y41353D02*
X92435Y41353D01*
X92435Y44711D02*
X90445Y44711D01*
X90445Y48069D02*
X92435Y48069D01*
X85935Y50985D02*
X83945Y50985D01*
X85935Y50985D02*
X85935Y37995D01*
X83945Y37995D01*
X83945Y50985D01*
X83945Y41353D02*
X85935Y41353D01*
X85935Y44711D02*
X83945Y44711D01*
X83945Y48069D02*
X85935Y48069D01*
X96945Y50985D02*
X98935Y50985D01*
X98935Y37995D01*
X96945Y37995D01*
X96945Y50985D01*
X96945Y41353D02*
X98935Y41353D01*
X98935Y44711D02*
X96945Y44711D01*
X96945Y48069D02*
X98935Y48069D01*
X103445Y50985D02*
X105435Y50985D01*
X105435Y37995D01*
X103445Y37995D01*
X103445Y50985D01*
X103445Y41353D02*
X105435Y41353D01*
X105435Y44711D02*
X103445Y44711D01*
X103445Y48069D02*
X105435Y48069D01*
X79435Y50985D02*
X77445Y50985D01*
X79435Y50985D02*
X79435Y37995D01*
X77445Y37995D01*
X77445Y50985D01*
X77445Y41353D02*
X79435Y41353D01*
X79435Y44711D02*
X77445Y44711D01*
X77445Y48069D02*
X79435Y48069D01*
D34*
X61933Y46213D02*
X61933Y39227D01*
X52947Y39227D01*
X52947Y46213D01*
X61933Y46213D01*
X129933Y46213D02*
X129933Y39227D01*
X120947Y39227D01*
X120947Y46213D01*
X129933Y46213D01*
D35*
X84161Y15519D02*
X74719Y15519D01*
X74719Y24961D01*
X84161Y24961D01*
X84161Y15519D01*
X98719Y15519D02*
X108161Y15519D01*
X98719Y15519D02*
X98719Y24961D01*
X108161Y24961D01*
X108161Y15519D01*
D36*
X58420Y14732D02*
X58420Y25908D01*
X124460Y25908D02*
X124460Y14732D01*
D37*
X103710Y265040D03*
X81710Y265040D03*
X81710Y248040D03*
X103710Y248040D03*
D15*
X214630Y286940D03*
X214630Y276940D03*
D38*
X7620Y255150D03*
X7620Y240150D03*
D25*
X96600Y293370D03*
X106600Y293370D03*
D38*
X7620Y265550D03*
X7620Y280550D03*
D39*
X16510Y219075D03*
X41910Y219075D03*
X16510Y193675D03*
X41910Y193675D03*
X16510Y168275D03*
X41910Y168275D03*
X16510Y142875D03*
X41910Y142875D03*
X16510Y117475D03*
X41910Y117475D03*
X16510Y92075D03*
X41910Y92075D03*
X316230Y92075D03*
X290830Y92075D03*
X316230Y117475D03*
X290830Y117475D03*
X316230Y142875D03*
X290830Y142875D03*
X316230Y168275D03*
X290830Y168275D03*
X316230Y193675D03*
X290830Y193675D03*
X316230Y219075D03*
X290830Y219075D03*
D40*
X267970Y313690D03*
X242570Y313690D03*
X217170Y313690D03*
X118110Y313690D03*
X92710Y313690D03*
X67310Y313690D03*
D41*
X248800Y275090D03*
X243800Y275090D03*
X238800Y275090D03*
X233800Y275090D03*
X233800Y250690D03*
X238800Y250690D03*
X243800Y250690D03*
X248800Y250690D03*
D42*
X241300Y262890D03*
M02*
