M48
;GenerationSoftware,Autodesk,EAGLE,9.6.2*%
;CreationDate,2023-05-17T22:14:42Z*%
FMAT,2
ICI,OFF
METRIC,TZ,000.000
T4C0.350
T3C1.016
T2C1.250
T1C3.000
%
G90
M71
T1
X2096Y2032
X2096Y31242
X31305Y31242
X31305Y2032
T2
X14045Y3481
X22045Y3481
T3
X6731Y31369
X1651Y21907
X4191Y21907
X1651Y19368
X4191Y19368
X1651Y16828
X4191Y16828
X1651Y14287
X4191Y14287
X1651Y11747
X4191Y11747
X1651Y9208
X4191Y9208
X31623Y9208
X29083Y9208
X31623Y11747
X29083Y11747
X31623Y14287
X29083Y14287
X31623Y16828
X29083Y16828
X31623Y19368
X29083Y19368
X31623Y21907
X29083Y21907
X26797Y31369
X24257Y31369
X21717Y31369
X11811Y31369
X9271Y31369
T4
X16002Y22225
X17145Y22225
X18288Y22225
X16637Y15494
X18034Y16129
X11811Y26289
X1905Y28194
X2413Y28702
X3429Y28956
X11684Y8098
X18034Y15494
X20066Y16764
X23749Y26289
X24511Y26289
X24765Y17653
X24638Y16764
X11176Y12446
X7021Y23967
X635Y29591
X3429Y32893
X3937Y32258
X4191Y31369
X29464Y32766
X29083Y32004
X29337Y31242
X29464Y30226
X30226Y29591
X30988Y29083
X32004Y28829
X28702Y29210
X31242Y27940
X29845Y28702
X30480Y4191
X31369Y4445
X32258Y4064
X30607Y5207
X31877Y5969
X32512Y5080
X29337Y508
X4318Y762
X4318Y1778
X4318Y2794
X3683Y3810
X889Y3810
X635Y7747
X11049Y22520
X7705Y8805
X5715Y5842
X6477Y5842
X6985Y5334
X8255Y28956
X7366Y28956
X6604Y28956
X5715Y28956
X8382Y11692
X23749Y8255
X23749Y7493
X24130Y8890
X25908Y7493
X23749Y889
X19558Y32258
X20193Y32258
X18542Y32258
X9779Y36449
X9779Y35814
X9779Y35052
X10668Y34290
X11557Y34290
X12446Y34290
X13335Y34290
X14224Y34290
X15113Y35052
X14859Y35814
X14605Y36703
X13462Y36449
X12319Y36195
X11303Y36322
X10414Y36830
X6604Y24511
X21844Y1905
X14478Y6096
X14859Y5588
X10287Y21000
X13843Y6096
X7112Y21463
X25781Y26137
X16129Y27686
X19812Y27813
X16129Y18923
X20574Y19304
X20574Y20193
X14732Y23241
X22225Y28702
X11684Y10414
X21082Y17780
X21590Y23286
X18796Y18034
X19431Y18034
X25781Y26924
X11684Y11176
X6731Y20701
X6731Y20066
X16764Y11684
X17399Y11684
X18034Y11303
X23495Y16383
X26289Y21209
X25527Y21209
X26162Y20574
X25527Y20574
X14105Y29718
X14105Y32385
X14105Y33020
X14339Y15561
X23495Y17653
X21717Y22606
X21590Y21926
X9159Y5842
X8479Y5715
X15240Y1016
X14605Y1016
X13970Y1016
X20828Y6096
X20828Y6858
X14224Y6858
X13589Y7112
X13081Y6604
X11557Y6731
X13462Y17018
X25527Y15113
X1016Y4953
X1778Y4826
X2540Y4699
X25527Y15748
X7874Y16383
X11811Y15240
X14605Y24384
X19939Y18923
X14732Y25146
X21336Y19812
X27813Y26924
X15158Y27686
X21844Y6477
X20984Y26753
X17780Y27686
X19177Y25781
X14859Y25964
X12065Y29972
X4191Y30099
X14097Y18669
X14817Y18711
X15428Y19061
X12954Y20066
X16809Y18835
X6350Y22098
X8890Y22479
X12397Y20598
X19141Y19014
X19431Y20828
X11929Y21472
X17526Y18796
X10160Y22606
X508Y23167
X12192Y22987
X11775Y22443
X21844Y5715
X21844Y4953
X21082Y4953
X22606Y5334
X16764Y36322
X16764Y35433
X14097Y5461
X16764Y34544
X17653Y34163
X18415Y34163
X19177Y34163
X20066Y34163
X20828Y34163
X21844Y34163
X21717Y34925
X21590Y35687
X21717Y36576
X20828Y36703
X19939Y36322
X19177Y36195
X18415Y36322
X17526Y36576
X20584Y30226
X15808Y28956
X17653Y7239
X16891Y7239
X16637Y3556
X17145Y3556
X13716Y19304
X4064Y26543
X4064Y25781
X4191Y25019
X16002Y24384
X17145Y24384
X18288Y24384
X18681Y27791
M30